<svg xmlns="http://www.w3.org/2000/svg" width="180" height="40" viewBox="0 0 180 40">
  <g id="_Kalaignar100_" data-name="#Kalaignar100 " transform="translate(-2142 -473)">
    <g id="Rectangle_2655" data-name="Rectangle 2655" transform="translate(2142 473)" fill="#fff" stroke="#707070" stroke-width="1" opacity="0">
      <rect width="180" height="40" stroke="none"/>
      <rect x="0.5" y="0.5" width="179" height="39" fill="none"/>
    </g>
    <g id="hashtag" transform="translate(2148 481)">
      <path id="Union_4" data-name="Union 4" d="M79.675,22.813A4.641,4.641,0,0,1,77.728,19.4h3.164a2.35,2.35,0,0,0,1.081,1.378,3.765,3.765,0,0,0,2.015.512,3.118,3.118,0,0,0,2.254-.831,3.342,3.342,0,0,0,.865-2.516V15.983a4.841,4.841,0,0,1-1.7,1.479,5.06,5.06,0,0,1-2.471.593,5.421,5.421,0,0,1-2.914-.82,5.72,5.72,0,0,1-2.083-2.31,7.423,7.423,0,0,1-.763-3.427A7.306,7.306,0,0,1,77.944,8.1a5.584,5.584,0,0,1,2.072-2.276,5.507,5.507,0,0,1,2.925-.8,5.29,5.29,0,0,1,2.482.558,4.552,4.552,0,0,1,1.685,1.446v-1.8h3.21v12.7a6.779,6.779,0,0,1-.705,3.131A5.242,5.242,0,0,1,87.5,23.256a6.766,6.766,0,0,1-3.415.808A7.3,7.3,0,0,1,79.675,22.813ZM82.122,8.264A3.257,3.257,0,0,0,80.9,9.528a3.947,3.947,0,0,0-.467,1.969A4.081,4.081,0,0,0,80.9,13.49,3.354,3.354,0,0,0,82.134,14.8a3.116,3.116,0,0,0,1.627.456,3.282,3.282,0,0,0,1.662-.444,3.2,3.2,0,0,0,1.229-1.275,4.083,4.083,0,0,0,.456-1.992,4.079,4.079,0,0,0-.456-1.992,3.211,3.211,0,0,0-1.229-1.275,3.274,3.274,0,0,0-1.662-.444A3.225,3.225,0,0,0,82.122,8.264Zm28.379,8.97a5.733,5.733,0,0,1-2.071-2.31,7.413,7.413,0,0,1-.764-3.427,7.3,7.3,0,0,1,.764-3.393A5.576,5.576,0,0,1,110.5,5.829a5.511,5.511,0,0,1,2.925-.8A5.153,5.153,0,0,1,115.9,5.6a5.018,5.018,0,0,1,1.7,1.435v-1.8h3.21V17.85h-3.21V16a4.747,4.747,0,0,1-1.7,1.469,5.2,5.2,0,0,1-2.494.581A5.364,5.364,0,0,1,110.5,17.234Zm2.106-8.97a3.257,3.257,0,0,0-1.218,1.264,3.947,3.947,0,0,0-.467,1.969,4.081,4.081,0,0,0,.467,1.992,3.354,3.354,0,0,0,1.229,1.308,3.116,3.116,0,0,0,1.627.456,3.282,3.282,0,0,0,1.662-.444,3.2,3.2,0,0,0,1.23-1.275,4.091,4.091,0,0,0,.455-1.992,4.088,4.088,0,0,0-.455-1.992,3.213,3.213,0,0,0-1.23-1.275,3.274,3.274,0,0,0-1.662-.444A3.225,3.225,0,0,0,112.606,8.264Zm-54.355,8.97a5.741,5.741,0,0,1-2.072-2.31,7.423,7.423,0,0,1-.762-3.427A7.306,7.306,0,0,1,56.179,8.1a5.584,5.584,0,0,1,2.072-2.276,5.508,5.508,0,0,1,2.926-.8,5.151,5.151,0,0,1,2.469.569,5.006,5.006,0,0,1,1.7,1.435v-1.8h3.211V17.85H65.343V16a4.75,4.75,0,0,1-1.7,1.469,5.2,5.2,0,0,1-2.493.581A5.36,5.36,0,0,1,58.251,17.234Zm2.105-8.97a3.255,3.255,0,0,0-1.217,1.264,3.947,3.947,0,0,0-.467,1.969,4.081,4.081,0,0,0,.467,1.992A3.349,3.349,0,0,0,60.369,14.8,3.111,3.111,0,0,0,62,15.254a3.285,3.285,0,0,0,1.663-.444,3.2,3.2,0,0,0,1.229-1.275,4.083,4.083,0,0,0,.456-1.992,4.079,4.079,0,0,0-.456-1.992,3.209,3.209,0,0,0-1.229-1.275A3.277,3.277,0,0,0,62,7.831,3.229,3.229,0,0,0,60.356,8.264Zm-23.872,8.97a5.739,5.739,0,0,1-2.071-2.31A7.413,7.413,0,0,1,33.65,11.5,7.3,7.3,0,0,1,34.413,8.1a5.582,5.582,0,0,1,2.071-2.276,5.51,5.51,0,0,1,2.926-.8,5.15,5.15,0,0,1,2.47.569,5.01,5.01,0,0,1,1.7,1.435v-1.8h3.211V17.85H43.576V16a4.741,4.741,0,0,1-1.7,1.469,5.2,5.2,0,0,1-2.493.581A5.362,5.362,0,0,1,36.484,17.234Zm2.107-8.97a3.259,3.259,0,0,0-1.218,1.264,3.955,3.955,0,0,0-.467,1.969,4.089,4.089,0,0,0,.467,1.992A3.366,3.366,0,0,0,38.6,14.8a3.119,3.119,0,0,0,1.628.456,3.284,3.284,0,0,0,1.662-.444,3.211,3.211,0,0,0,1.229-1.275,4.091,4.091,0,0,0,.455-1.992,4.088,4.088,0,0,0-.455-1.992,3.222,3.222,0,0,0-1.229-1.275,3.276,3.276,0,0,0-1.662-.444A3.22,3.22,0,0,0,38.591,8.264Zm95.986,9.586V4.19h-2.208V1.252h5.488v16.6Zm-10.655,0V5.236h3.188V7.195a4.387,4.387,0,0,1,3.87-2.14V8.4h-.842a3.227,3.227,0,0,0-2.266.706,3.253,3.253,0,0,0-.762,2.459V17.85Zm-95.281,0-4.28-5.373V17.85H21.175V1h3.186v9.585L28.6,5.236H32.74l-5.555,6.329,5.6,6.284Zm-18.874,0,.82-3.87H6.444l-.819,3.87H2.618l.82-3.87H0V11.134H4.053L4.8,7.627H1.389V4.781h4.03L6.216,1H9.221l-.8,3.78h4.144l.8-3.78h3.028l-.8,3.78H18.51V7.627H14.981l-.751,3.506h2.891v2.846H13.615l-.82,3.87ZM7.058,11.134H11.2l.752-3.506H7.81Zm95.213,6.715V10.882a3.27,3.27,0,0,0-.751-2.31,2.658,2.658,0,0,0-2.049-.809,2.725,2.725,0,0,0-2.084.809,3.238,3.238,0,0,0-.763,2.31v6.967H93.437V5.235h3.187V6.807A4.413,4.413,0,0,1,98.253,5.52a5.056,5.056,0,0,1,2.174-.467,4.859,4.859,0,0,1,3.643,1.423,5.445,5.445,0,0,1,1.389,3.973v7.4Zm-30.6,0V5.235h3.189V17.849Zm-21.764,0V1h3.187V17.849Zm107.223-2.3a11.585,11.585,0,0,1-1.423-6.216,11.41,11.41,0,0,1,1.423-6.169,6.116,6.116,0,0,1,9.449,0A11.424,11.424,0,0,1,168,9.334a11.6,11.6,0,0,1-1.423,6.216,6.078,6.078,0,0,1-9.449,0Zm2.8-10.929a3.825,3.825,0,0,0-.865,1.88,15.655,15.655,0,0,0-.216,2.834,17.2,17.2,0,0,0,.2,2.9,3.645,3.645,0,0,0,.864,1.89,2.971,2.971,0,0,0,3.871,0,3.652,3.652,0,0,0,.865-1.89,17.2,17.2,0,0,0,.2-2.9,15.728,15.728,0,0,0-.216-2.834,3.832,3.832,0,0,0-.865-1.88,2.905,2.905,0,0,0-3.848,0ZM142.421,15.55A11.593,11.593,0,0,1,141,9.334a11.417,11.417,0,0,1,1.423-6.169,6.116,6.116,0,0,1,9.449,0,11.417,11.417,0,0,1,1.423,6.169,11.593,11.593,0,0,1-1.423,6.216,6.078,6.078,0,0,1-9.449,0Zm2.8-10.929a3.825,3.825,0,0,0-.865,1.88,15.657,15.657,0,0,0-.216,2.834,17.2,17.2,0,0,0,.2,2.9,3.638,3.638,0,0,0,.864,1.89,2.97,2.97,0,0,0,3.87,0,3.647,3.647,0,0,0,.866-1.89,17.2,17.2,0,0,0,.2-2.9,15.726,15.726,0,0,0-.216-2.834,3.838,3.838,0,0,0-.865-1.88,2.905,2.905,0,0,0-3.848,0ZM71.888,3.2a1.765,1.765,0,0,1-.558-1.332A1.768,1.768,0,0,1,71.888.534a2.1,2.1,0,0,1,2.8,0,1.771,1.771,0,0,1,.558,1.332A1.768,1.768,0,0,1,74.688,3.2a2.1,2.1,0,0,1-2.8,0Z" fill="#f2b705"/>
    </g>
  </g>
</svg>
