<svg xmlns="http://www.w3.org/2000/svg" xmlns:xlink="http://www.w3.org/1999/xlink" width="433.187" height="162.438" viewBox="0 0 433.187 162.438">
  <defs>
    <linearGradient id="linear-gradient" x1="0.5" y1="-0.107" x2="0.5" y2="1.363" gradientUnits="objectBoundingBox">
      <stop offset="0" stop-color="#cc5c9e"/>
      <stop offset="0.222" stop-color="#ac2f76"/>
      <stop offset="0.418" stop-color="#940f59"/>
      <stop offset="0.525" stop-color="#8c034e"/>
    </linearGradient>
    <linearGradient id="linear-gradient-2" x1="0.5" y1="-0.121" x2="0.5" y2="0.884" xlink:href="#linear-gradient"/>
    <radialGradient id="radial-gradient" cx="0.5" cy="0.5" r="0.437" gradientUnits="objectBoundingBox">
      <stop offset="0" stop-color="#cc5c9e"/>
      <stop offset="0.222" stop-color="#ac2f76"/>
      <stop offset="0.418" stop-color="#940f59"/>
      <stop offset="0.525" stop-color="#8c034e"/>
      <stop offset="0.649" stop-color="#99155e"/>
      <stop offset="0.899" stop-color="#bc468a"/>
      <stop offset="1" stop-color="#cc5c9e"/>
    </radialGradient>
    <radialGradient id="radial-gradient-2" cx="0.492" cy="0.594" r="0.606" gradientUnits="objectBoundingBox">
      <stop offset="0" stop-color="#cc5c9e"/>
      <stop offset="0.215" stop-color="#ac2f76"/>
      <stop offset="0.404" stop-color="#940f59"/>
      <stop offset="0.508" stop-color="#8c034e"/>
      <stop offset="0.637" stop-color="#99155e"/>
      <stop offset="0.896" stop-color="#bc468a"/>
      <stop offset="1" stop-color="#cc5c9e"/>
    </radialGradient>
    <linearGradient id="linear-gradient-3" x1="0.5" y1="-0.121" x2="0.5" y2="0.864" xlink:href="#linear-gradient"/>
    <radialGradient id="radial-gradient-3" cx="0.5" cy="0.5" r="0.875" gradientUnits="objectBoundingBox">
      <stop offset="0.167" stop-color="#cc5c9e"/>
      <stop offset="0.266" stop-color="#ac2f76"/>
      <stop offset="0.354" stop-color="#940f59"/>
      <stop offset="0.402" stop-color="#8c034e"/>
      <stop offset="0.558" stop-color="#99155e"/>
      <stop offset="0.873" stop-color="#bc468a"/>
      <stop offset="1" stop-color="#cc5c9e"/>
    </radialGradient>
    <linearGradient id="linear-gradient-4" x1="0.5" y1="-0.145" x2="0.5" y2="0.836" xlink:href="#linear-gradient"/>
    <radialGradient id="radial-gradient-4" cx="0.5" cy="0.5" r="0.729" xlink:href="#radial-gradient"/>
    <linearGradient id="linear-gradient-5" x1="1.374" y1="-0.01" x2="-0.948" y2="1.345" xlink:href="#linear-gradient"/>
    <linearGradient id="linear-gradient-6" x1="0.5" y1="0.03" x2="0.5" y2="0.69" xlink:href="#linear-gradient"/>
    <linearGradient id="linear-gradient-7" x1="0.5" y1="0.093" x2="0.5" y2="0.848" xlink:href="#linear-gradient"/>
    <radialGradient id="radial-gradient-5" cx="0.231" cy="-0.124" r="2.034" xlink:href="#radial-gradient"/>
    <linearGradient id="linear-gradient-8" x1="0.5" y1="0" x2="0.5" y2="1" xlink:href="#linear-gradient"/>
    <linearGradient id="linear-gradient-10" x1="1.804" y1="0.593" x2="-3.059" y2="0.247" xlink:href="#linear-gradient"/>
    <radialGradient id="radial-gradient-6" cx="0.104" cy="0.461" r="3.252" xlink:href="#radial-gradient"/>
    <radialGradient id="radial-gradient-7" cx="0.612" cy="1.349" r="1.008" xlink:href="#radial-gradient"/>
    <linearGradient id="linear-gradient-11" x1="0.5" x2="0.5" y2="1" gradientUnits="objectBoundingBox">
      <stop offset="0.006" stop-color="#ffef5f"/>
      <stop offset="0.259" stop-color="#ffeb5f"/>
      <stop offset="0.485" stop-color="#ffe05f"/>
      <stop offset="0.7" stop-color="#ffce5f"/>
      <stop offset="0.907" stop-color="#ffb55f"/>
      <stop offset="1" stop-color="#ffa75f"/>
    </linearGradient>
    <linearGradient id="linear-gradient-18" x1="0.5" y1="0.546" x2="0.5" y2="1.059" gradientUnits="objectBoundingBox">
      <stop offset="0.006" stop-color="#820349"/>
      <stop offset="1" stop-color="#690349"/>
    </linearGradient>
    <clipPath id="clip-path">
      <path id="Path_4968" data-name="Path 4968" d="M508.719,204.017h-3.008q6.832,0,6.832-5.859a5.667,5.667,0,0,0-1.659-4.347c-1.1-1.035-2.833-1.557-5.173-1.557h3.008c2.34,0,4.07.522,5.173,1.557a5.667,5.667,0,0,1,1.659,4.347Q515.551,204.017,508.719,204.017Z" fill="none"/>
    </clipPath>
    <linearGradient id="linear-gradient-19" y1="0.585" y2="1.009" xlink:href="#linear-gradient-18"/>
    <clipPath id="clip-path-2">
      <path id="Path_5024" data-name="Path 5024" d="M745.474,257.477h-3.607q6.685,0,6.686-5.616a5.406,5.406,0,0,0-1.584-4.2c-1.065-.972-2.757-1.449-5.1-1.449h3.607c2.345,0,4.037.477,5.1,1.449a5.406,5.406,0,0,1,1.584,4.2Q752.16,257.477,745.474,257.477Z" fill="none"/>
    </clipPath>
    <clipPath id="clip-path-3">
      <path id="Path_5031" data-name="Path 5031" d="M789.852,274.73h-3.607a16.866,16.866,0,0,1-8.459-2.142,15.611,15.611,0,0,1-5.952-5.931,17.952,17.952,0,0,1,0-17.163,15.5,15.5,0,0,1,5.952-5.913,17.037,17.037,0,0,1,8.459-2.115h3.607a17.04,17.04,0,0,0-8.459,2.115,15.5,15.5,0,0,0-5.952,5.913,17.952,17.952,0,0,0,0,17.163,15.611,15.611,0,0,0,5.952,5.931A16.869,16.869,0,0,0,789.852,274.73Z" fill="none"/>
    </clipPath>
    <linearGradient id="linear-gradient-20" y1="0.526" y2="0.939" xlink:href="#linear-gradient-18"/>
  </defs>
  <g id="Group_9891" data-name="Group 9891" transform="translate(-992.654 -2342.634)">
    <g id="Group_9873" data-name="Group 9873" transform="translate(566.333 2221)">
      <g id="Group_9047" data-name="Group 9047">
        <g id="Group_9046" data-name="Group 9046">
          <g id="Group_9045" data-name="Group 9045">
            <g id="Group_9028" data-name="Group 9028" style="mix-blend-mode: normal;isolation: isolate">
              <g id="Group_9025" data-name="Group 9025">
                <rect id="Rectangle_2412" data-name="Rectangle 2412" width="7.829" height="5.862" transform="translate(531.536 139.027)" fill="url(#linear-gradient)"/>
              </g>
              <g id="Group_9026" data-name="Group 9026">
                <rect id="Rectangle_2413" data-name="Rectangle 2413" width="17.208" height="5.862" transform="translate(539.365 175.148)" fill="url(#linear-gradient-2)"/>
              </g>
              <g id="Group_9027" data-name="Group 9027">
                <path id="Path_4864" data-name="Path 4864" d="M556.573,124v51.15H539.365V139.027h-7.829V124Z" fill="#8c034e"/>
              </g>
            </g>
            <g id="Group_9030" data-name="Group 9030" style="mix-blend-mode: normal;isolation: isolate">
              <path id="Path_4865" data-name="Path 4865" d="M590.055,148.249c.024.089.049.177.073.268.05.2.1.4.141.612.015.068.031.133.045.2q.084.422.153.875c.011.07.019.144.029.215.034.238.065.48.092.73.013.111.023.226.034.34q.031.331.057.677c.009.125.018.249.025.376.015.244.026.493.036.746,0,.116.009.23.013.348.01.372.017.752.017,1.144v-5.861c0-.393-.007-.773-.017-1.145,0-.118-.009-.232-.013-.348-.01-.253-.021-.5-.036-.745-.007-.127-.016-.252-.025-.376-.017-.231-.036-.456-.057-.678-.011-.114-.021-.228-.034-.34-.027-.25-.058-.492-.092-.73-.01-.07-.018-.145-.029-.214-.046-.3-.1-.594-.153-.876-.014-.069-.03-.134-.045-.2-.044-.209-.091-.414-.141-.612-.024-.091-.049-.179-.073-.268s-.049-.188-.076-.278c-.016-.052-.036-.1-.052-.148-.061-.195-.127-.381-.2-.563-.024-.065-.045-.139-.07-.2s-.051-.124-.076-.185c-.034-.079-.069-.156-.106-.232s-.088-.176-.135-.26c-.027-.048-.055-.094-.083-.141l-.017-.029-.026-.043c-.04-.063-.08-.124-.122-.184s-.079-.109-.12-.162-.078-.1-.119-.146l-.012-.015-.007-.008c-.032-.037-.064-.074-.1-.109s-.079-.084-.12-.124-.08-.077-.121-.115-.082-.073-.124-.109l-.017-.013-.008-.007c-.034-.028-.068-.056-.1-.083s-.089-.067-.134-.1-.094-.065-.142-.1-.1-.063-.15-.093l-.023-.013-.014-.008c-.042-.024-.084-.048-.127-.071-.058-.031-.118-.061-.178-.09s-.13-.06-.2-.088c-.035-.015-.072-.028-.108-.042l-.039-.015-.082-.032c-.089-.032-.179-.062-.271-.09-.109-.032-.221-.062-.335-.088h-.005l-.013,0c-.148-.034-.3-.064-.459-.088-.052-.007-.11-.008-.163-.015-.138-.017-.281-.029-.425-.039-.086-.006-.165-.02-.254-.024-.113,0-.227-.006-.344-.006-.294,0-.574.015-.844.041-.089.009-.171.026-.257.038-.148.019-.3.035-.439.063-.028.005-.052.015-.08.021-.085.018-.164.042-.246.064-.1.027-.215.049-.315.082-.062.02-.12.044-.18.066l-.094.034-.094.035c-.092.038-.181.078-.268.121s-.145.073-.215.113l-.026.015-.017.01c-.048.028-.1.055-.142.084s-.112.072-.166.11-.1.073-.151.11l-.093.075-.014.011-.03.024c-.043.037-.086.074-.129.113s-.082.076-.121.116-.079.079-.117.12l-.083.094-.009.01-.019.022c-.037.044-.074.088-.109.133s-.072.094-.107.143-.07.1-.1.151c-.022.033-.042.067-.063.1l-.013.022c-.01.015-.02.03-.029.046-.036.06-.071.122-.1.185s-.071.136-.1.206-.062.134-.092.2l-.025.06c-.068.163-.133.333-.2.509-.01.03-.019.063-.03.093-.029.085-.056.175-.084.263-.033.1-.069.205-.1.314-.012.044-.022.1-.035.14-.052.188-.1.384-.145.583-.02.086-.045.165-.064.254-.008.036-.013.075-.021.111-.023.113-.044.231-.066.346-.034.181-.067.364-.1.553-.02.127-.039.258-.057.389-.014.107-.032.208-.045.317-.011.087-.019.181-.029.269-.014.129-.028.26-.041.392-.02.211-.038.428-.054.647-.01.132-.021.264-.029.4-.015.242-.025.492-.035.745,0,.12-.011.237-.015.36-.01.379-.017.766-.017,1.166v5.861c0-.4.007-.787.017-1.165,0-.123.01-.24.015-.361.01-.252.02-.5.035-.745.008-.135.019-.267.029-.4q.024-.33.054-.647c.013-.132.027-.263.041-.392.023-.2.048-.394.074-.586.018-.131.037-.262.057-.39.029-.189.062-.371.1-.552.022-.116.043-.234.066-.346s.056-.244.085-.366c.046-.2.093-.4.145-.582.044-.156.089-.306.136-.454.028-.088.055-.178.084-.263.08-.23.162-.453.251-.662a4.944,4.944,0,0,1,.329-.641l.013-.021a4.264,4.264,0,0,1,.4-.549l.009-.01a4.151,4.151,0,0,1,.48-.467l.014-.011a4.107,4.107,0,0,1,.552-.379l.017-.01a4.589,4.589,0,0,1,.6-.284l.092-.034c.158-.058.326-.1.5-.149.082-.021.161-.045.246-.064.167-.036.343-.06.52-.084.086-.011.167-.028.256-.037.27-.026.55-.042.844-.042.208,0,.4.017.6.031.144.01.287.021.425.039.213.027.424.058.622.1l.013,0a5.492,5.492,0,0,1,.693.211l.039.016a4.462,4.462,0,0,1,.611.291l.013.008a4.115,4.115,0,0,1,.552.384l.008.007a4.01,4.01,0,0,1,.479.47l.007.008a4.371,4.371,0,0,1,.4.55l.017.029a5.146,5.146,0,0,1,.324.633c.052.122.1.257.146.387.069.181.135.368.2.563C589.971,147.962,590.014,148.1,590.055,148.249Z" fill="url(#radial-gradient)"/>
              <path id="Path_4866" data-name="Path 4866" d="M606.82,158.172c.013-.182.029-.362.04-.546.019-.308.03-.622.043-.935.006-.157.015-.31.02-.468q.021-.711.021-1.44v-5.861q0,.729-.021,1.439c0,.158-.014.311-.02.468-.013.313-.024.627-.043.935-.011.184-.027.364-.04.546-.02.275-.038.551-.063.821-.018.193-.041.381-.061.572-.027.25-.052.5-.083.747q-.093.739-.212,1.457c-.016.094-.035.185-.052.279-.066.382-.137.76-.216,1.131-.053.257-.111.509-.17.761-.029.12-.055.242-.085.362q-.14.568-.3,1.121c-.141.486-.3.96-.458,1.428-.051.147-.1.292-.158.437q-.148.4-.307.8c-.064.158-.128.316-.2.472-.088.206-.179.409-.272.611-.077.167-.154.334-.234.5s-.166.332-.25.5-.182.352-.277.525c-.077.141-.157.28-.237.419q-.156.273-.32.54-.112.185-.228.366-.18.281-.367.555c-.071.1-.142.21-.215.313-.19.269-.383.535-.585.795s-.421.522-.64.773c-.049.057-.1.114-.151.17-.211.236-.426.468-.649.69l-.02.021c-.228.227-.465.445-.7.657l-.174.152c-.243.21-.491.415-.746.61-.017.014-.036.026-.054.04-.237.18-.482.353-.73.521-.082.056-.164.11-.247.164-.2.131-.4.256-.61.379-.09.053-.179.108-.27.16-.214.122-.433.236-.653.35-.094.048-.185.1-.28.147-.143.07-.292.133-.437.2-.2.093-.4.188-.609.275-.089.037-.182.069-.272.1q-.5.2-1.024.377c-.159.054-.319.105-.481.155q-.316.1-.641.188c-.18.049-.361.1-.544.142-.22.055-.443.106-.668.155-.184.039-.369.078-.556.114-.25.048-.505.091-.761.132-.182.029-.363.059-.548.085-.271.038-.547.068-.824.1-.178.019-.354.041-.535.057-.309.028-.625.047-.943.065-.155.009-.307.022-.464.029-.477.02-.962.032-1.456.032-.453,0-.9-.01-1.336-.027-.521-.02-1.031-.055-1.532-.1-.143-.013-.283-.031-.425-.045-.359-.038-.714-.08-1.063-.13q-.345-.05-.684-.106c-.107-.019-.216-.036-.323-.056-.365-.067-.726-.14-1.079-.222-.425-.1-.841-.211-1.249-.331-.2-.06-.4-.127-.594-.192-.165-.054-.333-.1-.495-.163-.336-.12-.667-.247-.991-.384-.036-.014-.07-.031-.1-.046q-.423-.182-.83-.381c-.084-.041-.166-.083-.248-.125-.238-.121-.473-.246-.7-.377-.06-.033-.12-.065-.179-.1q-.414-.241-.812-.5l-.168-.114q-.363-.246-.712-.509l-.1-.07c-.251-.193-.5-.4-.736-.6l-.162-.142c-.24-.213-.476-.43-.7-.657l-.047-.049c-.213-.213-.419-.434-.621-.66-.056-.062-.112-.125-.167-.188-.215-.248-.427-.5-.631-.763q-.33-.426-.64-.869c-.1-.142-.192-.288-.288-.432-.11-.166-.222-.329-.328-.5q-.313-.5-.6-1.014l-.013-.024c-.2-.368-.4-.745-.586-1.127-.049-.1-.1-.207-.144-.309q-.272-.575-.516-1.172c-.05-.12-.1-.239-.149-.36-.074-.188-.143-.379-.213-.57s-.136-.367-.2-.554-.129-.392-.191-.589-.121-.377-.178-.569c-.063-.215-.122-.433-.181-.652-.05-.187-.1-.373-.15-.563-.056-.223-.107-.451-.158-.678-.044-.192-.089-.382-.129-.576-.049-.233-.092-.471-.136-.708-.036-.195-.074-.387-.107-.585-.041-.244-.076-.493-.113-.741-.029-.2-.06-.391-.086-.59-.034-.257-.061-.52-.089-.781-.022-.2-.047-.391-.066-.59-.026-.278-.046-.561-.067-.844-.014-.188-.031-.374-.043-.564-.02-.318-.032-.642-.045-.965-.007-.162-.017-.32-.022-.483q-.021-.733-.022-1.486v5.861q0,.753.022,1.487c.005.163.015.321.022.482.013.324.025.648.045.966.012.19.029.376.043.564.021.282.041.566.067.844.019.2.044.393.066.59.028.261.055.524.089.78.026.2.057.394.086.59.037.249.072.5.113.742.033.2.071.39.107.585.044.237.087.474.136.708.04.194.085.384.129.576.051.227.1.454.158.677.047.19.1.377.15.564.059.218.118.437.181.651.015.051.027.1.042.153.043.141.091.277.136.417.063.2.125.4.191.589s.132.37.2.553.139.383.213.571c.02.05.038.1.058.153.028.071.062.136.091.206q.244.6.516,1.172c.031.067.058.137.089.2.018.036.038.07.055.106.188.383.382.76.586,1.128l.012.021v0q.289.518.6,1.014l.021.036c.1.156.2.306.306.459s.19.292.289.435l.021.03q.3.423.612.83l.007.009c.16.205.323.407.49.6.047.054.1.1.142.159s.11.125.166.187.123.142.186.211c.142.153.288.3.435.45l.047.049.015.015c.165.163.332.323.5.479.061.056.125.108.186.163l.162.142c.056.048.11.1.167.145q.259.219.528.426l.041.031.1.071c.137.1.273.207.414.306.1.069.2.135.3.2l.167.113c.038.025.075.052.114.077.2.131.405.257.613.38.028.016.058.031.086.048.059.034.12.067.179.1.13.074.259.149.392.22.1.054.208.1.311.157.082.042.164.084.247.124.053.026.1.055.158.08.222.106.448.205.676.3.034.014.067.03.1.045l.02.009q.447.188.911.355l.062.02c.161.058.328.108.491.162s.348.12.527.174l.07.019c.408.12.824.232,1.25.331l.011,0c.349.081.706.152,1.067.219.107.02.216.037.323.056.149.025.295.053.446.076.077.012.16.018.238.029q.523.075,1.063.13c.142.015.282.033.425.045.5.045,1.011.08,1.532.1l.034,0q.641.024,1.3.025c.494,0,.979-.012,1.456-.033.157-.006.309-.019.464-.028.318-.019.634-.038.943-.065.181-.016.357-.038.535-.057.277-.03.553-.061.824-.1.185-.026.366-.056.548-.085.256-.041.511-.084.761-.132.08-.015.163-.026.242-.042.107-.022.208-.05.314-.073.225-.048.448-.1.668-.154.183-.046.364-.093.544-.143.216-.059.429-.122.641-.187.1-.031.2-.056.3-.087.064-.021.123-.047.186-.068q.522-.175,1.022-.376c.069-.028.142-.05.21-.078l.064-.029c.206-.085.4-.18.6-.272.13-.06.265-.114.393-.177l.048-.025c.094-.046.185-.1.278-.146.182-.093.366-.185.543-.284.038-.021.074-.045.112-.066.091-.052.18-.107.27-.16.123-.074.249-.144.37-.22.082-.052.16-.107.24-.16s.165-.107.246-.163c.062-.041.125-.08.186-.122.185-.13.366-.263.546-.4l.053-.039.014-.01c.191-.147.38-.3.565-.453.056-.048.111-.1.167-.147l.174-.152c.063-.056.128-.11.191-.167q.258-.237.507-.484l.006-.006.02-.021c.156-.157.31-.315.461-.478.064-.07.126-.142.189-.213l.15-.169c.044-.05.089-.1.133-.149.156-.184.31-.372.46-.564l.047-.06q.252-.325.492-.66c.032-.044.062-.091.093-.135.073-.1.144-.209.215-.313s.153-.218.226-.33c.048-.074.093-.151.141-.225q.115-.182.228-.366c.051-.082.1-.162.154-.246s.11-.2.166-.294c.08-.139.16-.279.237-.42.037-.067.076-.131.112-.2.057-.106.109-.217.165-.325.084-.165.169-.329.25-.5.031-.063.065-.124.1-.188.048-.1.091-.208.138-.31.093-.2.184-.4.272-.611.031-.073.066-.143.1-.217s.064-.171.1-.255q.159-.395.307-.8c.034-.093.072-.181.1-.275.019-.053.034-.109.053-.163.162-.467.317-.941.458-1.428l0-.006c.106-.366.2-.738.3-1.115.03-.119.056-.241.085-.361.048-.2.1-.406.142-.613.011-.048.018-.1.028-.148.079-.372.15-.75.216-1.131.017-.094.036-.185.052-.279q.118-.717.212-1.457c0-.026.007-.05.011-.076.027-.221.048-.447.072-.671.02-.191.043-.379.061-.572C606.782,158.722,606.8,158.447,606.82,158.172Z" fill="url(#radial-gradient-2)"/>
              <g id="Group_9029" data-name="Group 9029">
                <path id="Path_4867" data-name="Path 4867" d="M601.476,130.1q5.466,7.041,5.468,18.817,0,11.85-5.468,18.893t-16.691,7.042q-11.23,0-16.691-7.042t-5.463-18.893q0-11.844,5.463-18.855t16.691-7.009Q596.008,123.058,601.476,130.1ZM589.585,156.87a21.173,21.173,0,0,0,1.185-7.948,20.889,20.889,0,0,0-1.185-7.911q-1.179-2.776-4.8-2.781-3.694,0-4.873,2.781a20.889,20.889,0,0,0-1.185,7.911,21.173,21.173,0,0,0,1.185,7.948q1.179,2.813,4.873,2.815,3.615,0,4.8-2.815" fill="#8c034e"/>
              </g>
            </g>
            <g id="Group_9032" data-name="Group 9032" style="mix-blend-mode: normal;isolation: isolate">
              <rect id="Rectangle_2414" data-name="Rectangle 2414" width="14.921" height="5.862" transform="translate(616.685 175.148)" fill="url(#linear-gradient-3)"/>
              <g id="Group_9031" data-name="Group 9031">
                <path id="Path_4868" data-name="Path 4868" d="M624.284,151.445v18.077h7.321v5.625H616.685v-23.7Z" fill="#8c034e"/>
              </g>
            </g>
            <g id="Group_9035" data-name="Group 9035" style="mix-blend-mode: normal;isolation: isolate">
              <path id="Path_4869" data-name="Path 4869" d="M646.076,170.2c.007.019.013.037.019.056a3.665,3.665,0,0,1,.1.428c.013.068.032.13.042.2a4.76,4.76,0,0,1,.048.682v-5.862a4.77,4.77,0,0,0-.048-.682c-.01-.07-.029-.133-.042-.2-.024-.12-.042-.243-.076-.354-.007-.026-.017-.049-.026-.074s-.012-.037-.019-.056c-.015-.043-.029-.089-.046-.131-.025-.063-.052-.125-.081-.184s-.049-.1-.075-.145l-.028-.047-.009-.015-.036-.061q-.035-.054-.072-.108c-.023-.032-.047-.065-.071-.1l-.072-.089q-.039-.046-.081-.09l-.008-.01-.075-.076c-.027-.027-.055-.053-.083-.079s-.054-.049-.082-.072-.055-.045-.083-.067-.055-.042-.084-.062l-.011-.008-.005,0-.07-.048-.09-.055c-.031-.018-.062-.036-.094-.053l-.1-.05q-.054-.025-.108-.048l-.01,0-.006,0c-.034-.015-.069-.028-.1-.041s-.091-.032-.137-.045-.108-.031-.163-.044c-.034-.008-.069-.013-.1-.019l-.041-.008-.071-.014a3.221,3.221,0,0,0-.361-.034c-.044,0-.089,0-.135,0a3.261,3.261,0,0,0-.613.058l-.024,0a2.67,2.67,0,0,0-.3.079c-.062.02-.123.043-.183.067h0c-.049.02-.1.042-.143.064s-.082.042-.122.064-.073.043-.109.065-.067.043-.1.066h0c-.031.021-.061.043-.091.066l-.088.071c-.029.024-.057.049-.085.075s-.056.052-.083.079-.049.049-.072.074l-.01.011c-.026.028-.052.057-.077.086s-.045.054-.066.082-.044.056-.065.085-.042.06-.062.091-.041.064-.061.1l0,.008,0,0c-.018.031-.036.063-.053.1s-.041.077-.059.117-.041.087-.059.132-.041.1-.059.153l-.012.037-.007.022c-.014.041-.028.082-.04.125q-.033.115-.06.237c-.014.066-.023.136-.034.205,0,.027-.01.052-.013.079s-.009.044-.012.068a5.161,5.161,0,0,0-.035.61v5.862a4.871,4.871,0,0,1,.047-.678c0-.027.009-.053.013-.079a3.6,3.6,0,0,1,.134-.568l.007-.021a2.848,2.848,0,0,1,.242-.534l0,0a2.558,2.558,0,0,1,.345-.46,2.653,2.653,0,0,1,.419-.365h0a2.469,2.469,0,0,1,.476-.26h0a2.72,2.72,0,0,1,.509-.149,3.178,3.178,0,0,1,.613-.059,3.242,3.242,0,0,1,.567.05l.041.008a2.7,2.7,0,0,1,.507.149l.006,0a2.476,2.476,0,0,1,.471.258l0,0a2.642,2.642,0,0,1,.759.818l.009.015A2.889,2.889,0,0,1,646.076,170.2Z" fill="url(#radial-gradient-3)"/>
              <g id="Group_9033" data-name="Group 9033">
                <rect id="Rectangle_2415" data-name="Rectangle 2415" width="7.56" height="5.862" transform="translate(646.287 175.148)" fill="url(#linear-gradient-4)"/>
              </g>
              <path id="Path_4870" data-name="Path 4870" d="M645.9,173.174l-.017.023a4.992,4.992,0,0,1-.47.537l-.008.007a5.09,5.09,0,0,1-.544.465l-.03.022a5.762,5.762,0,0,1-.627.4,5.484,5.484,0,0,1-.668.307l-.114.042c-.165.06-.339.108-.514.155-.094.025-.186.053-.282.074-.175.039-.359.066-.543.091-.089.013-.175.03-.266.04a8.663,8.663,0,0,1-.866.045c-.135,0-.267-.007-.4-.013-.269-.013-.533-.037-.792-.075-.073-.011-.146-.025-.219-.038-.1-.018-.209-.037-.311-.06s-.2-.046-.3-.072c-.058-.016-.117-.03-.175-.047-.151-.044-.3-.091-.449-.145l-.036-.014c-.137-.05-.272-.106-.406-.165l-.1-.045c-.14-.065-.279-.132-.415-.2l-.042-.024c-.145-.079-.289-.162-.43-.252s-.274-.183-.406-.281l-.06-.044c-.124-.094-.244-.192-.362-.294l-.061-.053c-.117-.1-.232-.212-.343-.324-.018-.017-.035-.036-.052-.053q-.168-.172-.327-.357l-.012-.014c-.1-.123-.2-.251-.3-.381-.026-.034-.051-.069-.077-.1-.084-.116-.165-.235-.245-.357l-.048-.072q-.141-.224-.273-.461c-.041-.073-.078-.15-.117-.224-.057-.11-.115-.217-.168-.33q-.131-.271-.243-.555c-.1-.238-.18-.485-.258-.736-.022-.07-.042-.141-.062-.212-.059-.2-.113-.413-.161-.625-.013-.06-.029-.12-.041-.181q-.084-.4-.142-.818c-.009-.062-.015-.126-.023-.188q-.042-.344-.069-.7c-.006-.082-.012-.164-.017-.246-.017-.3-.028-.6-.028-.912v5.862c0,.311.011.613.028.911,0,.083.011.165.017.247q.027.355.069.7c.008.062.014.126.023.187.039.28.086.552.142.819.012.061.028.12.042.181.047.212.1.42.16.624.012.042.02.086.032.127s.021.056.03.085c.078.251.162.5.258.736v0q.113.282.242.552l.031.065c.044.091.091.176.137.264s.076.152.117.224l.013.026c.079.142.162.281.247.416l.013.02.048.071c.057.088.113.175.173.259.023.034.048.066.072.1l.077.1c.026.034.05.069.076.1.072.093.146.184.221.272l.005.005.012.015c.066.076.132.152.2.225.042.045.085.088.127.131l.052.054.039.04c.072.071.145.141.219.209l.085.074.061.053c.025.023.05.046.076.067.075.063.151.125.228.184l.058.043.06.044c.039.03.078.06.118.088.077.055.155.108.235.159l.053.035.21.129c.073.042.146.082.219.122l.043.025.02.011c.1.052.2.1.295.149l.1.044.1.046.111.05q.145.06.294.114l.037.015.01,0q.189.067.381.126c.019.005.039.009.058.015.058.017.117.031.175.047s.141.039.212.056l.085.016c.1.023.207.042.311.06.057.01.113.024.17.033.016,0,.033,0,.049.005a7.869,7.869,0,0,0,.792.074c.024,0,.047.006.072.007q.162.006.327.006a8.373,8.373,0,0,0,.866-.045c.091-.009.177-.027.266-.039.151-.021.306-.037.451-.067.032-.006.06-.017.092-.024.1-.021.188-.049.282-.074s.221-.052.326-.086c.064-.021.125-.047.188-.069.038-.014.077-.028.114-.043s.08-.027.118-.043c.109-.045.216-.093.321-.145.077-.037.154-.077.229-.118l.044-.025q.132-.073.258-.153c.076-.048.151-.1.223-.148.035-.024.068-.049.1-.074l.031-.023c.022-.016.045-.031.066-.048q.091-.07.18-.144c.056-.047.111-.1.164-.144s.091-.085.134-.128l.008-.008.012-.01c.049-.049.1-.1.143-.149s.092-.1.137-.154.088-.1.13-.159l.048-.064.017-.023c.02-.027.041-.053.06-.08.042-.058.082-.117.121-.177s.08-.125.118-.189.063-.107.093-.161h0v-5.861A5.036,5.036,0,0,1,645.9,173.174Z" fill="url(#radial-gradient-4)"/>
              <g id="Group_9034" data-name="Group 9034">
                <path id="Path_4871" data-name="Path 4871" d="M646.287,156.269h7.56v18.879h-7.56v-2.581a5.143,5.143,0,0,1-2.088,2.061,6.655,6.655,0,0,1-3.253.754,7.449,7.449,0,0,1-4.073-1.155,7.832,7.832,0,0,1-2.853-3.349,13.333,13.333,0,0,1,0-10.344,7.789,7.789,0,0,1,2.853-3.344,7.411,7.411,0,0,1,4.073-1.16,6.655,6.655,0,0,1,3.253.754,5.173,5.173,0,0,1,2.088,2.061Zm-.79,11.78a3.87,3.87,0,0,0,0-4.686,2.856,2.856,0,0,0-4.034,0,3.869,3.869,0,0,0,0,4.686,2.844,2.844,0,0,0,4.034,0" fill="#8c034e"/>
              </g>
            </g>
            <g id="Group_9039" data-name="Group 9039" style="mix-blend-mode: normal;isolation: isolate">
              <path id="Path_4872" data-name="Path 4872" d="M671.3,165.773v5.862l7.224-9.5v-5.862Z" fill="url(#linear-gradient-5)"/>
              <g id="Group_9036" data-name="Group 9036">
                <rect id="Rectangle_2416" data-name="Rectangle 2416" width="9.067" height="5.862" transform="translate(669.626 175.148)" fill="url(#linear-gradient-6)"/>
              </g>
              <path id="Path_4873" data-name="Path 4873" d="M664.87,167.614v5.862l4.756,7.533v-5.862Z" fill="#8c034e"/>
              <g id="Group_9037" data-name="Group 9037">
                <rect id="Rectangle_2417" data-name="Rectangle 2417" width="7.599" height="5.862" transform="translate(657.271 175.148)" fill="url(#linear-gradient-7)"/>
              </g>
              <g id="Group_9038" data-name="Group 9038">
                <path id="Path_4874" data-name="Path 4874" d="M664.87,150.377V163.33l4.824-7.061h8.828l-7.224,9.5,7.394,9.375h-9.068l-4.756-7.533v7.533h-7.6V150.377Z" fill="#8c034e"/>
              </g>
            </g>
            <g id="Group_9042" data-name="Group 9042" style="mix-blend-mode: normal;isolation: isolate">
              <path id="Path_4875" data-name="Path 4875" d="M693.214,169.772l.018.054a2.925,2.925,0,0,1,.1.39c.012.06.03.117.039.179a4.332,4.332,0,0,1,.043.6v-5.862a4.307,4.307,0,0,0-.043-.6c-.009-.063-.027-.12-.039-.18-.02-.1-.036-.21-.065-.307-.009-.028-.02-.055-.03-.083l-.018-.053c-.012-.034-.023-.069-.036-.1q-.034-.087-.075-.171c-.022-.046-.046-.091-.071-.136-.01-.019-.022-.037-.033-.055l-.008-.015c-.01-.015-.018-.031-.028-.046-.022-.035-.045-.07-.069-.1s-.045-.063-.068-.094-.046-.058-.07-.086l-.072-.081-.011-.012-.064-.065c-.025-.025-.05-.049-.076-.072l-.075-.066c-.025-.022-.051-.042-.077-.062s-.052-.04-.078-.058l-.027-.018-.007-.005-.047-.032c-.028-.018-.056-.036-.085-.052s-.059-.034-.089-.05-.063-.033-.095-.049l-.1-.046-.03-.012-.012-.005c-.025-.01-.049-.02-.074-.028-.044-.016-.088-.031-.133-.045s-.108-.03-.164-.043c-.04-.009-.082-.016-.123-.024l-.039-.007c-.018,0-.036-.008-.054-.01a3.135,3.135,0,0,0-.371-.035q-.069,0-.141,0a3.545,3.545,0,0,0-.549.045c-.026,0-.052.007-.078.012s-.038,0-.056.008a2.536,2.536,0,0,0-.3.079c-.047.015-.091.032-.136.05l-.019.007-.024.008c-.046.019-.092.04-.136.061s-.077.039-.114.06l-.1.059-.08.053,0,0-.006,0c-.028.019-.055.039-.082.06l-.077.062c-.025.021-.05.042-.074.064s-.047.045-.07.068-.046.047-.069.071l-.013.014-.062.07c-.023.027-.044.054-.066.081s-.042.054-.062.082l-.059.087c-.02.031-.04.062-.058.093l-.008.014,0,.005c-.016.027-.031.054-.046.081s-.037.072-.055.11-.038.081-.055.123-.038.094-.055.142l-.01.031-.006.02c-.013.039-.026.078-.038.118q-.03.1-.054.216c-.012.057-.02.118-.03.178,0,.024-.009.048-.012.073s-.008.043-.011.065a4.438,4.438,0,0,0-.032.539V171a4.3,4.3,0,0,1,.043-.6c0-.025.008-.049.012-.074a3.243,3.243,0,0,1,.122-.512l.006-.019a2.692,2.692,0,0,1,.221-.487l0-.006a2.524,2.524,0,0,1,.315-.426,2.3,2.3,0,0,1,.391-.343l0,0a2.284,2.284,0,0,1,.453-.242l.019-.007a2.693,2.693,0,0,1,.492-.137l.078-.011a3.427,3.427,0,0,1,.549-.045,3.307,3.307,0,0,1,.566.048l.039.007a2.63,2.63,0,0,1,.494.14l.012,0a2.354,2.354,0,0,1,.451.242l.007.005a2.4,2.4,0,0,1,.4.341,2.468,2.468,0,0,1,.318.422l.008.015A2.642,2.642,0,0,1,693.214,169.772Z" fill="url(#radial-gradient-5)"/>
              <g id="Group_9040" data-name="Group 9040">
                <rect id="Rectangle_2418" data-name="Rectangle 2418" width="7.56" height="5.862" transform="translate(693.409 175.148)" fill="url(#linear-gradient-8)"/>
                <rect id="Rectangle_2419" data-name="Rectangle 2419" width="7.594" height="5.862" transform="translate(680.406 175.148)" fill="url(#linear-gradient-8)"/>
              </g>
              <g id="Group_9041" data-name="Group 9041">
                <path id="Path_4876" data-name="Path 4876" d="M688,150.377v8.769a6.817,6.817,0,0,1,2.38-2.176,7.1,7.1,0,0,1,3.541-.835,6.462,6.462,0,0,1,5.185,2.176,8.736,8.736,0,0,1,1.864,5.887v10.95h-7.561v-10.01a2.989,2.989,0,0,0-.736-2.128,2.873,2.873,0,0,0-3.951,0,3.023,3.023,0,0,0-.722,2.128v10.01h-7.594V150.377Z" fill="#8c034e"/>
              </g>
            </g>
            <g id="Group_9044" data-name="Group 9044" style="mix-blend-mode: normal;isolation: isolate">
              <rect id="Rectangle_2420" data-name="Rectangle 2420" width="7.087" height="5.862" transform="translate(714.007 162.796)" fill="url(#linear-gradient-10)"/>
              <path id="Path_4877" data-name="Path 4877" d="M712.515,167.147l.032.008a2.264,2.264,0,0,1,.337.118l.012.005a1.917,1.917,0,0,1,.3.171l.006,0a1.8,1.8,0,0,1,.263.222l.006,0a1.95,1.95,0,0,1,.216.268l.008.012a2.169,2.169,0,0,1,.167.3l.014.033a2.524,2.524,0,0,1,.126.359V162.8c-.006-.024-.013-.048-.02-.071-.024-.079-.05-.155-.079-.228l-.027-.061-.014-.033c-.009-.019-.017-.039-.026-.057-.019-.04-.039-.079-.06-.116s-.037-.064-.056-.1l-.025-.037-.008-.012-.022-.034c-.018-.025-.036-.05-.055-.074l-.052-.065c-.018-.02-.036-.041-.054-.06l-.033-.035-.006,0-.015-.016-.055-.052c-.018-.017-.037-.033-.056-.049s-.039-.032-.059-.048l-.06-.045-.018-.012-.006,0-.041-.028-.069-.042c-.024-.014-.05-.029-.075-.042l-.081-.041-.039-.017-.012-.006-.041-.018c-.035-.015-.07-.028-.106-.041s-.083-.029-.126-.042l-.064-.016-.032-.009-.061-.016c-.07-.016-.142-.03-.216-.041-.019,0-.041,0-.06-.006-.057-.007-.117-.011-.176-.016s-.106-.013-.163-.015-.1,0-.158,0a2.06,2.06,0,0,0-.36.032c-.012,0-.028,0-.039,0l-.039.011-.052.013c-.017.005-.036.008-.052.014s-.05.017-.074.027l-.025.011-.008,0-.019.008-.04.021-.035.021-.028.018-.023.017h0l0,0-.022.018-.022.018-.019.019-.018.018-.017.02-.014.017h0l0,0-.015.021-.016.022-.014.023-.014.025-.014.027-.007.016v0l-.005.011-.014.035-.013.043c-.005.017-.009.035-.013.053l0,.015,0,.014c0,.016-.006.033-.008.05a1.059,1.059,0,0,0-.008.128v5.862a1.018,1.018,0,0,1,.016-.179l0-.014a.747.747,0,0,1,.048-.156v0a.621.621,0,0,1,.082-.136h0a.679.679,0,0,1,.115-.112h0a.76.76,0,0,1,.145-.086l.008,0a1.031,1.031,0,0,1,.151-.052l.052-.014.078-.013a1.967,1.967,0,0,1,.36-.032c.112,0,.216.009.321.018.059,0,.119.008.176.016A2.877,2.877,0,0,1,712.515,167.147Z" fill="#8c034e"/>
              <path id="Path_4878" data-name="Path 4878" d="M711.1,173.777v-5.862c-.329-.065-.641-.131-.946-.2l-.232-.052c-.207-.047-.4-.094-.6-.142-.119-.029-.241-.058-.355-.088-.186-.048-.361-.1-.535-.145-.1-.027-.2-.054-.288-.081-.254-.076-.5-.152-.724-.23a5.7,5.7,0,0,1-.688-.288l-.038-.019a6,6,0,0,1-.625-.363l-.031-.022a6.125,6.125,0,0,1-.583-.446l-.033-.029a6.868,6.868,0,0,1-.553-.541,3.676,3.676,0,0,1-.245-.3l-.021-.028c-.072-.1-.138-.2-.2-.31l-.019-.033c-.058-.1-.111-.208-.16-.318-.014-.029-.027-.059-.04-.089-.033-.078-.063-.159-.092-.241-.02-.055-.04-.109-.058-.166-.012-.039-.022-.081-.034-.121a5.557,5.557,0,0,1-.16-.754c0-.023,0-.048-.007-.072a7.11,7.11,0,0,1-.056-.884h0v5.862a7.11,7.11,0,0,0,.056.884c0,.023,0,.048.007.072a5.557,5.557,0,0,0,.16.754c.006.02.008.043.014.063s.014.038.02.058c.018.056.038.111.058.166s.033.1.053.151c.012.031.026.06.039.09s.026.06.04.089.023.056.036.084c.035.071.071.14.109.208l.015.026.019.033c.024.04.046.08.071.118.033.053.067.1.1.154l.027.038.021.028.054.073c.034.044.068.086.1.128s.057.066.087.1l.037.04c.068.073.137.145.207.215s.135.131.2.194l.1.092.033.029c.022.018.042.038.064.056.066.055.134.11.2.162s.135.1.2.151c.038.027.076.052.114.077l.031.022.063.042q.105.069.213.132c.074.043.148.085.223.125l.126.064.038.019.071.036c.084.04.168.077.253.113s.184.075.278.108l.086.031c.208.071.428.142.66.211.02.007.044.012.064.019.092.027.192.053.288.08.174.049.349.1.535.146.114.03.236.059.355.088s.231.059.354.088c.078.018.163.035.243.054l.232.051C710.459,173.646,710.771,173.712,711.1,173.777Z" fill="url(#radial-gradient-6)"/>
              <path id="Path_4879" data-name="Path 4879" d="M714.224,174.765h0a.848.848,0,0,1,.146.251l0,.008a.873.873,0,0,1,.049.293v-5.862a.885.885,0,0,0-.036-.256c0-.013-.008-.025-.013-.037l0-.008-.008-.023c-.007-.017-.015-.034-.023-.051l-.022-.043-.023-.038-.023-.034-.024-.033-.023-.029h0l0,0-.027-.03-.029-.031-.031-.029-.035-.03-.038-.031-.042-.031-.042-.029h0l0,0-.054-.033-.063-.036-.075-.038c-.03-.014-.061-.028-.093-.041l-.056-.023-.082-.03c-.1-.036-.206-.071-.324-.106l-.031-.009-.061-.017q-.217-.063-.477-.125l-.076-.019-.041-.01c-.126-.03-.273-.059-.413-.089-.08-.016-.15-.033-.234-.05-.246-.048-.509-.1-.793-.146v5.862c.284.049.547.1.793.146l.234.05c.156.033.315.066.454.1l.076.018q.26.063.477.125l.061.018c.164.048.311.1.437.145a1.914,1.914,0,0,1,.345.173h0A1.124,1.124,0,0,1,714.224,174.765Z" fill="#8c034e"/>
              <path id="Path_4880" data-name="Path 4880" d="M721.345,170.391c0,.038-.013.074-.019.111a4.756,4.756,0,0,1-.159.677l-.016.049a4.783,4.783,0,0,1-.284.683l-.013.026a5,5,0,0,1-.413.663,5.16,5.16,0,0,1-.532.617l-.007.006a5.562,5.562,0,0,1-.624.529l-.034.026a6.611,6.611,0,0,1-.714.447l-.067.035a8.085,8.085,0,0,1-.827.382c-.236.1-.488.172-.74.248-.2.06-.4.112-.612.161-.152.036-.3.072-.461.1-.265.05-.542.087-.822.12-.133.016-.262.038-.4.049-.422.037-.857.06-1.312.06-.5,0-.959-.041-1.421-.079-.266-.021-.536-.039-.789-.073a12.8,12.8,0,0,1-1.468-.271l-.134-.036a9.989,9.989,0,0,1-1.46-.512l-.049-.022a8.076,8.076,0,0,1-1.317-.749c-.2-.14-.387-.288-.567-.443l-.041-.036q-.26-.227-.492-.472l-.022-.024a6.869,6.869,0,0,1-.449-.531l-.032-.043q-.2-.263-.369-.544c-.017-.027-.032-.053-.048-.08-.113-.19-.219-.385-.317-.588-.012-.026-.022-.053-.034-.079-.078-.168-.149-.341-.216-.518-.042-.108-.079-.22-.116-.332s-.076-.233-.11-.352a9.707,9.707,0,0,1-.231-.977v5.862a9.623,9.623,0,0,0,.231.976c.011.038.016.08.027.117.025.082.056.157.083.236.037.112.074.224.116.332.016.043.029.09.046.132.053.132.111.259.17.386.012.026.022.053.034.079l.011.023c.064.133.132.264.2.392.033.059.069.115.1.172.016.027.031.054.048.081s.029.051.045.076c.062.1.127.2.194.291.042.06.086.118.13.177l.032.043.031.042c.064.082.129.162.2.241s.131.152.2.225l.021.023.024.024c.053.056.105.112.16.166s.14.136.213.2c.038.035.078.069.117.1l.042.037c.022.018.042.038.064.056.077.064.155.128.236.19s.165.125.25.185l.017.012c.081.057.163.113.247.167s.187.119.283.175.2.118.309.173.224.117.34.172l.138.062.049.022c.065.029.129.059.2.087.144.06.292.118.442.172q.258.093.528.174c.1.029.2.052.3.078.045.013.089.025.134.036.082.021.159.045.242.064q.457.106.947.182c.088.013.189.014.279.026.253.034.523.052.789.073.234.019.451.055.694.065s.481.013.727.013c.455,0,.89-.022,1.312-.059.137-.012.266-.033.4-.049.28-.033.557-.07.822-.12.053-.011.112-.014.165-.025.1-.021.2-.054.3-.077.208-.049.414-.1.612-.161.065-.02.137-.032.2-.053q.276-.09.539-.2l.135-.054c.162-.068.319-.138.471-.212.075-.037.147-.077.22-.116.023-.012.046-.023.069-.036s.051-.025.075-.039c.1-.057.2-.116.3-.177s.171-.11.254-.168c.029-.02.057-.042.086-.063l.034-.025.1-.074c.067-.051.133-.1.2-.158s.12-.1.178-.156.1-.093.148-.141l.007-.007.008-.007c.051-.051.1-.1.151-.157s.1-.1.141-.158.09-.108.133-.163.067-.087.1-.131l.036-.05c.043-.06.085-.12.125-.181s.078-.123.116-.186.074-.128.108-.193c.01-.017.018-.035.028-.053l.013-.026c.021-.041.042-.082.062-.123.034-.072.066-.145.1-.218s.063-.158.092-.238c.012-.035.022-.07.033-.1l.016-.048c.013-.04.026-.078.038-.118.031-.108.058-.216.082-.327.016-.076.026-.155.039-.232.006-.037.014-.074.019-.111s.012-.064.016-.1a5.491,5.491,0,0,0,.041-.672v-5.862A5.346,5.346,0,0,1,721.345,170.391Z" fill="url(#radial-gradient-7)"/>
              <g id="Group_9043" data-name="Group 9043">
                <path id="Path_4881" data-name="Path 4881" d="M711.851,156.03a9.835,9.835,0,0,1,6.283,1.861,8.092,8.092,0,0,1,2.961,4.9h-7.088a2.129,2.129,0,0,0-2.326-1.608q-1.061,0-1.059.8c0,.382.259.673.771.874a16.03,16.03,0,0,0,2.444.634,24.691,24.691,0,0,1,3.751.954,6.55,6.55,0,0,1,2.682,1.789,4.825,4.825,0,0,1,1.132,3.383,4.895,4.895,0,0,1-.961,2.977,6.158,6.158,0,0,1-2.8,2.042,11.674,11.674,0,0,1-4.346.74,11.3,11.3,0,0,1-6.638-1.742,7.44,7.44,0,0,1-3.044-5.019H710.9q.205,1.64,2.361,1.637c.776,0,1.166-.268,1.166-.8,0-.425-.263-.735-.79-.94a14.714,14.714,0,0,0-2.532-.6,28.356,28.356,0,0,1-3.677-.935,6.12,6.12,0,0,1-2.551-1.708,4.736,4.736,0,0,1-1.093-3.316,5.239,5.239,0,0,1,.922-3.044,6.1,6.1,0,0,1,2.736-2.109A11.266,11.266,0,0,1,711.851,156.03Z" fill="#8c034e"/>
              </g>
            </g>
          </g>
        </g>
      </g>
      <g id="Group_9049" data-name="Group 9049">
        <g id="Group_9048" data-name="Group 9048">
          <path id="Path_4882" data-name="Path 4882" d="M531.536,138.461v-15.6h25.037v53.108H539.365V138.461Z" stroke="#8c034e" stroke-width="0.5" fill="url(#linear-gradient-11)"/>
          <path id="Path_4883" data-name="Path 4883" d="M562.629,148.738q0-12.3,5.465-19.578t16.691-7.276q11.226,0,16.691,7.313t5.466,19.541q0,12.3-5.466,19.615t-16.691,7.314q-11.227,0-16.691-7.314T562.629,148.738Zm28.138,0a22.507,22.507,0,0,0-1.181-8.214q-1.182-2.886-4.8-2.888-3.694,0-4.874,2.888a22.481,22.481,0,0,0-1.182,8.214,22.787,22.787,0,0,0,1.182,8.251q1.18,2.925,4.874,2.926,3.618,0,4.8-2.926A22.813,22.813,0,0,0,590.767,148.738Z" stroke="#8c034e" stroke-width="0.5" fill="url(#linear-gradient-11)"/>
          <path id="Path_4884" data-name="Path 4884" d="M624.282,170.128H631.6v5.839h-14.92V151.359h7.6Z" stroke="#8c034e" stroke-width="0.5" fill="url(#linear-gradient-11)"/>
          <path id="Path_4885" data-name="Path 4885" d="M644.2,156.9a5.265,5.265,0,0,1,2.087,2.137v-2.676h7.563v19.6h-7.563v-2.676a5.265,5.265,0,0,1-2.087,2.137,6.442,6.442,0,0,1-3.251.782,7.217,7.217,0,0,1-4.073-1.2,8.057,8.057,0,0,1-2.857-3.475,14.335,14.335,0,0,1,0-10.741,8.057,8.057,0,0,1,2.857-3.475,7.217,7.217,0,0,1,4.073-1.2A6.442,6.442,0,0,1,644.2,156.9Zm-2.738,6.83a4.153,4.153,0,0,0,0,4.865,2.78,2.78,0,0,0,4.038,0,4.153,4.153,0,0,0,0-4.865,2.78,2.78,0,0,0-4.038,0Z" stroke="#8c034e" stroke-width="0.5" fill="url(#linear-gradient-11)"/>
          <path id="Path_4886" data-name="Path 4886" d="M669.625,175.967l-4.757-7.82v7.82h-7.6v-25.72h7.6V163.7l4.825-7.334h8.829l-7.221,9.871,7.392,9.732Z" stroke="#8c034e" stroke-width="0.5" fill="url(#linear-gradient-11)"/>
          <path id="Path_4887" data-name="Path 4887" d="M699.106,158.484a9.322,9.322,0,0,1,1.865,6.118v11.365h-7.562V165.575a3.176,3.176,0,0,0-.736-2.207,2.8,2.8,0,0,0-3.953,0,3.222,3.222,0,0,0-.719,2.207v10.392h-7.6v-25.72H688v9.106a6.751,6.751,0,0,1,5.921-3.128A6.355,6.355,0,0,1,699.106,158.484Z" stroke="#8c034e" stroke-width="0.5" fill="url(#linear-gradient-11)"/>
          <path id="Path_4888" data-name="Path 4888" d="M718.133,158.05a8.461,8.461,0,0,1,2.96,5.092h-7.084a2.141,2.141,0,0,0-2.327-1.669q-1.061,0-1.06.835,0,.591.769.9a15.362,15.362,0,0,0,2.448.661,24,24,0,0,1,3.747.99,6.54,6.54,0,0,1,2.686,1.86,5.132,5.132,0,0,1,1.129,3.51,5.233,5.233,0,0,1-.958,3.094,6.254,6.254,0,0,1-2.806,2.12,11.315,11.315,0,0,1-4.346.764,10.991,10.991,0,0,1-6.639-1.807,7.789,7.789,0,0,1-3.046-5.214H710.9q.205,1.7,2.361,1.7,1.164,0,1.164-.834a1.041,1.041,0,0,0-.787-.973,14.461,14.461,0,0,0-2.532-.626,26.892,26.892,0,0,1-3.679-.973,6.085,6.085,0,0,1-2.55-1.772,5.049,5.049,0,0,1-1.1-3.441,5.577,5.577,0,0,1,.925-3.163,6.143,6.143,0,0,1,2.737-2.19,10.916,10.916,0,0,1,4.414-.8A9.579,9.579,0,0,1,718.133,158.05Z" stroke="#8c034e" stroke-width="0.5" fill="url(#linear-gradient-11)"/>
        </g>
      </g>
    </g>
    <g id="Group_9887" data-name="Group 9887" transform="translate(566.333 2201)">
      <g id="Group_9124" data-name="Group 9124" transform="translate(0 20)">
        <rect id="Rectangle_2424" data-name="Rectangle 2424" width="13.151" height="53.739" transform="translate(426.32 176.999)" fill="#460227"/>
        <rect id="Rectangle_2425" data-name="Rectangle 2425" width="315.542" height="53.739" transform="translate(439.471 176.999)" fill="url(#linear-gradient-18)"/>
      </g>
      <g id="Group_9194" data-name="Group 9194" transform="translate(0 20)">
        <g id="Group_9144" data-name="Group 9144" style="mix-blend-mode: normal;isolation: isolate">
          <path id="Path_4952" data-name="Path 4952" d="M482,195.566q-3.363-3.159-9.656-3.168h-3.008q6.294,0,9.656,3.168t3.371,8.883q0,5.71-3.371,8.883t-9.656,3.168h3.008q6.294,0,9.656-3.168t3.371-8.883Q485.372,198.738,482,195.566Z" fill="#858585"/>
          <g id="Group_9141" data-name="Group 9141">
            <path id="Path_4953" data-name="Path 4953" d="M466.741,216.5h0Z" fill="gray"/>
          </g>
          <g id="Group_9142" data-name="Group 9142">
            <path id="Path_4954" data-name="Path 4954" d="M461.093,187.547h0Z" fill="gray"/>
          </g>
          <rect id="Rectangle_2442" data-name="Rectangle 2442" width="3.008" height="33.894" transform="translate(458.085 187.547)" fill="#818181"/>
          <g id="Group_9143" data-name="Group 9143">
            <path id="Path_4955" data-name="Path 4955" d="M488.967,195.521a19.633,19.633,0,0,1,0,17.874,14.63,14.63,0,0,1-6.294,5.931,21.452,21.452,0,0,1-9.889,2.115H461.093V187.547h11.691a21.683,21.683,0,0,1,9.889,2.1A14.514,14.514,0,0,1,488.967,195.521ZM482,213.332q3.375-3.173,3.371-8.883T482,195.566q-3.363-3.159-9.656-3.168h-5.6v24.1h5.6q6.294,0,9.656-3.168" fill="#fff"/>
          </g>
        </g>
        <g id="Group_9150" data-name="Group 9150" style="mix-blend-mode: normal;isolation: isolate">
          <g id="Group_9145" data-name="Group 9145">
            <path id="Path_4956" data-name="Path 4956" d="M583.942,187.547h0Z" fill="gray"/>
          </g>
          <g id="Group_9146" data-name="Group 9146">
            <path id="Path_4957" data-name="Path 4957" d="M573.828,215.582H570.82l10.113-28.035h3.008Z" fill="gray"/>
          </g>
          <g id="Group_9147" data-name="Group 9147">
            <path id="Path_4958" data-name="Path 4958" d="M557.627,187.547h0Z" fill="gray"/>
          </g>
          <g id="Group_9148" data-name="Group 9148">
            <path id="Path_4959" data-name="Path 4959" d="M570.215,221.441h-3.008l-12.588-33.894h3.008Z" fill="#818181"/>
          </g>
          <g id="Group_9149" data-name="Group 9149">
            <path id="Path_4960" data-name="Path 4960" d="M590.083,187.547,577.45,221.441h-7.235l-12.588-33.894h6.141l10.06,28.035,10.113-28.035Z" fill="#fff"/>
          </g>
        </g>
        <g id="Group_9157" data-name="Group 9157" style="mix-blend-mode: normal;isolation: isolate">
          <g id="Group_9151" data-name="Group 9151">
            <path id="Path_4961" data-name="Path 4961" d="M550,221.441h-3.008l-2.681-7.344h3.008Z" fill="#818181"/>
          </g>
          <g id="Group_9152" data-name="Group 9152">
            <path id="Path_4962" data-name="Path 4962" d="M545.729,209.876h-3.008l-5.792-15.849h3.008Z" fill="#818181"/>
          </g>
          <g id="Group_9153" data-name="Group 9153">
            <path id="Path_4963" data-name="Path 4963" d="M536.71,188.078h0Z" fill="gray"/>
          </g>
          <g id="Group_9154" data-name="Group 9154">
            <path id="Path_4964" data-name="Path 4964" d="M534.137,209.876h0Z" fill="gray"/>
          </g>
          <g id="Group_9155" data-name="Group 9155">
            <path id="Path_4965" data-name="Path 4965" d="M523.826,221.441h-3.008L533.7,188.078h3.008Z" fill="gray"/>
          </g>
          <g id="Group_9156" data-name="Group 9156">
            <path id="Path_4966" data-name="Path 4966" d="M543.21,188.078l12.83,33.363H550l-2.681-7.344H532.55l-2.672,7.344h-6.052l12.884-33.363Zm-9.073,21.8h11.592l-5.791-15.849-5.8,15.849" fill="#fff"/>
          </g>
        </g>
        <g id="Group_9166" data-name="Group 9166" style="mix-blend-mode: normal;isolation: isolate">
          <g id="Group_9160" data-name="Group 9160" style="mix-blend-mode: normal;isolation: isolate">
            <g id="Group_9159" data-name="Group 9159" clip-path="url(#clip-path)">
              <g id="Group_9158" data-name="Group 9158" style="mix-blend-mode: normal;isolation: isolate">
                <path id="Path_4967" data-name="Path 4967" d="M508.719,204.017h-3.008q6.832,0,6.832-5.859a5.667,5.667,0,0,0-1.659-4.347c-1.1-1.035-2.833-1.557-5.173-1.557h3.008c2.34,0,4.07.522,5.173,1.557a5.667,5.667,0,0,1,1.659,4.347q0,5.859-6.832,5.859" fill="#858585"/>
              </g>
            </g>
          </g>
          <g id="Group_9161" data-name="Group 9161">
            <path id="Path_4969" data-name="Path 4969" d="M515.21,221.441H512.2L503.479,207.9h3.008Z" fill="#818181"/>
          </g>
          <g id="Group_9162" data-name="Group 9162">
            <path id="Path_4970" data-name="Path 4970" d="M502.47,204.017h0Z" fill="gray"/>
          </g>
          <g id="Group_9163" data-name="Group 9163">
            <path id="Path_4971" data-name="Path 4971" d="M496.821,187.547h0Z" fill="gray"/>
          </g>
          <g id="Group_9164" data-name="Group 9164">
            <rect id="Rectangle_2443" data-name="Rectangle 2443" width="3.008" height="33.894" transform="translate(493.814 187.547)" fill="#818181"/>
          </g>
          <g id="Group_9165" data-name="Group 9165">
            <path id="Path_4972" data-name="Path 4972" d="M512.386,207.662l9.163,13.779H515.21L506.486,207.9H502.47v13.536h-5.649V187.547h12.337q6,0,9.1,2.835a9.666,9.666,0,0,1,3.094,7.488,9.349,9.349,0,0,1-2.3,6.525A11.043,11.043,0,0,1,512.386,207.662Zm-9.916-3.645h6.249q6.831,0,6.832-5.859a5.667,5.667,0,0,0-1.659-4.347c-1.1-1.035-2.833-1.557-5.173-1.557H502.47v11.763" fill="#fff"/>
          </g>
        </g>
        <g id="Group_9170" data-name="Group 9170" style="mix-blend-mode: normal;isolation: isolate">
          <g id="Group_9167" data-name="Group 9167">
            <rect id="Rectangle_2444" data-name="Rectangle 2444" width="3.008" height="33.894" transform="translate(591.289 187.547)" fill="#818181"/>
          </g>
          <g id="Group_9168" data-name="Group 9168">
            <path id="Path_4973" data-name="Path 4973" d="M594.3,187.547h0Z" fill="gray"/>
          </g>
          <g id="Group_9169" data-name="Group 9169">
            <rect id="Rectangle_2445" data-name="Rectangle 2445" width="5.648" height="33.894" transform="translate(594.297 187.547)" fill="#fff"/>
          </g>
        </g>
        <g id="Group_9175" data-name="Group 9175" style="mix-blend-mode: normal;isolation: isolate">
          <path id="Path_4974" data-name="Path 4974" d="M627.7,195.566q-3.375-3.159-9.665-3.168h-3.007q6.294,0,9.665,3.168t3.362,8.883q0,5.71-3.362,8.883t-9.665,3.168h3.007q6.294,0,9.665-3.168t3.362-8.883Q631.065,198.738,627.7,195.566Z" fill="#858585"/>
          <g id="Group_9171" data-name="Group 9171">
            <path id="Path_4975" data-name="Path 4975" d="M612.435,216.5h0Z" fill="gray"/>
          </g>
          <g id="Group_9172" data-name="Group 9172">
            <path id="Path_4976" data-name="Path 4976" d="M606.786,187.547h0Z" fill="gray"/>
          </g>
          <g id="Group_9173" data-name="Group 9173">
            <rect id="Rectangle_2446" data-name="Rectangle 2446" width="3.008" height="33.894" transform="translate(603.778 187.547)" fill="#818181"/>
          </g>
          <g id="Group_9174" data-name="Group 9174">
            <path id="Path_4977" data-name="Path 4977" d="M634.661,195.521a19.56,19.56,0,0,1,0,17.874,14.641,14.641,0,0,1-6.294,5.931,21.455,21.455,0,0,1-9.889,2.115H606.786V187.547h11.692a21.686,21.686,0,0,1,9.889,2.1A14.525,14.525,0,0,1,634.661,195.521ZM627.7,213.332q3.363-3.173,3.362-8.883t-3.362-8.883q-3.375-3.159-9.665-3.168h-5.6v24.1h5.6q6.294,0,9.665-3.168" fill="#fff"/>
          </g>
        </g>
        <g id="Group_9179" data-name="Group 9179" style="mix-blend-mode: normal;isolation: isolate">
          <g id="Group_9176" data-name="Group 9176">
            <rect id="Rectangle_2447" data-name="Rectangle 2447" width="3.008" height="33.894" transform="translate(639.507 187.547)" fill="#818181"/>
          </g>
          <g id="Group_9177" data-name="Group 9177">
            <path id="Path_4978" data-name="Path 4978" d="M642.515,187.547h0Z" fill="gray"/>
          </g>
          <g id="Group_9178" data-name="Group 9178">
            <rect id="Rectangle_2448" data-name="Rectangle 2448" width="5.648" height="33.894" transform="translate(642.515 187.547)" fill="#fff"/>
          </g>
        </g>
        <g id="Group_9186" data-name="Group 9186" style="mix-blend-mode: normal;isolation: isolate">
          <g id="Group_9180" data-name="Group 9180">
            <path id="Path_4979" data-name="Path 4979" d="M678.548,221.441H675.54L672.86,214.1h3.008Z" fill="#818181"/>
          </g>
          <g id="Group_9181" data-name="Group 9181">
            <path id="Path_4980" data-name="Path 4980" d="M674.28,209.876h-3.008l-5.792-15.849h3.008Z" fill="#818181"/>
          </g>
          <g id="Group_9182" data-name="Group 9182">
            <path id="Path_4981" data-name="Path 4981" d="M665.261,188.078h0Z" fill="gray"/>
          </g>
          <g id="Group_9183" data-name="Group 9183">
            <path id="Path_4982" data-name="Path 4982" d="M662.688,209.876h0Z" fill="gray"/>
          </g>
          <g id="Group_9184" data-name="Group 9184">
            <path id="Path_4983" data-name="Path 4983" d="M652.377,221.441h-3.008l12.884-33.363h3.008Z" fill="gray"/>
          </g>
          <g id="Group_9185" data-name="Group 9185">
            <path id="Path_4984" data-name="Path 4984" d="M671.752,188.078l12.839,33.363h-6.043l-2.681-7.344H661.1l-2.681,7.344h-6.043l12.884-33.363Zm-9.064,21.8H674.28l-5.792-15.849-5.8,15.849" fill="#fff"/>
          </g>
        </g>
        <g id="Group_9193" data-name="Group 9193" style="mix-blend-mode: normal;isolation: isolate">
          <g id="Group_9187" data-name="Group 9187">
            <rect id="Rectangle_2449" data-name="Rectangle 2449" width="3.008" height="25.101" transform="translate(708.445 187.601)" fill="#818181"/>
          </g>
          <g id="Group_9188" data-name="Group 9188">
            <path id="Path_4985" data-name="Path 4985" d="M711.452,187.6h0Z" fill="gray"/>
          </g>
          <g id="Group_9189" data-name="Group 9189">
            <path id="Path_4986" data-name="Path 4986" d="M711.452,221.441h-3.008l-17-25.011h3.008Z" fill="#818181"/>
          </g>
          <g id="Group_9190" data-name="Group 9190">
            <path id="Path_4987" data-name="Path 4987" d="M688.8,187.6h0Z" fill="gray"/>
          </g>
          <g id="Group_9191" data-name="Group 9191">
            <rect id="Rectangle_2450" data-name="Rectangle 2450" width="3.008" height="33.84" transform="translate(685.797 187.601)" fill="#818181"/>
          </g>
          <g id="Group_9192" data-name="Group 9192">
            <path id="Path_4988" data-name="Path 4988" d="M717.1,187.6v33.84h-5.648l-17-25.011v25.011H688.8V187.6h5.648l17,25.1V187.6Z" fill="#fff"/>
          </g>
        </g>
      </g>
    </g>
    <g id="Group_9888" data-name="Group 9888" transform="translate(566.333 2201)">
      <g id="Group_9122" data-name="Group 9122" transform="translate(0 20)">
        <rect id="Rectangle_2422" data-name="Rectangle 2422" width="26.993" height="52.407" transform="translate(427.501 231.665)" fill="#490229"/>
        <rect id="Rectangle_2423" data-name="Rectangle 2423" width="405.014" height="52.407" transform="translate(454.493 231.665)" fill="url(#linear-gradient-19)"/>
      </g>
      <g id="Group_9252" data-name="Group 9252" transform="translate(0 20)">
        <g id="Group_9195" data-name="Group 9195" style="mix-blend-mode: normal;isolation: isolate">
          <path id="Path_4989" data-name="Path 4989" d="M493.387,274.172H489.78l5.979,6.309h3.607Z" fill="#828282"/>
          <path id="Path_4990" data-name="Path 4990" d="M498.39,251.861a9.948,9.948,0,0,0-3.884-4.095,11.231,11.231,0,0,0-5.666-1.422h-3.607a11.224,11.224,0,0,1,5.665,1.422,9.95,9.95,0,0,1,3.885,4.095,14.426,14.426,0,0,1,0,12.42,9.842,9.842,0,0,1-3.885,4.1,11.139,11.139,0,0,1-5.665,1.431h3.607a11.145,11.145,0,0,0,5.666-1.431,9.84,9.84,0,0,0,3.884-4.1,14.417,14.417,0,0,0,0-12.42Z" fill="#858585"/>
          <path id="Path_4991" data-name="Path 4991" d="M474.429,266.657a17.952,17.952,0,0,1,0-17.163,15.541,15.541,0,0,1,5.943-5.913,17.074,17.074,0,0,1,8.468-2.115h-3.607a17.071,17.071,0,0,0-8.468,2.115,15.541,15.541,0,0,0-5.943,5.913,17.952,17.952,0,0,0,0,17.163,15.651,15.651,0,0,0,5.943,5.931,16.9,16.9,0,0,0,8.468,2.142h3.607a16.9,16.9,0,0,1-8.468-2.142A15.651,15.651,0,0,1,474.429,266.657Z" fill="#858585"/>
          <path id="Path_4992" data-name="Path 4992" d="M497.755,272.291A15.584,15.584,0,0,0,503.3,266.4a18.1,18.1,0,0,0-.125-16.9,15.312,15.312,0,0,0-5.925-5.913,17.9,17.9,0,0,0-16.882,0,15.541,15.541,0,0,0-5.943,5.913,17.952,17.952,0,0,0,0,17.163,15.651,15.651,0,0,0,5.943,5.931,16.9,16.9,0,0,0,8.468,2.142,18.354,18.354,0,0,0,4.547-.558l5.979,6.309h6.686Zm-3.249-3.915a11.145,11.145,0,0,1-5.666,1.431,11.392,11.392,0,0,1-5.738-1.431,9.8,9.8,0,0,1-3.911-4.1,14.51,14.51,0,0,1,0-12.42,9.9,9.9,0,0,1,3.911-4.095,11.479,11.479,0,0,1,5.738-1.422,11.231,11.231,0,0,1,5.666,1.422,9.948,9.948,0,0,1,3.884,4.095,14.417,14.417,0,0,1,0,12.42A9.84,9.84,0,0,1,494.506,268.376Z" fill="#fefefe"/>
        </g>
        <g id="Group_9198" data-name="Group 9198" style="mix-blend-mode: normal;isolation: isolate">
          <g id="Group_9196" data-name="Group 9196">
            <path id="Path_4993" data-name="Path 4993" d="M530.89,241.88h0Z" fill="gray"/>
          </g>
          <path id="Path_4994" data-name="Path 4994" d="M527.283,241.88v19.278c0,2.88-.653,5.031-1.96,6.435a7.115,7.115,0,0,1-5.478,2.115h3.607a7.115,7.115,0,0,0,5.478-2.115c1.307-1.4,1.96-3.555,1.96-6.435V241.88Z" fill="#858585"/>
          <g id="Group_9197" data-name="Group 9197">
            <path id="Path_4995" data-name="Path 4995" d="M510.554,241.88h0Z" fill="gray"/>
          </g>
          <path id="Path_4996" data-name="Path 4996" d="M514.063,271.256q-3.5-3.429-3.509-10.1V241.88h-3.607v19.278q0,6.669,3.509,10.1a12.707,12.707,0,0,0,9.291,3.42h3.607A12.707,12.707,0,0,1,514.063,271.256Z" fill="#818181"/>
          <path id="Path_4997" data-name="Path 4997" d="M530.89,241.88v19.278c0,2.88-.653,5.031-1.96,6.435a8.209,8.209,0,0,1-11,0c-1.316-1.4-1.969-3.555-1.969-6.435V241.88h-5.407v19.278q0,6.669,3.509,10.1a12.707,12.707,0,0,0,9.291,3.42,12.946,12.946,0,0,0,9.389-3.42q3.558-3.429,3.554-10.1V241.88Z" fill="#fefefe"/>
        </g>
        <g id="Group_9200" data-name="Group 9200" style="mix-blend-mode: normal;isolation: isolate">
          <rect id="Rectangle_2451" data-name="Rectangle 2451" width="3.607" height="32.481" transform="translate(539 241.88)" fill="#818181"/>
          <g id="Group_9199" data-name="Group 9199">
            <path id="Path_4998" data-name="Path 4998" d="M542.607,241.88h0Z" fill="gray"/>
          </g>
          <rect id="Rectangle_2452" data-name="Rectangle 2452" width="5.406" height="32.481" transform="translate(542.607 241.88)" fill="#fefefe"/>
        </g>
        <g id="Group_9204" data-name="Group 9204" style="mix-blend-mode: normal;isolation: isolate">
          <g id="Group_9201" data-name="Group 9201">
            <path id="Path_4999" data-name="Path 4999" d="M559.291,270.077h0Z" fill="gray"/>
          </g>
          <g id="Group_9202" data-name="Group 9202">
            <path id="Path_5000" data-name="Path 5000" d="M553.607,241.88h0Z" fill="gray"/>
          </g>
          <g id="Group_9203" data-name="Group 9203">
            <rect id="Rectangle_2453" data-name="Rectangle 2453" width="3.607" height="4.284" transform="translate(550 241.88)" fill="#818181"/>
            <path id="Path_5001" data-name="Path 5001" d="M565.592,246.164l-15.923,24.1v4.1h3.607v-4.1l15.923-24.1Z" fill="#818181"/>
          </g>
          <path id="Path_5002" data-name="Path 5002" d="M559.291,270.077l16.031-24.1v-4.1H553.607v4.284H569.2l-15.923,24.1v4.1h22.278v-4.284Z" fill="#fefefe"/>
        </g>
        <g id="Group_9207" data-name="Group 9207" style="mix-blend-mode: normal;isolation: isolate">
          <g id="Group_9205" data-name="Group 9205">
            <path id="Path_5003" data-name="Path 5003" d="M616.853,263.408h0Z" fill="gray"/>
          </g>
          <g id="Group_9206" data-name="Group 9206">
            <path id="Path_5004" data-name="Path 5004" d="M609.477,268.034a11.164,11.164,0,0,1-6.337,1.728h3.607a11.168,11.168,0,0,0,6.338-1.728,10.045,10.045,0,0,0,3.768-4.626h-3.607A10.04,10.04,0,0,1,609.477,268.034Z" fill="#858585"/>
            <path id="Path_5005" data-name="Path 5005" d="M613.246,252.833h3.607a10.027,10.027,0,0,0-3.768-4.671,11.168,11.168,0,0,0-6.338-1.728H603.14a11.164,11.164,0,0,1,6.337,1.728A10.022,10.022,0,0,1,613.246,252.833Z" fill="#858585"/>
          </g>
          <path id="Path_5006" data-name="Path 5006" d="M592.811,266.7a19.524,19.524,0,0,1,0-17.163,14.474,14.474,0,0,1,5.639-5.859,16.425,16.425,0,0,1,8.4-2.115h-3.607a16.425,16.425,0,0,0-8.4,2.115,14.467,14.467,0,0,0-5.639,5.859,19.524,19.524,0,0,0,0,17.163,14.366,14.366,0,0,0,5.639,5.841,16.592,16.592,0,0,0,8.4,2.088h3.607a16.592,16.592,0,0,1-8.4-2.088A14.373,14.373,0,0,1,592.811,266.7Z" fill="#858585"/>
          <path id="Path_5007" data-name="Path 5007" d="M613.085,268.034a11.168,11.168,0,0,1-6.338,1.728,10.054,10.054,0,0,1-5.334-1.431,9.922,9.922,0,0,1-3.7-4.068,14.741,14.741,0,0,1,0-12.33,9.922,9.922,0,0,1,3.7-4.068,10.054,10.054,0,0,1,5.334-1.431,11.168,11.168,0,0,1,6.338,1.728,10.027,10.027,0,0,1,3.768,4.671h5.737a14.808,14.808,0,0,0-5.5-8.235,16.673,16.673,0,0,0-10.24-3.033,16.425,16.425,0,0,0-8.4,2.115,14.474,14.474,0,0,0-5.639,5.859,19.524,19.524,0,0,0,0,17.163,14.373,14.373,0,0,0,5.639,5.841,16.592,16.592,0,0,0,8.4,2.088,16.779,16.779,0,0,0,10.24-3.006,14.732,14.732,0,0,0,5.5-8.217h-5.737A10.045,10.045,0,0,1,613.085,268.034Z" fill="#fefefe"/>
        </g>
        <g id="Group_9212" data-name="Group 9212" style="mix-blend-mode: normal;isolation: isolate">
          <g id="Group_9208" data-name="Group 9208">
            <rect id="Rectangle_2454" data-name="Rectangle 2454" width="3.607" height="14.589" transform="translate(645.531 259.772)" fill="#818181"/>
            <rect id="Rectangle_2455" data-name="Rectangle 2455" width="3.607" height="13.617" transform="translate(645.531 241.88)" fill="#818181"/>
          </g>
          <g id="Group_9209" data-name="Group 9209">
            <path id="Path_5008" data-name="Path 5008" d="M649.138,241.88h0Z" fill="gray"/>
          </g>
          <g id="Group_9210" data-name="Group 9210">
            <path id="Path_5009" data-name="Path 5009" d="M633.394,255.5h0Z" fill="gray"/>
          </g>
          <g id="Group_9211" data-name="Group 9211">
            <path id="Path_5010" data-name="Path 5010" d="M627.987,241.88h0Z" fill="gray"/>
          </g>
          <rect id="Rectangle_2456" data-name="Rectangle 2456" width="3.607" height="32.481" transform="translate(624.38 241.88)" fill="#818181"/>
          <path id="Path_5011" data-name="Path 5011" d="M649.138,241.88V255.5H633.394V241.88h-5.406v32.481h5.406V259.772h15.744v14.589h5.451V241.88Z" fill="#fefefe"/>
        </g>
        <g id="Group_9219" data-name="Group 9219" style="mix-blend-mode: normal;isolation: isolate">
          <g id="Group_9213" data-name="Group 9213">
            <path id="Path_5012" data-name="Path 5012" d="M683.652,274.361h-3.607l-2.56-7.038h3.607Z" fill="#828282"/>
          </g>
          <g id="Group_9214" data-name="Group 9214">
            <path id="Path_5013" data-name="Path 5013" d="M679.579,263.273h-3.607l-5.549-15.183h3.607Z" fill="#828282"/>
          </g>
          <g id="Group_9215" data-name="Group 9215">
            <path id="Path_5014" data-name="Path 5014" d="M670.942,242.384h0Z" fill="gray"/>
          </g>
          <g id="Group_9216" data-name="Group 9216">
            <path id="Path_5015" data-name="Path 5015" d="M668.48,263.273h0Z" fill="gray"/>
          </g>
          <g id="Group_9217" data-name="Group 9217">
            <path id="Path_5016" data-name="Path 5016" d="M658.617,274.361h-3.607l12.325-31.977h3.607Z" fill="gray"/>
          </g>
          <g id="Group_9218" data-name="Group 9218">
            <path id="Path_5017" data-name="Path 5017" d="M677.154,242.384l12.28,31.977h-5.782l-2.56-7.038H666.968l-2.569,7.038h-5.782l12.325-31.977Zm-8.674,20.889h11.1L674.03,248.09l-5.55,15.183" fill="#fefefe"/>
          </g>
        </g>
        <g id="Group_9227" data-name="Group 9227" style="mix-blend-mode: normal;isolation: isolate">
          <g id="Group_9220" data-name="Group 9220">
            <rect id="Rectangle_2457" data-name="Rectangle 2457" width="3.607" height="23.967" transform="translate(719.114 250.394)" fill="#818181"/>
          </g>
          <g id="Group_9221" data-name="Group 9221">
            <path id="Path_5018" data-name="Path 5018" d="M721.63,242.384h0Z" fill="gray"/>
          </g>
          <g id="Group_9222" data-name="Group 9222">
            <path id="Path_5019" data-name="Path 5019" d="M710.916,267.917h-3.607l10.714-25.533h3.607Z" fill="gray"/>
          </g>
          <g id="Group_9223" data-name="Group 9223">
            <path id="Path_5020" data-name="Path 5020" d="M708.445,274.361h-3.607l-9.577-23.967h3.607Z" fill="#828282"/>
          </g>
          <g id="Group_9224" data-name="Group 9224">
            <path id="Path_5021" data-name="Path 5021" d="M693.471,242.384h0Z" fill="gray"/>
          </g>
          <g id="Group_9225" data-name="Group 9225">
            <rect id="Rectangle_2458" data-name="Rectangle 2458" width="3.607" height="31.977" transform="translate(689.864 242.384)" fill="#818181"/>
          </g>
          <g id="Group_9226" data-name="Group 9226">
            <path id="Path_5022" data-name="Path 5022" d="M728.173,242.384v31.977h-5.451V250.394l-9.532,23.967h-4.744l-9.577-23.967v23.967h-5.4V242.384H700l10.911,25.533,10.714-25.533Z" fill="#fefefe"/>
          </g>
        </g>
        <g id="Group_9235" data-name="Group 9235" style="mix-blend-mode: normal;isolation: isolate">
          <g id="Group_9230" data-name="Group 9230" style="mix-blend-mode: normal;isolation: isolate">
            <g id="Group_9229" data-name="Group 9229" clip-path="url(#clip-path-2)">
              <g id="Group_9228" data-name="Group 9228" style="mix-blend-mode: normal;isolation: isolate">
                <path id="Path_5023" data-name="Path 5023" d="M745.474,257.477h-3.607q6.685,0,6.686-5.616a5.406,5.406,0,0,0-1.584-4.2c-1.065-.972-2.757-1.449-5.1-1.449h3.607c2.345,0,4.037.477,5.1,1.449a5.406,5.406,0,0,1,1.584,4.2q0,5.616-6.686,5.616" fill="#858585"/>
              </g>
            </g>
          </g>
          <g id="Group_9231" data-name="Group 9231">
            <path id="Path_5025" data-name="Path 5025" d="M740.068,257.477h0Z" fill="gray"/>
          </g>
          <g id="Group_9232" data-name="Group 9232">
            <path id="Path_5026" data-name="Path 5026" d="M734.671,241.88h0Z" fill="gray"/>
          </g>
          <g id="Group_9233" data-name="Group 9233">
            <rect id="Rectangle_2459" data-name="Rectangle 2459" width="3.607" height="32.481" transform="translate(731.064 241.88)" fill="#818181"/>
          </g>
          <g id="Group_9234" data-name="Group 9234">
            <path id="Path_5027" data-name="Path 5027" d="M754.747,244.553a9.408,9.408,0,0,1,2.918,7.308,9.193,9.193,0,0,1-2.989,7.245q-2.994,2.646-8.629,2.646h-5.979v12.609h-5.4V241.88h11.376Q751.834,241.88,754.747,244.553Zm-9.273,12.924q6.687,0,6.686-5.616a5.406,5.406,0,0,0-1.584-4.2c-1.065-.972-2.757-1.449-5.1-1.449h-5.406v11.268h5.406" fill="#fefefe"/>
          </g>
        </g>
        <g id="Group_9239" data-name="Group 9239" style="mix-blend-mode: normal;isolation: isolate">
          <g id="Group_9236" data-name="Group 9236">
            <rect id="Rectangle_2460" data-name="Rectangle 2460" width="3.607" height="32.481" transform="translate(758.793 241.88)" fill="#818181"/>
          </g>
          <g id="Group_9237" data-name="Group 9237">
            <path id="Path_5028" data-name="Path 5028" d="M762.4,241.88h0Z" fill="gray"/>
          </g>
          <g id="Group_9238" data-name="Group 9238">
            <rect id="Rectangle_2461" data-name="Rectangle 2461" width="5.406" height="32.481" transform="translate(762.4 241.88)" fill="#fefefe"/>
          </g>
        </g>
        <g id="Group_9244" data-name="Group 9244" style="mix-blend-mode: normal;isolation: isolate">
          <path id="Path_5029" data-name="Path 5029" d="M799.411,251.861a9.974,9.974,0,0,0-3.893-4.095,11.231,11.231,0,0,0-5.666-1.422h-3.607a11.224,11.224,0,0,1,5.665,1.422,9.97,9.97,0,0,1,3.894,4.095,14.51,14.51,0,0,1,0,12.42,9.862,9.862,0,0,1-3.894,4.1,11.139,11.139,0,0,1-5.665,1.431h3.607a11.145,11.145,0,0,0,5.666-1.431,9.866,9.866,0,0,0,3.893-4.1,14.51,14.51,0,0,0,0-12.42Z" fill="#858585"/>
          <g id="Group_9242" data-name="Group 9242" style="mix-blend-mode: normal;isolation: isolate">
            <g id="Group_9241" data-name="Group 9241" clip-path="url(#clip-path-3)">
              <g id="Group_9240" data-name="Group 9240" style="mix-blend-mode: normal;isolation: isolate">
                <path id="Path_5030" data-name="Path 5030" d="M789.852,274.73h-3.607a16.866,16.866,0,0,1-8.459-2.142,15.611,15.611,0,0,1-5.952-5.931,17.952,17.952,0,0,1,0-17.163,15.5,15.5,0,0,1,5.952-5.913,17.037,17.037,0,0,1,8.459-2.115h3.607a17.04,17.04,0,0,0-8.459,2.115,15.5,15.5,0,0,0-5.952,5.913,17.952,17.952,0,0,0,0,17.163,15.611,15.611,0,0,0,5.952,5.931,16.869,16.869,0,0,0,8.459,2.142" fill="#858585"/>
              </g>
            </g>
          </g>
          <g id="Group_9243" data-name="Group 9243">
            <path id="Path_5032" data-name="Path 5032" d="M804.2,249.494a18.149,18.149,0,0,1,0,17.163,15.5,15.5,0,0,1-5.935,5.931,17.683,17.683,0,0,1-16.872,0,15.611,15.611,0,0,1-5.952-5.931,17.952,17.952,0,0,1,0-17.163,15.5,15.5,0,0,1,5.952-5.913,17.882,17.882,0,0,1,16.872,0A15.392,15.392,0,0,1,804.2,249.494Zm-4.789,14.787a14.51,14.51,0,0,0,0-12.42,9.974,9.974,0,0,0-3.893-4.095,11.231,11.231,0,0,0-5.666-1.422,11.479,11.479,0,0,0-5.738,1.422,9.9,9.9,0,0,0-3.911,4.095,14.51,14.51,0,0,0,0,12.42,9.8,9.8,0,0,0,3.911,4.1,11.391,11.391,0,0,0,5.738,1.431,11.145,11.145,0,0,0,5.666-1.431,9.866,9.866,0,0,0,3.893-4.1" fill="#fefefe"/>
          </g>
        </g>
        <g id="Group_9251" data-name="Group 9251" style="mix-blend-mode: normal;isolation: isolate">
          <g id="Group_9245" data-name="Group 9245">
            <rect id="Rectangle_2462" data-name="Rectangle 2462" width="3.607" height="24.057" transform="translate(829.861 241.925)" fill="#818181"/>
          </g>
          <g id="Group_9246" data-name="Group 9246">
            <path id="Path_5033" data-name="Path 5033" d="M833.469,241.925h0Z" fill="gray"/>
          </g>
          <g id="Group_9247" data-name="Group 9247">
            <path id="Path_5034" data-name="Path 5034" d="M833.469,274.361h-3.607l-16.255-23.967h3.607Z" fill="#828282"/>
          </g>
          <g id="Group_9248" data-name="Group 9248">
            <path id="Path_5035" data-name="Path 5035" d="M811.808,241.925h0Z" fill="gray"/>
          </g>
          <g id="Group_9249" data-name="Group 9249">
            <rect id="Rectangle_2463" data-name="Rectangle 2463" width="3.607" height="32.436" transform="translate(808.201 241.925)" fill="#818181"/>
          </g>
          <g id="Group_9250" data-name="Group 9250">
            <path id="Path_5036" data-name="Path 5036" d="M838.875,241.925v32.436h-5.406l-16.254-23.967v23.967h-5.406V241.925h5.406l16.254,24.057V241.925Z" fill="#fefefe"/>
          </g>
        </g>
      </g>
    </g>
    <g id="Group_9889" data-name="Group 9889" transform="translate(566.333 2201)">
      <rect id="Rectangle_2426" data-name="Rectangle 2426" width="7.828" height="43.074" transform="translate(431.253 152.998)" fill="#460227"/>
      <rect id="Rectangle_2427" data-name="Rectangle 2427" width="70.327" height="43.074" transform="translate(439.082 152.998)" fill="url(#linear-gradient-20)"/>
      <g id="Group_9272" data-name="Group 9272" transform="translate(0 20)">
        <g id="Group_9257" data-name="Group 9257" style="mix-blend-mode: normal;isolation: isolate">
          <g id="Group_9253" data-name="Group 9253">
            <rect id="Rectangle_2464" data-name="Rectangle 2464" width="2.127" height="15.354" transform="translate(453.253 150.314)" fill="gray"/>
          </g>
          <g id="Group_9254" data-name="Group 9254">
            <rect id="Rectangle_2465" data-name="Rectangle 2465" width="2.127" height="2.295" transform="translate(448.189 148.019)" fill="gray"/>
          </g>
          <g id="Group_9255" data-name="Group 9255">
            <path id="Path_5037" data-name="Path 5037" d="M450.316,148.019h0Z" fill="#8e8e8e"/>
          </g>
          <g id="Group_9256" data-name="Group 9256">
            <path id="Path_5038" data-name="Path 5038" d="M463.451,148.019v2.295h-5.1v15.354H455.38V150.314h-5.064v-2.295Z" fill="#e1e1e1"/>
          </g>
        </g>
        <g id="Group_9265" data-name="Group 9265" style="mix-blend-mode: normal;isolation: isolate">
          <g id="Group_9258" data-name="Group 9258">
            <rect id="Rectangle_2466" data-name="Rectangle 2466" width="2.127" height="7.929" transform="translate(475.042 157.739)" fill="gray"/>
          </g>
          <g id="Group_9259" data-name="Group 9259">
            <rect id="Rectangle_2467" data-name="Rectangle 2467" width="2.127" height="7.398" transform="translate(475.042 148.019)" fill="gray"/>
          </g>
          <g id="Group_9260" data-name="Group 9260">
            <path id="Path_5039" data-name="Path 5039" d="M477.169,148.019h0Z" fill="#8e8e8e"/>
          </g>
          <g id="Group_9261" data-name="Group 9261">
            <path id="Path_5040" data-name="Path 5040" d="M468.586,155.417h0Z" fill="#8e8e8e"/>
          </g>
          <g id="Group_9262" data-name="Group 9262">
            <path id="Path_5041" data-name="Path 5041" d="M465.642,148.019h0Z" fill="#8e8e8e"/>
          </g>
          <g id="Group_9263" data-name="Group 9263">
            <rect id="Rectangle_2468" data-name="Rectangle 2468" width="2.127" height="17.649" transform="translate(463.515 148.019)" fill="gray"/>
          </g>
          <g id="Group_9264" data-name="Group 9264">
            <path id="Path_5042" data-name="Path 5042" d="M480.141,148.019v17.649h-2.972v-7.929h-8.583v7.929h-2.945V148.019h2.945v7.4h8.583v-7.4Z" fill="#e1e1e1"/>
          </g>
        </g>
        <g id="Group_9271" data-name="Group 9271" style="mix-blend-mode: normal;isolation: isolate">
          <g id="Group_9266" data-name="Group 9266">
            <path id="Path_5043" data-name="Path 5043" d="M486.659,163.346h0Z" fill="#8e8e8e"/>
          </g>
          <g id="Group_9267" data-name="Group 9267">
            <path id="Path_5044" data-name="Path 5044" d="M486.659,155.669h0Z" fill="#8e8e8e"/>
          </g>
          <g id="Group_9268" data-name="Group 9268">
            <rect id="Rectangle_2469" data-name="Rectangle 2469" width="2.127" height="17.649" transform="translate(481.587 148.019)" fill="gray"/>
          </g>
          <g id="Group_9269" data-name="Group 9269">
            <path id="Path_5045" data-name="Path 5045" d="M483.714,148.019h0Z" fill="#8e8e8e"/>
          </g>
          <g id="Group_9270" data-name="Group 9270">
            <path id="Path_5046" data-name="Path 5046" d="M494.156,148.019v2.295h-7.5v5.355h6.716v2.2h-6.716v5.481h7.5v2.322H483.714V148.019Z" fill="#e1e1e1"/>
          </g>
        </g>
      </g>
    </g>
  </g>
</svg>
