<svg xmlns="http://www.w3.org/2000/svg" xmlns:xlink="http://www.w3.org/1999/xlink" width="328.693" height="53.739" viewBox="0 0 328.693 53.739">
  <defs>
    <linearGradient id="linear-gradient" x1="0.5" y1="0.546" x2="0.5" y2="1.059" gradientUnits="objectBoundingBox">
      <stop offset="0.006" stop-color="#820349"/>
      <stop offset="1" stop-color="#690349"/>
    </linearGradient>
    <clipPath id="clip-path">
      <path id="Path_4968" data-name="Path 4968" d="M508.719,204.017h-3.008q6.832,0,6.832-5.859a5.667,5.667,0,0,0-1.659-4.347c-1.1-1.035-2.833-1.557-5.173-1.557h3.008c2.34,0,4.07.522,5.173,1.557a5.667,5.667,0,0,1,1.659,4.347Q515.551,204.017,508.719,204.017Z" fill="none"/>
    </clipPath>
  </defs>
  <g id="Group_9887" data-name="Group 9887" transform="translate(-426.32 -196.999)">
    <g id="Group_9124" data-name="Group 9124" transform="translate(0 20)">
      <rect id="Rectangle_2424" data-name="Rectangle 2424" width="13.151" height="53.739" transform="translate(426.32 176.999)" fill="#460227"/>
      <rect id="Rectangle_2425" data-name="Rectangle 2425" width="315.542" height="53.739" transform="translate(439.471 176.999)" fill="url(#linear-gradient)"/>
    </g>
    <g id="Group_9194" data-name="Group 9194" transform="translate(0 20)">
      <g id="Group_9144" data-name="Group 9144" style="mix-blend-mode: normal;isolation: isolate">
        <path id="Path_4952" data-name="Path 4952" d="M482,195.566q-3.363-3.159-9.656-3.168h-3.008q6.294,0,9.656,3.168t3.371,8.883q0,5.71-3.371,8.883t-9.656,3.168h3.008q6.294,0,9.656-3.168t3.371-8.883Q485.372,198.738,482,195.566Z" fill="#858585"/>
        <g id="Group_9141" data-name="Group 9141">
          <path id="Path_4953" data-name="Path 4953" d="M466.741,216.5h0Z" fill="gray"/>
        </g>
        <g id="Group_9142" data-name="Group 9142">
          <path id="Path_4954" data-name="Path 4954" d="M461.093,187.547h0Z" fill="gray"/>
        </g>
        <rect id="Rectangle_2442" data-name="Rectangle 2442" width="3.008" height="33.894" transform="translate(458.085 187.547)" fill="#818181"/>
        <g id="Group_9143" data-name="Group 9143">
          <path id="Path_4955" data-name="Path 4955" d="M488.967,195.521a19.633,19.633,0,0,1,0,17.874,14.63,14.63,0,0,1-6.294,5.931,21.452,21.452,0,0,1-9.889,2.115H461.093V187.547h11.691a21.683,21.683,0,0,1,9.889,2.1A14.514,14.514,0,0,1,488.967,195.521ZM482,213.332q3.375-3.173,3.371-8.883T482,195.566q-3.363-3.159-9.656-3.168h-5.6v24.1h5.6q6.294,0,9.656-3.168" fill="#fff"/>
        </g>
      </g>
      <g id="Group_9150" data-name="Group 9150" style="mix-blend-mode: normal;isolation: isolate">
        <g id="Group_9145" data-name="Group 9145">
          <path id="Path_4956" data-name="Path 4956" d="M583.942,187.547h0Z" fill="gray"/>
        </g>
        <g id="Group_9146" data-name="Group 9146">
          <path id="Path_4957" data-name="Path 4957" d="M573.828,215.582H570.82l10.113-28.035h3.008Z" fill="gray"/>
        </g>
        <g id="Group_9147" data-name="Group 9147">
          <path id="Path_4958" data-name="Path 4958" d="M557.627,187.547h0Z" fill="gray"/>
        </g>
        <g id="Group_9148" data-name="Group 9148">
          <path id="Path_4959" data-name="Path 4959" d="M570.215,221.441h-3.008l-12.588-33.894h3.008Z" fill="#818181"/>
        </g>
        <g id="Group_9149" data-name="Group 9149">
          <path id="Path_4960" data-name="Path 4960" d="M590.083,187.547,577.45,221.441h-7.235l-12.588-33.894h6.141l10.06,28.035,10.113-28.035Z" fill="#fff"/>
        </g>
      </g>
      <g id="Group_9157" data-name="Group 9157" style="mix-blend-mode: normal;isolation: isolate">
        <g id="Group_9151" data-name="Group 9151">
          <path id="Path_4961" data-name="Path 4961" d="M550,221.441h-3.008l-2.681-7.344h3.008Z" fill="#818181"/>
        </g>
        <g id="Group_9152" data-name="Group 9152">
          <path id="Path_4962" data-name="Path 4962" d="M545.729,209.876h-3.008l-5.792-15.849h3.008Z" fill="#818181"/>
        </g>
        <g id="Group_9153" data-name="Group 9153">
          <path id="Path_4963" data-name="Path 4963" d="M536.71,188.078h0Z" fill="gray"/>
        </g>
        <g id="Group_9154" data-name="Group 9154">
          <path id="Path_4964" data-name="Path 4964" d="M534.137,209.876h0Z" fill="gray"/>
        </g>
        <g id="Group_9155" data-name="Group 9155">
          <path id="Path_4965" data-name="Path 4965" d="M523.826,221.441h-3.008L533.7,188.078h3.008Z" fill="gray"/>
        </g>
        <g id="Group_9156" data-name="Group 9156">
          <path id="Path_4966" data-name="Path 4966" d="M543.21,188.078l12.83,33.363H550l-2.681-7.344H532.55l-2.672,7.344h-6.052l12.884-33.363Zm-9.073,21.8h11.592l-5.791-15.849-5.8,15.849" fill="#fff"/>
        </g>
      </g>
      <g id="Group_9166" data-name="Group 9166" style="mix-blend-mode: normal;isolation: isolate">
        <g id="Group_9160" data-name="Group 9160" style="mix-blend-mode: normal;isolation: isolate">
          <g id="Group_9159" data-name="Group 9159" clip-path="url(#clip-path)">
            <g id="Group_9158" data-name="Group 9158" style="mix-blend-mode: normal;isolation: isolate">
              <path id="Path_4967" data-name="Path 4967" d="M508.719,204.017h-3.008q6.832,0,6.832-5.859a5.667,5.667,0,0,0-1.659-4.347c-1.1-1.035-2.833-1.557-5.173-1.557h3.008c2.34,0,4.07.522,5.173,1.557a5.667,5.667,0,0,1,1.659,4.347q0,5.859-6.832,5.859" fill="#858585"/>
            </g>
          </g>
        </g>
        <g id="Group_9161" data-name="Group 9161">
          <path id="Path_4969" data-name="Path 4969" d="M515.21,221.441H512.2L503.479,207.9h3.008Z" fill="#818181"/>
        </g>
        <g id="Group_9162" data-name="Group 9162">
          <path id="Path_4970" data-name="Path 4970" d="M502.47,204.017h0Z" fill="gray"/>
        </g>
        <g id="Group_9163" data-name="Group 9163">
          <path id="Path_4971" data-name="Path 4971" d="M496.821,187.547h0Z" fill="gray"/>
        </g>
        <g id="Group_9164" data-name="Group 9164">
          <rect id="Rectangle_2443" data-name="Rectangle 2443" width="3.008" height="33.894" transform="translate(493.814 187.547)" fill="#818181"/>
        </g>
        <g id="Group_9165" data-name="Group 9165">
          <path id="Path_4972" data-name="Path 4972" d="M512.386,207.662l9.163,13.779H515.21L506.486,207.9H502.47v13.536h-5.649V187.547h12.337q6,0,9.1,2.835a9.666,9.666,0,0,1,3.094,7.488,9.349,9.349,0,0,1-2.3,6.525A11.043,11.043,0,0,1,512.386,207.662Zm-9.916-3.645h6.249q6.831,0,6.832-5.859a5.667,5.667,0,0,0-1.659-4.347c-1.1-1.035-2.833-1.557-5.173-1.557H502.47v11.763" fill="#fff"/>
        </g>
      </g>
      <g id="Group_9170" data-name="Group 9170" style="mix-blend-mode: normal;isolation: isolate">
        <g id="Group_9167" data-name="Group 9167">
          <rect id="Rectangle_2444" data-name="Rectangle 2444" width="3.008" height="33.894" transform="translate(591.289 187.547)" fill="#818181"/>
        </g>
        <g id="Group_9168" data-name="Group 9168">
          <path id="Path_4973" data-name="Path 4973" d="M594.3,187.547h0Z" fill="gray"/>
        </g>
        <g id="Group_9169" data-name="Group 9169">
          <rect id="Rectangle_2445" data-name="Rectangle 2445" width="5.648" height="33.894" transform="translate(594.297 187.547)" fill="#fff"/>
        </g>
      </g>
      <g id="Group_9175" data-name="Group 9175" style="mix-blend-mode: normal;isolation: isolate">
        <path id="Path_4974" data-name="Path 4974" d="M627.7,195.566q-3.375-3.159-9.665-3.168h-3.007q6.294,0,9.665,3.168t3.362,8.883q0,5.71-3.362,8.883t-9.665,3.168h3.007q6.294,0,9.665-3.168t3.362-8.883Q631.065,198.738,627.7,195.566Z" fill="#858585"/>
        <g id="Group_9171" data-name="Group 9171">
          <path id="Path_4975" data-name="Path 4975" d="M612.435,216.5h0Z" fill="gray"/>
        </g>
        <g id="Group_9172" data-name="Group 9172">
          <path id="Path_4976" data-name="Path 4976" d="M606.786,187.547h0Z" fill="gray"/>
        </g>
        <g id="Group_9173" data-name="Group 9173">
          <rect id="Rectangle_2446" data-name="Rectangle 2446" width="3.008" height="33.894" transform="translate(603.778 187.547)" fill="#818181"/>
        </g>
        <g id="Group_9174" data-name="Group 9174">
          <path id="Path_4977" data-name="Path 4977" d="M634.661,195.521a19.56,19.56,0,0,1,0,17.874,14.641,14.641,0,0,1-6.294,5.931,21.455,21.455,0,0,1-9.889,2.115H606.786V187.547h11.692a21.686,21.686,0,0,1,9.889,2.1A14.525,14.525,0,0,1,634.661,195.521ZM627.7,213.332q3.363-3.173,3.362-8.883t-3.362-8.883q-3.375-3.159-9.665-3.168h-5.6v24.1h5.6q6.294,0,9.665-3.168" fill="#fff"/>
        </g>
      </g>
      <g id="Group_9179" data-name="Group 9179" style="mix-blend-mode: normal;isolation: isolate">
        <g id="Group_9176" data-name="Group 9176">
          <rect id="Rectangle_2447" data-name="Rectangle 2447" width="3.008" height="33.894" transform="translate(639.507 187.547)" fill="#818181"/>
        </g>
        <g id="Group_9177" data-name="Group 9177">
          <path id="Path_4978" data-name="Path 4978" d="M642.515,187.547h0Z" fill="gray"/>
        </g>
        <g id="Group_9178" data-name="Group 9178">
          <rect id="Rectangle_2448" data-name="Rectangle 2448" width="5.648" height="33.894" transform="translate(642.515 187.547)" fill="#fff"/>
        </g>
      </g>
      <g id="Group_9186" data-name="Group 9186" style="mix-blend-mode: normal;isolation: isolate">
        <g id="Group_9180" data-name="Group 9180">
          <path id="Path_4979" data-name="Path 4979" d="M678.548,221.441H675.54L672.86,214.1h3.008Z" fill="#818181"/>
        </g>
        <g id="Group_9181" data-name="Group 9181">
          <path id="Path_4980" data-name="Path 4980" d="M674.28,209.876h-3.008l-5.792-15.849h3.008Z" fill="#818181"/>
        </g>
        <g id="Group_9182" data-name="Group 9182">
          <path id="Path_4981" data-name="Path 4981" d="M665.261,188.078h0Z" fill="gray"/>
        </g>
        <g id="Group_9183" data-name="Group 9183">
          <path id="Path_4982" data-name="Path 4982" d="M662.688,209.876h0Z" fill="gray"/>
        </g>
        <g id="Group_9184" data-name="Group 9184">
          <path id="Path_4983" data-name="Path 4983" d="M652.377,221.441h-3.008l12.884-33.363h3.008Z" fill="gray"/>
        </g>
        <g id="Group_9185" data-name="Group 9185">
          <path id="Path_4984" data-name="Path 4984" d="M671.752,188.078l12.839,33.363h-6.043l-2.681-7.344H661.1l-2.681,7.344h-6.043l12.884-33.363Zm-9.064,21.8H674.28l-5.792-15.849-5.8,15.849" fill="#fff"/>
        </g>
      </g>
      <g id="Group_9193" data-name="Group 9193" style="mix-blend-mode: normal;isolation: isolate">
        <g id="Group_9187" data-name="Group 9187">
          <rect id="Rectangle_2449" data-name="Rectangle 2449" width="3.008" height="25.101" transform="translate(708.445 187.601)" fill="#818181"/>
        </g>
        <g id="Group_9188" data-name="Group 9188">
          <path id="Path_4985" data-name="Path 4985" d="M711.452,187.6h0Z" fill="gray"/>
        </g>
        <g id="Group_9189" data-name="Group 9189">
          <path id="Path_4986" data-name="Path 4986" d="M711.452,221.441h-3.008l-17-25.011h3.008Z" fill="#818181"/>
        </g>
        <g id="Group_9190" data-name="Group 9190">
          <path id="Path_4987" data-name="Path 4987" d="M688.8,187.6h0Z" fill="gray"/>
        </g>
        <g id="Group_9191" data-name="Group 9191">
          <rect id="Rectangle_2450" data-name="Rectangle 2450" width="3.008" height="33.84" transform="translate(685.797 187.601)" fill="#818181"/>
        </g>
        <g id="Group_9192" data-name="Group 9192">
          <path id="Path_4988" data-name="Path 4988" d="M717.1,187.6v33.84h-5.648l-17-25.011v25.011H688.8V187.6h5.648l17,25.1V187.6Z" fill="#fff"/>
        </g>
      </g>
    </g>
  </g>
</svg>
