<svg id="Group_9931" data-name="Group 9931" xmlns="http://www.w3.org/2000/svg" xmlns:xlink="http://www.w3.org/1999/xlink" width="1366" height="768" viewBox="0 0 1366 768">
  <defs>
    <linearGradient id="linear-gradient" x1="0.041" y1="0.137" x2="1" y2="1" gradientUnits="objectBoundingBox">
      <stop offset="0" stop-color="#050505"/>
      <stop offset="0.312" stop-color="#1c1c1c"/>
      <stop offset="0.594" stop-color="#2a2a2a"/>
      <stop offset="0.809" stop-color="#3e3e3e"/>
      <stop offset="1" stop-color="#434343"/>
    </linearGradient>
    <clipPath id="clip-path">
      <path id="more" d="M0,0H1366V768H0Z" fill="#f2f2f2"/>
    </clipPath>
  </defs>
  <rect id="main_bg" data-name="main bg" width="1366" height="768" fill="url(#linear-gradient)"/>
  <g id="Mask_Group_23" data-name="Mask Group 23" clip-path="url(#clip-path)">
    <g id="Group_6845" data-name="Group 6845">
      <g id="Group_6819" data-name="Group 6819" transform="translate(4087.412 10805.204)" opacity="0.03">
        <path id="Path_165" data-name="Path 165" d="M56.613,62.381h32.28l-.261-8.344a22.487,22.487,0,0,1,3.9-12.916c2.438-3.571,7.017-5.381,13.609-5.381,5.6,0,9.823,1.5,12.538,4.452,2.791,3.042,4.148,6.976,4.148,12.029a19.729,19.729,0,0,1-3.465,11.687,79.792,79.792,0,0,1-10.944,11.831A97.072,97.072,0,0,0,97.348,87.651a20.555,20.555,0,0,0-3.829,12.521v13.643H124.9V105.5a8.6,8.6,0,0,1,2.317-6,90.286,90.286,0,0,1,8.694-7.992,117.546,117.546,0,0,0,11.235-9.887,40.831,40.831,0,0,0,11.157-29,43.8,43.8,0,0,0-5.657-21.766,41.531,41.531,0,0,0-16.568-16.047c-7.2-3.951-15.828-5.954-25.641-5.954h-4.508a53.714,53.714,0,0,0-26.05,6.26,46.667,46.667,0,0,0-17.765,16.5A40.477,40.477,0,0,0,55.813,53.04c0,1.448.2,3.992.626,7.777Zm8.5-28.913A43.188,43.188,0,0,1,81.57,18.21a50.237,50.237,0,0,1,24.363-5.83h4.508c9.215,0,17.273,1.858,23.949,5.521a38.057,38.057,0,0,1,15.2,14.692,40.319,40.319,0,0,1,5.2,20.039,37.657,37.657,0,0,1-3.017,15.664,38.042,38.042,0,0,1-7.139,10.875A114.533,114.533,0,0,1,133.7,88.78a92.408,92.408,0,0,0-9.094,8.372,12.132,12.132,0,0,0-3.22,8.349v4.8H97.036V100.173a16.9,16.9,0,0,1,3.14-10.431,93.681,93.681,0,0,1,10.634-11.43,83.038,83.038,0,0,0,11.414-12.366,23.171,23.171,0,0,0,4.116-13.725c0-5.89-1.707-10.737-5.074-14.407-3.409-3.709-8.5-5.59-15.128-5.59-7.825,0-13.381,2.327-16.513,6.914a25.945,25.945,0,0,0-4.508,14.928l.149,4.8h-25.5c-.29-2.768-.436-4.724-.436-5.825a37.016,37.016,0,0,1,5.786-19.572" transform="translate(-4057.498 -10204.21)" fill="#f2f2f2"/>
        <path id="Path_166" data-name="Path 166" d="M98.272,266.468H1311.588v-3.516H101.795V232.828H68.1v30.123H-53.411v3.516H71.62V236.344H98.272" transform="translate(-4033 -10315.672)" fill="#f2f2f2"/>
      </g>
      <g id="Group_6821" data-name="Group 6821" transform="translate(1208.371 667.111) rotate(-45)" opacity="0.03">
        <path id="Union_8" data-name="Union 8" d="M65.345,175.167a3.216,3.216,0,0,1-3.4-4.06,2.99,2.99,0,0,1,2.645-2.555,7.015,7.015,0,0,1,.963-.069q11.118,0,22.237.007a3.39,3.39,0,0,1,3.538,4.345,3.069,3.069,0,0,1-3.162,2.33q-3.937.017-7.873.007H76.657q-3.346,0-6.692,0Q67.654,175.175,65.345,175.167Zm24.916-10.42c-.248,0-.5,0-.744,0q-6.429,0-12.858,0c-5.124,0-10.248.01-15.372,0a3.129,3.129,0,0,1-3.434-3.5,3.048,3.048,0,0,1,3-3.148c.641-.049,1.288-.031,1.932-.031q14.454,0,28.908,0c2.274,0,3.751,1.329,3.764,3.368a3.07,3.07,0,0,1-3.141,3.3c-.448.018-.9.022-1.344.022Zm2.591-10.428q-16.478,0-32.955,0c-.387,0-.775,0-1.159-.031a3.131,3.131,0,0,1-2.936-3.332,3.063,3.063,0,0,1,2.98-3.276c1.438-.061,2.879-.053,4.32-.046q.786,0,1.574.005,3.6,0,7.19,0H76.66q8.312,0,16.623,0h.163a9.778,9.778,0,0,1,1.188.046,3.333,3.333,0,0,1,2.871,3.353,3.1,3.1,0,0,1-3.01,3.255c-.347.023-.7.028-1.045.028Zm1.695-11.182-18.473,0-17.5,0c-4.131,0-6.624-2.455-6.67-6.564a48.562,48.562,0,0,0-4.921-20.686c-.143-.3-.277-.595-.4-.887a37.246,37.246,0,0,0-3.561-6.2c-5.178-6.669-10.368-13.944-12.114-23.058-3.574-18.656,1.967-34.33,16.47-46.585a44.85,44.85,0,0,1,23.794-10.1,45.411,45.411,0,0,1,17.7,1.266,47.048,47.048,0,0,1,15.7,7.626,45.611,45.611,0,0,1,18.166,30.069c2.063,13.84-1.464,26.513-10.482,37.668h0c-.811,1-1.618,2.065-2.4,3.091l-.471.618a38.309,38.309,0,0,0-2.539,4.109,6.732,6.732,0,0,1-.4.969,49.481,49.481,0,0,0-5.04,21.9c-.052,4.428-2.424,6.768-6.859,6.769ZM71.9,34.812a39.147,39.147,0,0,0-20.776,8.773c-12.962,10.954-17.71,24.385-14.516,41.06,1.511,7.887,6.088,14.27,11.047,20.654l.094.128a42.976,42.976,0,0,1,4.171,7.288l.016.038c.082.2.173.4.272.606a54.315,54.315,0,0,1,5.5,23.143,2.681,2.681,0,0,0,.087.74,2.77,2.77,0,0,0,.781.085l17.5,0,18.474,0h0a3.93,3.93,0,0,0,.957-.089,3.926,3.926,0,0,0,.1-.943,55.915,55.915,0,0,1,5.643-24.409c.028-.058.045-.095.055-.117l.066-.318.183-.355a43.757,43.757,0,0,1,3.12-5.1l.064-.087.5-.658c.806-1.06,1.64-2.157,2.506-3.227,7.955-9.839,11.069-21,9.256-33.163a40.676,40.676,0,0,0-40.07-34.376A40.1,40.1,0,0,0,71.9,34.812ZM21.8,129.78a3.208,3.208,0,0,1,.84-3.789q6.309-6.337,12.644-12.65c.456-.456.9-.928,1.369-1.365a3.251,3.251,0,0,1,4.68.021,3.186,3.186,0,0,1,0,4.67Q34.251,123.8,27.1,130.87a6.341,6.341,0,0,1-1.726.966C23.519,131.724,22.421,131.106,21.8,129.78Zm104.224.6q-7.033-6.978-14.015-14.008a3.148,3.148,0,0,1-.642-3.9,3.212,3.212,0,0,1,3.457-1.75,3.9,3.9,0,0,1,1.836.956q7.125,7.026,14.163,14.138a3.241,3.241,0,0,1-1.235,5.432c-.476-.273-.758-.565-1.041-.565-.317,0-.634.264-.951.413l-.016.321A9.567,9.567,0,0,1,126.024,130.381ZM3.322,80.007a3.341,3.341,0,1,1,.071-6.682c2.327-.016,4.655-.012,6.983-.009l3.061,0c3.252,0,6.5-.006,9.755,0,2.27.006,3.608,1.176,3.677,3.189a3.581,3.581,0,0,1-3.651,3.482q-5.736.032-11.474.032Q7.533,80.023,3.322,80.007Zm127.029,0c-1.923,0-3.061-.82-3.458-2.444a3.212,3.212,0,0,1,1.513-3.813,5.041,5.041,0,0,1,2.044-.42c3.22-.042,6.441-.019,9.662-.017,3.252,0,6.506-.021,9.758.007a3.307,3.307,0,0,1,3.416,3.859,3.022,3.022,0,0,1-2.744,2.781,7.307,7.307,0,0,1-.867.043q-6.968,0-13.938.006ZM99.877,75.538A23.252,23.252,0,0,0,80.116,52.7a28.062,28.062,0,0,0-3.37-.265c-2.168-.086-3.43-1.294-3.43-3.34a3.146,3.146,0,0,1,3.5-3.367,30.106,30.106,0,0,1,29.765,28.531c0,.419,0,.838,0,1.257a3.154,3.154,0,0,1-3.3,3.47h-.058C101.151,78.989,99.919,77.722,99.877,75.538ZM111.6,39.619a3.038,3.038,0,0,1,.645-3.571q6.725-6.8,13.519-13.526a3.22,3.22,0,0,1,4.678-.025,3.255,3.255,0,0,1-.016,4.749q-6.673,6.71-13.4,13.367a7.479,7.479,0,0,1-1.852,1.086C113.3,41.571,112.2,40.964,111.6,39.619ZM35.909,40.6c-2.091-2.052-4.149-4.137-6.22-6.208q-3.449-3.449-6.9-6.9c-1.585-1.586-1.7-3.529-.3-4.951,1.418-1.441,3.358-1.364,4.942.214q6.532,6.509,13.057,13.028a3.455,3.455,0,0,1,1.162,2.559,3.392,3.392,0,0,1-2.107,3.086,3.449,3.449,0,0,1-1.246.245A3.382,3.382,0,0,1,35.909,40.6ZM75.544,25.365a2.991,2.991,0,0,1-2.213-3.041c-.04-1.9-.017-3.8-.017-5.7,0-4.379-.011-8.757,0-13.136C73.325,1.416,74.43.15,76.285.014a3.159,3.159,0,0,1,3.709,3.414C80.016,6.551,80,9.674,80,12.8h-.007c0,3.123.029,6.246-.009,9.368a3.191,3.191,0,0,1-3.229,3.386A4.207,4.207,0,0,1,75.544,25.365Z" transform="translate(0.002 -0.001)" fill="#f2f2f2"/>
      </g>
      <g id="Group_6823" data-name="Group 6823" transform="translate(1275 110.001)" opacity="0.03">
        <path id="Union_6" data-name="Union 6" d="M24.594,158.73A69.652,69.652,0,0,1,12.73,65.5c-2.346-2.3-4.709-4.632-7.072-6.964-1.4-1.382-2.788-2.771-4.167-4.179a3.526,3.526,0,0,1-.077-5.328q5.169-5.221,10.39-10.4c1.816-1.793,3.783-1.753,5.6.048q4.814,4.806,9.6,9.643a13.508,13.508,0,0,1,1.143,1.451c.867-.59,1.5-1.006,2.109-1.428A68.575,68.575,0,0,1,58.765,37.022c.633-.108,1.018-.234,1.018-1-.031-6.3-.023-12.611-.031-18.916a3.015,3.015,0,0,0-.125-.49c-1.944,0-3.9.009-5.844-.011-3.116-.011-4.307-1.189-4.307-4.284,0-2.859-.011-5.7.011-8.56A3.4,3.4,0,0,1,53.241.023Q69.45-.02,85.651.012c2.531,0,3.842,1.371,3.86,3.9.011,3,.011,6.02-.006,9.033a3.382,3.382,0,0,1-3.48,3.637c-1.251.037-2.491.037-3.734.037-.562-.009-1.12-.009-1.685,0-.433,0-.867.04-1.34.06-.031.373-.068.641-.068.906-.011,6.069,0,12.135-.011,18.2-.006.678.071,1.1.909,1.231a68.523,68.523,0,0,1,30.2,12.431c.066.04.148.06.482.205,1.536-1.585,3.133-3.261,4.76-4.9,2-2.032,4.016-4.042,6.037-6.06,1.821-1.8,3.771-1.864,5.587-.06q5.229,5.157,10.39,10.384c1.656,1.682,1.608,3.674-.125,5.427q-5.088,5.144-10.216,10.225c-.276.288-.59.533-.938.841A69.54,69.54,0,0,1,24.594,158.73ZM3.777,105.619a65.935,65.935,0,0,0,65.441,65.8c35.711.325,65.6-29.081,65.963-65.008A65.87,65.87,0,0,0,70.786,40c-.425-.006-.852-.009-1.277-.009A65.847,65.847,0,0,0,3.777,105.619Zm.661-53.877c3.463,3.489,6.992,7.044,10.47,10.541,3.438-3.5,6.818-6.944,10.059-10.233-3.478-3.512-7-7.046-10.324-10.4C11.262,44.984,7.824,48.382,4.438,51.742Zm109.5.225c3.361,3.421,6.741,6.867,10.011,10.208,3.506-3.48,7.072-7.015,10.638-10.552-3.378-3.349-6.787-6.727-10.156-10.059C120.949,45.032,117.394,48.55,113.942,51.967ZM63.534,17.973c.048,5.7.031,11.388.031,17.08v1.231H75.287V16.621c-3.557,0-7,.04-10.441-.031h-.111C63.717,16.59,63.534,16.992,63.534,17.973Zm-10.185-5.2H85.64v-8.9H53.349ZM15.766,106.506a53.733,53.733,0,1,1,55.148,52.9q-.7.017-1.385.017A53.8,53.8,0,0,1,15.766,106.506Zm3.814-.926a49.959,49.959,0,0,0,49.775,50.026c27.5.04,50.046-22.305,50.066-49.63A49.986,49.986,0,0,0,69.572,55.761h-.017A49.949,49.949,0,0,0,19.58,105.579Zm39.109,27.564a8.266,8.266,0,1,1,16.53.011,8.1,8.1,0,0,1-8.352,8.383A8.011,8.011,0,0,1,58.688,133.144Zm3.8.011a4.3,4.3,0,0,0,4.367,4.581,4.387,4.387,0,0,0,4.569-4.532,4.336,4.336,0,0,0-4.45-4.632h-.023A4.283,4.283,0,0,0,62.488,133.155ZM58.8,121.439c0-2.548-.18-5.151.028-7.713.4-4.8,2.611-8.876,5.547-12.6,1.368-1.736,2.825-3.409,4.068-5.231a11.733,11.733,0,0,0,1.619-3.577,3.433,3.433,0,0,0-2.722-4.481c-3.862-.935-7.386.128-10.718,2.047-.787.456-1.528,1.026-2.434,1.648-1.485-4.72-2.916-9.321-4.373-13.9-.217-.678.145-.915.639-1.192A32.571,32.571,0,0,1,62.568,72.32a31.8,31.8,0,0,1,14.888.958C87.276,76.6,91.64,86.843,87.461,96.686c-1.642,3.88-4.373,6.981-7.16,10.048A15.689,15.689,0,0,0,75.885,115a44.917,44.917,0,0,0-.217,4.689c-.017.553-.006,1.106-.006,1.753Zm12.334-3.714c.827,0,.738-.559.755-1.072a13.975,13.975,0,0,1,1.824-7.046c1.439-2.332,3.252-4.45,4.869-6.679,1.713-2.363,3.723-4.578,5.023-7.152,3.318-6.57,2.374-16.373-8.925-19.289a28.717,28.717,0,0,0-13.36-.066c-2.4.522-4.738,1.365-7.229,2.1.807,2.58,1.516,4.817,2.238,7.112.579-.228,1.063-.425,1.545-.6a18.919,18.919,0,0,1,8.617-1.243c5.983.65,9.056,5.382,6.8,10.954a29,29,0,0,1-4.167,6.553c-2.087,2.708-4.267,5.319-5.49,8.571a15.8,15.8,0,0,0-1,7.85l4.29,0C68.329,117.714,69.728,117.717,71.131,117.725Z" transform="translate(0 -0.001)" fill="#f2f2f2"/>
      </g>
      <text id="QUIZ" transform="translate(69 316) rotate(-90)" fill="#f2f2f2" font-size="100" font-family="Poppins-Thin, Poppins" font-weight="200" opacity="0.05"><tspan x="0" y="0">QUIZ</tspan></text>
    </g>
  </g>
</svg>
