<svg id="Group_404" data-name="Group 404" xmlns="http://www.w3.org/2000/svg" width="55.506" height="41.638" viewBox="0 0 55.506 41.638">
  <rect id="Rectangle_194" data-name="Rectangle 194" width="25" height="28" transform="translate(16.055 7.702)" fill="#fff"/>
  <path id="Icon_ionic-logo-youtube" data-name="Icon ionic-logo-youtube" d="M55.146,13.695c0-4.879-3.589-8.8-8.024-8.8-6.007-.282-12.133-.39-18.389-.39H26.781c-6.245,0-12.382.108-18.389.39C3.969,4.89.38,8.837.38,13.716.109,17.576-.011,21.436,0,25.3q-.016,5.79.369,11.591c0,4.879,3.589,8.837,8.013,8.837,6.31.293,12.783.423,19.365.412q9.888.033,19.365-.412c4.435,0,8.024-3.958,8.024-8.837.26-3.871.379-7.731.369-11.6Q55.536,19.5,55.146,13.695Zm-32.7,22.238V14.627L38.166,25.274Z" transform="translate(0 -4.5)" fill="red"/>
</svg>
