<svg xmlns="http://www.w3.org/2000/svg" width="24.436" height="20.604" viewBox="0 0 24.436 20.604">
  <g id="Group_9904" data-name="Group 9904" transform="translate(-1211.677 21383.457)">
    <path id="Path_148" data-name="Path 148" d="M0,6.344V3.672a17.305,17.305,0,0,0,2.6-.247A3.665,3.665,0,0,0,4.521,2.377,3.461,3.461,0,0,0,5.29.945a3.34,3.34,0,0,0,.15-.8H8.718V20.117H4.7V6.344Z" transform="translate(1211.677 -21383.465)" fill="#f2f2f2"/>
    <path id="Path_149" data-name="Path 149" d="M23.579,2.685a15.543,15.543,0,0,1,1.535,7.63q0,4.945-1.535,7.617T18.228,20.6q-3.815,0-5.35-2.672a15.456,15.456,0,0,1-1.536-7.617,15.542,15.542,0,0,1,1.536-7.63Q14.413,0,18.228,0t5.351,2.685m-7.665,12.9a2.272,2.272,0,0,0,2.314,1.825,2.241,2.241,0,0,0,2.293-1.825,19.472,19.472,0,0,0,.544-5.268,19.258,19.258,0,0,0-.544-5.343,2.222,2.222,0,0,0-2.293-1.736,2.254,2.254,0,0,0-2.314,1.736,18.608,18.608,0,0,0-.565,5.343,18.815,18.815,0,0,0,.565,5.268" transform="translate(1210.999 -21383.457)" fill="#f2f2f2"/>
  </g>
</svg>
