<svg xmlns="http://www.w3.org/2000/svg" xmlns:xlink="http://www.w3.org/1999/xlink" width="351.072" height="108.96" viewBox="0 0 351.072 108.96">
  <defs>
    <radialGradient id="radial-gradient" cx="0.568" cy="0.491" r="1.226" gradientUnits="objectBoundingBox">
      <stop offset="0.006" stop-color="#face6d"/>
      <stop offset="0.293" stop-color="#f9bd56"/>
      <stop offset="0.687" stop-color="#f7931e"/>
      <stop offset="1" stop-color="#ff4c3a"/>
    </radialGradient>
    <radialGradient id="radial-gradient-2" cx="-1.064" cy="0.706" r="1.999" xlink:href="#radial-gradient"/>
  </defs>
  <g id="Group_9886" data-name="Group 9886" transform="translate(-157.635 -546.584)">
    <path id="Path_4950" data-name="Path 4950" d="M203.88,546.584a10.433,10.433,0,0,0-2.652,1.733c-.822.664-1.6,1.388-2.358,2.125-1.518,1.477-2.952,3.04-4.345,4.634q-4.165,4.8-7.853,9.955a133.816,133.816,0,0,0-12.778,21.577,89.892,89.892,0,0,0-4.417,11.426,50.9,50.9,0,0,0-2.111,11.558,28.868,28.868,0,0,0,1.365,10.7,20.984,20.984,0,0,0,5.556,8.359,31.491,31.491,0,0,0,9.051,5.608,27.2,27.2,0,0,0,2.617,1.015c.9.294,1.763.651,2.709.882.929.259,1.839.546,2.776.788l2.85.657a122.533,122.533,0,0,0,23.977,2.215c16.387.015,33.027-1.874,49.568-4.353a508.691,508.691,0,0,0,97-24.857c15.625-5.762,31.177-12.2,46.515-19.151,7.659-3.492,15.329-6.977,22.923-10.644s15.152-7.423,22.711-11.2l9.443,18.16c-7.58,4.088-15.256,8.012-22.988,11.836s-15.51,7.578-23.4,11.11q-11.82,5.322-23.837,10.244l-6.019,2.436-6.088,2.371c-4.083,1.519-8.175,3.011-12.293,4.43a473.464,473.464,0,0,1-50.186,14.419q-12.73,2.9-25.614,5.041c-8.579,1.444-17.21,2.635-25.828,3.592-8.642.918-17.323,1.672-26.069,2.026a231.407,231.407,0,0,1-26.415-.229A136.3,136.3,0,0,1,191,650.758a65.478,65.478,0,0,1-13.139-5.138,43.323,43.323,0,0,1-11.852-8.909,32.106,32.106,0,0,1-7.341-13.444,36.868,36.868,0,0,1-.548-14.653c1.506-9.379,5.329-17.634,9.873-25.164a128.492,128.492,0,0,1,15.868-20.732,126.805,126.805,0,0,1,9.3-9.017c1.644-1.4,3.321-2.758,5.072-4.021.877-.628,1.763-1.245,2.7-1.787A10.636,10.636,0,0,1,203.88,546.584Z" fill="url(#radial-gradient)"/>
    <g id="Group_9139" data-name="Group 9139">
      <path id="Path_4951" data-name="Path 4951" d="M455.229,619.7l-3.416-35.971-28.262-22.512,85.157-8.306Z" fill="url(#radial-gradient-2)"/>
    </g>
  </g>
</svg>
