<svg xmlns="http://www.w3.org/2000/svg" xmlns:xlink="http://www.w3.org/1999/xlink" width="1109" height="501" viewBox="0 0 1109 501">
  <defs>
    <filter id="Subtraction_2" x="2.999" y="3" width="1106" height="498" filterUnits="userSpaceOnUse">
      <feOffset dy="3" input="SourceAlpha"/>
      <feGaussianBlur stdDeviation="3" result="blur"/>
      <feFlood flood-opacity="0.161"/>
      <feComposite operator="in" in2="blur"/>
      <feComposite in="SourceGraphic"/>
    </filter>
    <filter id="Ellipse_17" x="0" y="0" width="120" height="120" filterUnits="userSpaceOnUse">
      <feOffset dy="3" input="SourceAlpha"/>
      <feGaussianBlur stdDeviation="4" result="blur-2"/>
      <feFlood flood-opacity="0.2"/>
      <feComposite operator="in" in2="blur-2"/>
      <feComposite in="SourceGraphic"/>
    </filter>
  </defs>
  <g id="Group_9913" data-name="Group 9913" transform="translate(-127 -156)">
    <g transform="matrix(1, 0, 0, 1, 127, 156)" filter="url(#Subtraction_2)">
      <path id="Subtraction_2-2" data-name="Subtraction 2" d="M5521,11661H4453a10.011,10.011,0,0,1-10-10v-378.173a65.189,65.189,0,0,0,21.33,15.464,64.574,64.574,0,0,0,12.823,4.229,65.056,65.056,0,0,0,77.371-77.368,64.678,64.678,0,0,0-10.9-24.311,65.486,65.486,0,0,0-8.8-9.842H5521a10.011,10.011,0,0,1,10,10v460A10.011,10.011,0,0,1,5521,11661Z" transform="translate(-4431 -11172)" fill="#fff"/>
    </g>
    <g id="Group_6835" data-name="Group 6835">
      <g transform="matrix(1, 0, 0, 1, 127, 156)" filter="url(#Ellipse_17)">
        <circle id="Ellipse_17-2" data-name="Ellipse 17" cx="48" cy="48" r="48" transform="translate(12 9)" fill="#f2b705"/>
      </g>
      <g id="Group_6836" data-name="Group 6836" transform="translate(165.661 188.621)">
        <path id="Union_8" data-name="Union 8" d="M18.189,48.758a.9.9,0,0,1-.947-1.13.832.832,0,0,1,.736-.711,1.952,1.952,0,0,1,.268-.019q3.095,0,6.19,0a.944.944,0,0,1,.985,1.21.854.854,0,0,1-.88.649q-1.1,0-2.191,0H19.475Zm6.936-2.9H21.338c-1.426,0-2.853,0-4.279,0a.871.871,0,0,1-.956-.974A.848.848,0,0,1,16.94,44c.178-.014.358-.008.538-.008h8.047a.939.939,0,0,1,1.048.937.855.855,0,0,1-.874.92c-.125,0-.249.006-.374.006Zm.721-2.9H16.673c-.108,0-.216,0-.323-.009a.871.871,0,0,1-.817-.928.853.853,0,0,1,.83-.912c.4-.017.8-.015,1.2-.013h8.446a2.721,2.721,0,0,1,.331.013.928.928,0,0,1,.8.933.862.862,0,0,1-.838.906c-.1.007-.194.008-.291.008Zm.472-3.113H16.3a1.7,1.7,0,0,1-1.856-1.827,13.518,13.518,0,0,0-1.37-5.758c-.04-.082-.077-.166-.111-.247a10.368,10.368,0,0,0-.991-1.725A15.29,15.29,0,0,1,8.6,23.865,12.813,12.813,0,0,1,13.188,10.9a12.484,12.484,0,0,1,6.623-2.811,12.64,12.64,0,0,1,4.928.352,13.1,13.1,0,0,1,4.37,2.123,12.7,12.7,0,0,1,5.057,8.37,13.041,13.041,0,0,1-2.918,10.485h0c-.226.279-.45.575-.668.86l-.131.172a10.664,10.664,0,0,0-.707,1.144,1.874,1.874,0,0,1-.111.27,13.773,13.773,0,0,0-1.4,6.1,1.708,1.708,0,0,1-1.909,1.884ZM20.014,9.69a10.9,10.9,0,0,0-5.783,2.442A11.162,11.162,0,0,0,10.19,23.561a13.77,13.77,0,0,0,3.075,5.749l.026.036a11.963,11.963,0,0,1,1.161,2.029l0,.011c.023.055.048.112.076.169A15.119,15.119,0,0,1,16.063,38a.746.746,0,0,0,.024.206.771.771,0,0,0,.217.024H26.318a1.094,1.094,0,0,0,.266-.025,1.093,1.093,0,0,0,.027-.263,15.564,15.564,0,0,1,1.571-6.794l.015-.033.018-.089.051-.1a12.18,12.18,0,0,1,.869-1.419l.018-.024.139-.183c.224-.3.457-.6.7-.9a11.485,11.485,0,0,0,2.576-9.231A11.322,11.322,0,0,0,21.414,9.6,11.163,11.163,0,0,0,20.014,9.69ZM6.068,36.125A.893.893,0,0,1,6.3,35.07q1.756-1.764,3.519-3.521c.127-.127.249-.258.381-.38a.9.9,0,0,1,1.3.006.887.887,0,0,1,0,1.3q-1.971,1.986-3.962,3.953a1.765,1.765,0,0,1-.48.269A1.027,1.027,0,0,1,6.068,36.125Zm29.011.167q-1.958-1.942-3.9-3.9A.876.876,0,0,1,31,31.308a.894.894,0,0,1,.962-.487,1.084,1.084,0,0,1,.511.266q1.983,1.956,3.942,3.935a.9.9,0,0,1-.344,1.512c-.132-.076-.211-.157-.29-.157s-.176.074-.265.115l0,.089A2.663,2.663,0,0,1,35.079,36.292ZM.925,22.27a.93.93,0,1,1,.02-1.86c.648,0,1.3,0,1.944,0H3.74c.905,0,1.81,0,2.715,0a.9.9,0,0,1,1.023.888,1,1,0,0,1-1.016.969q-1.6.009-3.194.009Q2.1,22.275.925,22.27Zm35.359,0a.868.868,0,0,1-.962-.68.894.894,0,0,1,.421-1.061,1.4,1.4,0,0,1,.569-.117c.9-.012,1.793-.005,2.689,0s1.811-.006,2.716,0a.921.921,0,0,1,.951,1.074.841.841,0,0,1-.764.774,2.034,2.034,0,0,1-.241.012l-3.88,0ZM27.8,21.026a6.472,6.472,0,0,0-5.5-6.356,7.811,7.811,0,0,0-.938-.074.934.934,0,1,1,.021-1.867,8.38,8.38,0,0,1,8.285,7.942c0,.117,0,.233,0,.35a.878.878,0,0,1-.919.966h-.016A.875.875,0,0,1,27.8,21.026Zm3.264-10a.846.846,0,0,1,.18-.994q1.872-1.892,3.763-3.765a.9.9,0,0,1,1.3-.007.906.906,0,0,1,0,1.322q-1.857,1.868-3.73,3.721a2.082,2.082,0,0,1-.516.3A1.018,1.018,0,0,1,31.065,11.028ZM10,11.3c-.582-.571-1.155-1.152-1.731-1.728l-1.92-1.92A.922.922,0,0,1,6.26,6.275a.911.911,0,0,1,1.376.059Q9.454,8.146,11.27,9.961a.962.962,0,0,1,.323.712.944.944,0,0,1-.586.859.96.96,0,0,1-.347.068A.941.941,0,0,1,10,11.3Zm11.032-4.24a.833.833,0,0,1-.616-.847c-.011-.528,0-1.057,0-1.586,0-1.219,0-2.438,0-3.656A.865.865,0,0,1,21.234,0a.879.879,0,0,1,1.033.95c.006.869,0,1.738,0,2.608h0c0,.869.008,1.739,0,2.608a.888.888,0,0,1-.9.942A1.171,1.171,0,0,1,21.028,7.061Z" transform="translate(0.002 -0.001)" fill="#050505"/>
      </g>
    </g>
  </g>
</svg>
