<svg xmlns="http://www.w3.org/2000/svg" width="46" height="46" viewBox="0 0 46 46">
  <g id="Instagram" transform="translate(-865 -2440)">
    <circle id="Ellipse_5" data-name="Ellipse 5" cx="23" cy="23" r="23" transform="translate(865 2440)" fill="#f2f2f2"/>
    <g id="Icon_feather-instagram" data-name="Icon feather-instagram" transform="translate(874 2449)" opacity="0.45">
      <path id="Path_22" data-name="Path 22" d="M8.45,3h10.9A5.45,5.45,0,0,1,24.8,8.45v10.9a5.45,5.45,0,0,1-5.45,5.45H8.45A5.45,5.45,0,0,1,3,19.351V8.45A5.45,5.45,0,0,1,8.45,3Z" transform="translate(0)" fill="none" stroke="#000" stroke-linecap="round" stroke-linejoin="round" stroke-width="1.5"/>
      <path id="Path_23" data-name="Path 23" d="M20.738,15.656a4.36,4.36,0,1,1-3.674-3.674,4.36,4.36,0,0,1,3.674,3.674Z" transform="translate(-2.477 -2.442)" fill="none" stroke="#000" stroke-linecap="round" stroke-linejoin="round" stroke-width="1.5"/>
      <path id="Path_24" data-name="Path 24" d="M26.25,9.75h0" transform="translate(-6.354 -1.845)" fill="none" stroke="#000" stroke-linecap="round" stroke-linejoin="round" stroke-width="1.5"/>
    </g>
  </g>
</svg>
