<svg xmlns="http://www.w3.org/2000/svg" width="44" height="44" viewBox="0 0 44 44">
  <g id="Group_398" data-name="Group 398" transform="translate(-0.043)">
    <circle id="Ellipse_5" data-name="Ellipse 5" cx="22" cy="22" r="22" transform="translate(0.043)" fill="#f2f2f2"/>
    <g id="Icon_feather-instagram" data-name="Icon feather-instagram" transform="translate(11.478 11.478)">
      <path id="Path_22" data-name="Path 22" d="M8.213,3H18.64a5.213,5.213,0,0,1,5.213,5.213V18.64a5.213,5.213,0,0,1-5.213,5.213H8.213A5.213,5.213,0,0,1,3,18.64V8.213A5.213,5.213,0,0,1,8.213,3Z" transform="translate(-3 -3)" fill="none" stroke="#050505" stroke-linecap="round" stroke-linejoin="round" stroke-width="1.5"/>
      <path id="Path_23" data-name="Path 23" d="M20.361,15.494a4.171,4.171,0,1,1-3.514-3.514,4.171,4.171,0,0,1,3.514,3.514Z" transform="translate(-5.764 -5.724)" fill="none" stroke="#050505" stroke-linecap="round" stroke-linejoin="round" stroke-width="1.5"/>
      <path id="Path_24" data-name="Path 24" d="M26.25,9.75h0" transform="translate(-10.089 -5.058)" fill="none" stroke="#050505" stroke-linecap="round" stroke-linejoin="round" stroke-width="1.5"/>
    </g>
  </g>
</svg>
