<svg xmlns="http://www.w3.org/2000/svg" width="50" height="50" viewBox="0 0 50 50">
  <g id="Invite" transform="translate(-235 -656)">
    <rect id="Rectangle_137" data-name="Rectangle 137" width="50" height="50" rx="4" transform="translate(235 656)" fill="#8c034e"/>
    <path id="Icon_awesome-telegram-plane" data-name="Icon awesome-telegram-plane" d="M26.081,6.525,22.134,25.138c-.3,1.314-1.074,1.641-2.178,1.022l-6.014-4.431-2.9,2.791a1.51,1.51,0,0,1-1.209.59l.432-6.125L21.41,8.913c.485-.432-.105-.671-.753-.239L6.878,17.349.946,15.493c-1.29-.4-1.314-1.29.269-1.909l23.2-8.939C25.491,4.242,26.431,4.884,26.081,6.525Z" transform="translate(246.922 665.504)" fill="#fff"/>
  </g>
</svg>
