<svg xmlns="http://www.w3.org/2000/svg" xmlns:xlink="http://www.w3.org/1999/xlink" width="40" height="40" viewBox="0 0 40 40">
  <defs>
    <clipPath id="clip-path">
      <path id="Path_93" data-name="Path 93" d="M16.762,36.427l3.366-3.133,3.2-2.552L19.847,15.716,16.762,7.71l-.86-.569-.695-2.219L13.817,0H-.867l-2.05,25.583,1.612,7.334Z" transform="translate(2.917)" fill="#f2f2f2"/>
    </clipPath>
  </defs>
  <g id="Language" transform="translate(-1485 -168.295)">
    <g id="Rectangle_2652" data-name="Rectangle 2652" transform="translate(1485 168.295)" fill="#fff" stroke="#707070" stroke-width="1" opacity="0">
      <rect width="40" height="40" stroke="none"/>
      <rect x="0.5" y="0.5" width="39" height="39" fill="none"/>
    </g>
    <g id="Group_9850" data-name="Group 9850" transform="translate(1486 169.295)">
      <rect id="Rectangle_152" data-name="Rectangle 152" width="35.1" height="36" transform="translate(2.917)" fill="#f2f2f2" opacity="0"/>
      <path id="Path_89" data-name="Path 89" d="M27.375,19.645a3.963,3.963,0,0,1-.217,1.349,2.9,2.9,0,0,1-.625,1.031,2.7,2.7,0,0,1-1,.661,3.7,3.7,0,0,1-1.345.231,6.631,6.631,0,0,1-.934-.065,7.7,7.7,0,0,1-.822-.156V21.234a3.851,3.851,0,0,0,.767.259,3.919,3.919,0,0,0,.906.1A1.6,1.6,0,0,0,25.37,21.1a1.993,1.993,0,0,0,.434-1.363,2.382,2.382,0,0,0-.161-.925,1.463,1.463,0,0,0-.482-.614,2.058,2.058,0,0,0-.786-.342A4.862,4.862,0,0,0,23.3,17.75H21.57v.934a5.5,5.5,0,0,1-.3,1.937,3.263,3.263,0,0,1-.906,1.317,3.721,3.721,0,0,1-1.354.73,6.073,6.073,0,0,1-1.816.25,5.642,5.642,0,0,1-1.835-.272,3.892,3.892,0,0,1-1.322-.744,3.054,3.054,0,0,1-.8-1.1,3.378,3.378,0,0,1-.269-1.341,3.1,3.1,0,0,1,.351-1.539,2.647,2.647,0,0,1,.98-.993,3.545,3.545,0,0,1,.453-.232,3.2,3.2,0,0,1,.518-.166V11.649H25.786v1.358H21.57V16.4h1.748a7.328,7.328,0,0,1,1.673.172,3.628,3.628,0,0,1,1.239.522,2.691,2.691,0,0,1,.85,1.035,3.539,3.539,0,0,1,.3,1.517m-7.321-1.9H16.718a2.814,2.814,0,0,0-1.619.388,1.459,1.459,0,0,0-.554,1.285,2.074,2.074,0,0,0,.17.851,1.762,1.762,0,0,0,.514.665,2.478,2.478,0,0,0,.85.434,3.973,3.973,0,0,0,1.175.157,2.9,2.9,0,0,0,2.112-.679,2.957,2.957,0,0,0,.689-2.177Zm0-4.742H16.782V16.4h3.273Z" transform="translate(4.622 2.135)" fill="#f2f2f2"/>
      <g id="Mask_Group_9" data-name="Mask Group 9" clip-path="url(#clip-path)">
        <path id="Subtraction_1" data-name="Subtraction 1" d="M31.43,35.959l-.132,0H17.428l-1.781-5.393H3.48l-.135,0A3.39,3.39,0,0,1,0,27.241c0-.09,0-.182,0-.273V3.6A3.421,3.421,0,0,1,3.215,0l.132,0L3.48,0H13.908l1.521,5.366h.312A74.87,74.87,0,0,1,29.714,6.379c3.021.61,4.236,1.36,4.723,1.882a.98.98,0,0,1,.329.684V32.361a3.5,3.5,0,0,1-.882,2.484,3.274,3.274,0,0,1-2.321,1.112ZM15.995,7.149l2,7.326a45.563,45.563,0,0,0,1.466,5.2c.019.125.271,1.05,1.75,5.854l1.433,5.034-3.475,3.6H31.323a1.746,1.746,0,0,0,1.707-1.738V8.946a1.743,1.743,0,0,0-1.676-1.8H15.995ZM7.524,19.7h4.768L13.424,23.3h1.751L10.968,10.4H8.923L4.717,23.3H6.393l1.131-3.6Zm4.307-1.464H7.985L9.9,12.152l1.927,6.082Z" transform="translate(2.818 0)" fill="#f2f2f2"/>
      </g>
      <path id="Path_92" data-name="Path 92" d="M19.99,3.43V27a3.462,3.462,0,0,1-3.31,3.6H2.06l-.02-.05L3.88,28.8H16.43a1.787,1.787,0,0,0,1.77-1.74V3.58a1.771,1.771,0,0,0-1.73-1.8H.54L0,0H16.51a3.453,3.453,0,0,1,3.48,3.43" transform="translate(18.024 5.361)" fill="#f2f2f2"/>
    </g>
  </g>
</svg>
