<svg xmlns="http://www.w3.org/2000/svg" xmlns:xlink="http://www.w3.org/1999/xlink" width="40" height="40" viewBox="0 0 40 40">
  <defs>
    <clipPath id="clip-path">
      <path id="Path_93" data-name="Path 93" d="M18.095,37.71l3.6-3.243,3.423-2.642L21.4,16.27l-3.3-8.288-.921-.589L16.43,5.1,14.942,0H-.781L-1.25,26.324l1.018,5.5Z" transform="translate(1.25)" fill="#fff"/>
    </clipPath>
  </defs>
  <g id="Lang_Tamil" data-name="Lang Tamil" transform="translate(-4474 23777)">
    <g id="Rectangle_2714" data-name="Rectangle 2714" transform="translate(4474 -23777)" fill="none" stroke="#707070" stroke-width="1" opacity="0">
      <rect width="40" height="40" stroke="none"/>
      <rect x="0.5" y="0.5" width="39" height="39" fill="none"/>
    </g>
    <g id="Lang_Tamil-2" data-name="Lang Tamil" transform="translate(4474.104 -23775.646)" opacity="0">
      <path id="Path_89" data-name="Path 89" d="M27.883,19.927a4.1,4.1,0,0,1-.224,1.4,3,3,0,0,1-.647,1.067,2.793,2.793,0,0,1-1.038.685,3.835,3.835,0,0,1-1.393.239,6.864,6.864,0,0,1-.966-.067,7.975,7.975,0,0,1-.851-.162V21.572a3.986,3.986,0,0,0,.794.268,4.058,4.058,0,0,0,.938.105,1.655,1.655,0,0,0,1.311-.512,2.063,2.063,0,0,0,.45-1.411,2.466,2.466,0,0,0-.167-.958,1.515,1.515,0,0,0-.5-.636,2.13,2.13,0,0,0-.813-.354,5.033,5.033,0,0,0-1.115-.11h-1.79v.966a5.7,5.7,0,0,1-.306,2.005,3.378,3.378,0,0,1-.938,1.363,3.852,3.852,0,0,1-1.4.756,6.287,6.287,0,0,1-1.88.258,5.841,5.841,0,0,1-1.9-.282,4.029,4.029,0,0,1-1.368-.77,3.162,3.162,0,0,1-.828-1.139,3.5,3.5,0,0,1-.278-1.388,3.211,3.211,0,0,1,.364-1.594,2.74,2.74,0,0,1,1.014-1.028,3.669,3.669,0,0,1,.469-.24,3.314,3.314,0,0,1,.537-.171V11.649H26.238v1.406H21.873v3.512h1.809a7.587,7.587,0,0,1,1.732.178,3.755,3.755,0,0,1,1.282.54,2.786,2.786,0,0,1,.879,1.072,3.664,3.664,0,0,1,.306,1.57M20.3,17.965H16.85a2.913,2.913,0,0,0-1.676.4A1.51,1.51,0,0,0,14.6,19.7a2.147,2.147,0,0,0,.176.881,1.824,1.824,0,0,0,.532.688,2.565,2.565,0,0,0,.879.45,4.113,4.113,0,0,0,1.216.163,3,3,0,0,0,2.186-.7,3.061,3.061,0,0,0,.713-2.254Zm0-4.909H16.916v3.512H20.3Z" transform="translate(4.211 2.62)" fill="#fff"/>
      <g id="Mask_Group_9" data-name="Mask Group 9" clip-path="url(#clip-path)">
        <path id="Subtraction_1" data-name="Subtraction 1" d="M33.653,37.227l-.142,0H18.661l-1.907-5.583H3.726l-.144,0A3.573,3.573,0,0,1,0,28.2c0-.094,0-.189,0-.282V3.725A3.588,3.588,0,0,1,3.443,0l.141,0,.142,0H14.892L16.52,5.558h.335A82.857,82.857,0,0,1,31.816,6.6c3.235.632,4.536,1.408,5.057,1.948a1,1,0,0,1,.352.708V33.5a3.579,3.579,0,0,1-3.43,3.722ZM17.126,7.4l2.139,7.584a45.991,45.991,0,0,0,1.57,5.385c.02.129.29,1.087,1.874,6.06l1.535,5.211-3.721,3.722H33.539a1.839,1.839,0,0,0,1.828-1.8V9.261A1.831,1.831,0,0,0,33.572,7.4H17.126ZM8.057,20.393h5.1l1.212,3.732h1.875l-4.5-13.359H9.555l-4.5,13.359H6.845l1.211-3.732Zm4.612-1.516H8.55l2.054-6.3,2.063,6.3Z" transform="translate(1.292 0)" fill="#fff"/>
      </g>
      <path id="Path_92" data-name="Path 92" d="M20.694,3.551v24.4a3.584,3.584,0,0,1-3.427,3.727H2.133l-.021-.052,1.9-1.812H17.009a1.85,1.85,0,0,0,1.832-1.8V3.706A1.834,1.834,0,0,0,17.05,1.843H.559L0,0H17.092a3.574,3.574,0,0,1,3.6,3.551" transform="translate(17.865 5.549)" fill="#fff"/>
      <rect id="Rectangle_152" data-name="Rectangle 152" width="37.268" height="37.268" transform="translate(1.294)" fill="#fff" opacity="0"/>
    </g>
    <g id="Lang_Tamil-3" data-name="Lang Tamil" transform="translate(4474 -23777)">
      <g id="Rectangle_2716" data-name="Rectangle 2716" fill="none" stroke="#707070" stroke-width="1" opacity="0">
        <rect width="40" height="40" stroke="none"/>
        <rect x="0.5" y="0.5" width="39" height="39" fill="none"/>
      </g>
      <g id="Lang_Tamil-4" data-name="Lang Tamil" transform="translate(1.338 1.331)">
        <path id="Path_5316" data-name="Path 5316" d="M36.736,8.916V33.355A3.59,3.59,0,0,1,33.3,37.087H18.146l-.021-.052,1.908-1.814H33.045a1.853,1.853,0,0,0,1.835-1.8V9.072a1.836,1.836,0,0,0-1.794-1.866H16.57L16.01,5.36H33.128a3.58,3.58,0,0,1,3.608,3.552v0" transform="translate(0.59 0.197)" fill="#fff"/>
        <path id="Path_5317" data-name="Path 5317" d="M26.584,12.4H24.391L19.88,25.775h1.8l1.213-3.733H28l1.215,3.733H31.1Zm.925,8.125H23.386l2.057-6.307,2.066,6.306Z" transform="translate(0.732 0.457)" fill="#fff"/>
        <path id="Path_5318" data-name="Path 5318" d="M4.2,18.782a1.514,1.514,0,0,0-.574,1.332A2.147,2.147,0,0,0,3.8,21a1.829,1.829,0,0,0,.533.69,2.556,2.556,0,0,0,.881.45,4.106,4.106,0,0,0,1.218.163,3.006,3.006,0,0,0,2.19-.7,3.065,3.065,0,0,0,.714-2.257l0-.958H5.877a2.915,2.915,0,0,0-1.679.4" transform="translate(0.133 0.677)" fill="#fff"/>
        <rect id="Rectangle_2713" data-name="Rectangle 2713" width="3.396" height="3.521" transform="translate(6.076 14.139)" fill="#fff"/>
        <path id="Path_5319" data-name="Path 5319" d="M36.931,8.565c-.523-.541-1.825-1.319-5.065-1.951a82.966,82.966,0,0,0-14.984-1.05h-.335L14.916,0H3.45A3.593,3.593,0,0,0,0,3.733V28.245a3.577,3.577,0,0,0,3.589,3.447h13.19l1.91,5.592H33.707l.142,0h.005a3.584,3.584,0,0,0,3.43-3.733V9.275a1,1,0,0,0-.353-.709M17.06,21.025a4.111,4.111,0,0,1-.225,1.4,3.01,3.01,0,0,1-.648,1.069,2.794,2.794,0,0,1-1.037.685,3.83,3.83,0,0,1-1.395.24,6.716,6.716,0,0,1-.968-.067,7.914,7.914,0,0,1-.852-.162V22.673a3.99,3.99,0,0,0,.8.269,4.033,4.033,0,0,0,.939.1,1.658,1.658,0,0,0,1.312-.511,2.067,2.067,0,0,0,.45-1.413,2.485,2.485,0,0,0-.167-.959,1.527,1.527,0,0,0-.5-.637,2.139,2.139,0,0,0-.815-.355,5.094,5.094,0,0,0-1.115-.11H11.041v.968a5.7,5.7,0,0,1-.311,2.008A3.382,3.382,0,0,1,9.791,23.4a3.858,3.858,0,0,1-1.4.757,6.291,6.291,0,0,1-1.883.259,5.832,5.832,0,0,1-1.9-.282,4.021,4.021,0,0,1-1.371-.771A3.161,3.161,0,0,1,2.4,22.225a3.5,3.5,0,0,1-.279-1.39,3.211,3.211,0,0,1,.364-1.6A2.751,2.751,0,0,1,3.5,18.209a3.71,3.71,0,0,1,.47-.241,3.34,3.34,0,0,1,.537-.172V12.734h10.9v1.408H11.041v3.518h1.812a7.623,7.623,0,0,1,1.735.178,3.791,3.791,0,0,1,1.285.541,2.8,2.8,0,0,1,.881,1.073,3.683,3.683,0,0,1,.311,1.573ZM35.428,33.62a1.842,1.842,0,0,1-1.831,1.8H20.555l3.727-3.733L22.746,26.47c-1.585-4.981-1.856-5.94-1.877-6.07A45.954,45.954,0,0,1,19.3,15.008l-2.142-7.6v0H33.631a1.835,1.835,0,0,1,1.8,1.866Z" transform="translate(0)" fill="#fff"/>
      </g>
    </g>
  </g>
</svg>
