<svg xmlns="http://www.w3.org/2000/svg" xmlns:xlink="http://www.w3.org/1999/xlink" width="40" height="40" viewBox="0 0 40 40">
  <defs>
    <clipPath id="clip-path">
      <path id="Path_93" data-name="Path 93" d="M18.278,38.067l3.638-3.274,3.456-2.667-3.759-15.7L18.278,8.057l-.93-.595L16.6,5.144,15.095,0H-.776L-1.25,26.573l1.028,5.554Z" transform="translate(1.25)" fill="#fff"/>
    </clipPath>
  </defs>
  <g id="Lang_English" data-name="Lang English" transform="translate(-4474 23732)">
    <g id="Rectangle_2714" data-name="Rectangle 2714" transform="translate(4474 -23732)" fill="none" stroke="#707070" stroke-width="1" opacity="0">
      <rect width="40" height="40" stroke="none"/>
      <rect x="0.5" y="0.5" width="39" height="39" fill="none"/>
    </g>
    <g id="Lang_English-2" data-name="Lang English" transform="translate(4474.105 -23730.633)">
      <path id="Path_89" data-name="Path 89" d="M28.024,20.005a4.142,4.142,0,0,1-.226,1.41,3.03,3.03,0,0,1-.653,1.077,2.819,2.819,0,0,1-1.047.691,3.871,3.871,0,0,1-1.406.241,6.929,6.929,0,0,1-.976-.068,8.051,8.051,0,0,1-.859-.163V21.666a4.024,4.024,0,0,0,.8.271,4.1,4.1,0,0,0,.947.106,1.671,1.671,0,0,0,1.323-.517,2.083,2.083,0,0,0,.454-1.424,2.49,2.49,0,0,0-.168-.967,1.529,1.529,0,0,0-.5-.642,2.151,2.151,0,0,0-.821-.357,5.081,5.081,0,0,0-1.125-.111H21.957V19a5.751,5.751,0,0,1-.309,2.024A3.41,3.41,0,0,1,20.7,22.4a3.889,3.889,0,0,1-1.415.763,6.346,6.346,0,0,1-1.9.261,5.9,5.9,0,0,1-1.918-.284,4.067,4.067,0,0,1-1.381-.778,3.192,3.192,0,0,1-.836-1.15,3.531,3.531,0,0,1-.281-1.4A3.241,3.241,0,0,1,13.34,18.2a2.766,2.766,0,0,1,1.024-1.037,3.7,3.7,0,0,1,.474-.242,3.345,3.345,0,0,1,.542-.173v-5.1H26.363v1.42H21.957v3.545h1.826a7.659,7.659,0,0,1,1.748.179,3.791,3.791,0,0,1,1.295.545,2.812,2.812,0,0,1,.888,1.082,3.7,3.7,0,0,1,.309,1.585m-7.65-1.981H16.887a2.941,2.941,0,0,0-1.692.406,1.525,1.525,0,0,0-.579,1.343,2.167,2.167,0,0,0,.178.889,1.842,1.842,0,0,0,.537.695,2.59,2.59,0,0,0,.888.454,4.152,4.152,0,0,0,1.228.164,3.032,3.032,0,0,0,2.207-.71,3.09,3.09,0,0,0,.72-2.275Zm0-4.956h-3.42v3.545h3.42Z" transform="translate(4.374 2.755)" fill="#fff"/>
      <g id="Mask_Group_9" data-name="Mask Group 9" transform="translate(0 0)" clip-path="url(#clip-path)">
        <path id="Subtraction_1" data-name="Subtraction 1" d="M33.972,37.579l-.143,0H18.838L16.913,31.94H3.761l-.146,0A3.607,3.607,0,0,1,0,28.468c0-.095,0-.19,0-.285V3.76A3.622,3.622,0,0,1,3.475,0l.143,0,.143,0H15.033L16.677,5.61h.338a83.641,83.641,0,0,1,15.1,1.057c3.266.638,4.579,1.422,5.105,1.967a1.009,1.009,0,0,1,.355.715V33.819a3.613,3.613,0,0,1-3.462,3.757ZM17.288,7.471l2.159,7.656a46.427,46.427,0,0,0,1.585,5.436c.02.13.293,1.1,1.891,6.118l1.549,5.26L20.716,35.7h13.14A1.856,1.856,0,0,0,35.7,33.882V9.349A1.848,1.848,0,0,0,33.89,7.471h-16.6ZM8.133,20.586h5.153l1.224,3.768H16.4L11.855,10.869H9.645L5.1,24.354H6.91l1.222-3.767Zm4.656-1.53H8.631L10.705,12.7l2.083,6.356Z" transform="translate(1.304 0)" fill="#fff"/>
      </g>
      <path id="Path_92" data-name="Path 92" d="M20.89,3.584V28.216a3.618,3.618,0,0,1-3.459,3.762H2.153l-.021-.052L4.055,30.1H17.17a1.868,1.868,0,0,0,1.85-1.818V3.741A1.851,1.851,0,0,0,17.212,1.86H.564L0,0H17.253A3.608,3.608,0,0,1,20.89,3.584" transform="translate(18.034 5.602)" fill="#fff"/>
      <rect id="Rectangle_152" data-name="Rectangle 152" width="37.621" height="37.621" transform="translate(1.307 0)" fill="#fff" opacity="0"/>
    </g>
  </g>
</svg>
