<svg xmlns="http://www.w3.org/2000/svg" width="52" height="52" viewBox="0 0 52 52">
  <g id="Group_310" data-name="Group 310" transform="translate(-424 -701)">
    <circle id="Ellipse_11" data-name="Ellipse 11" cx="26" cy="26" r="26" transform="translate(424 701)" fill="#f2b705" opacity="0.1"/>
    <g id="Group_309" data-name="Group 309" transform="translate(-53 -4)">
      <rect id="Rectangle_155" data-name="Rectangle 155" width="30" height="30" transform="translate(488 716)" fill="none"/>
      <g id="Group_308" data-name="Group 308" transform="translate(477.773 705.797)">
        <path id="Union_5" data-name="Union 5" d="M.04,24.592a41.707,41.707,0,0,1,.106-5.578A3.1,3.1,0,0,1,1.47,16.749c1.061-.733,2.158-1.405,3.247-2.094.544-.344,1.1-.674,1.654-.993a.408.408,0,0,0,.226-.42c-.015-.569,0-1.139-.028-1.706a1.539,1.539,0,0,0-.192-.662,4.848,4.848,0,0,1-.7-2.564c.019-1.541.043-3.083,0-4.622A2.613,2.613,0,0,1,8.16,1.047c.661.025,1.326-.053,1.988-.094A3.012,3.012,0,0,0,10.673.87a.46.46,0,0,0,.385-.5c-.02-.316.126-.356.387-.365,1.627-.06,2.545,1.258,2.576,2.807q.038,1.869.021,3.739c0,.309.088.369.363.369q5.624-.011,11.246,0c.618,0,1.234.022,1.851.046.479.019.534.067.543.6.027,1.423.048,2.846.05,4.269.009,3.15,0,6.3.006,9.451v.379c.354,0,.686,0,1.019,0a2.715,2.715,0,0,1,.446.028.52.52,0,0,1,.428.617,2.346,2.346,0,0,1-2.067,2.157c-1.416.085-2.839.116-4.259.119q-11.68.024-23.36.023C.218,24.609.129,24.6.04,24.592Zm19.624-1.346c-.006.262.058.354.325.352.725-.007,1.452-.007,2.179-.006.693,0,1.387,0,2.081,0,1.194-.01,2.391-.031,3.585-.076.43-.016.666-.365.923-.767-.287-.021-.517-.053-.745-.053q-3.895-.013-7.79-.016C19.668,22.675,19.679,22.675,19.665,23.246ZM4.719,20.95c.005.765.033,1.53.033,2.3,0,.259.061.352.327.349,1.327-.014,2.656-.006,3.983-.006h.329c.006-.137.014-.243.014-.348q0-2.518,0-5.035a.751.751,0,0,0-1.042-.728c-.3.137-.588.3-.884.445a4.037,4.037,0,0,1-.6.255.9.9,0,0,1-1.17-1.057c.074-.5.216-.994.328-1.49.052-.232.1-.465.167-.734a1.011,1.011,0,0,0-.155.053c-1.366.868-2.751,1.708-4.09,2.621a2.058,2.058,0,0,0-.884,1.609C1.011,20.551,1,21.926.972,23.3a2.024,2.024,0,0,0,.018.25.568.568,0,0,0,.1.032c.833,0,1.665,0,2.5.009.2,0,.2-.126.2-.269q0-1.046,0-2.091v-.6c.26.016.475.044.687.038h.018C4.671,20.67,4.718,20.76,4.719,20.95Zm5.654-2.76q0,2.516,0,5.033c0,.113.008.227.014.346h4.651V20.694l.954-.059V23.56H18.8c0-.144,0-.261,0-.378-.019-1.167-.045-2.334-.056-3.5a2.7,2.7,0,0,0-1.282-2.4c-1.151-.731-2.322-1.426-3.486-2.133a2.477,2.477,0,0,0-.276-.123c.033.163.049.275.08.383.143.509.281,1.017.437,1.521a.963.963,0,0,1-.274,1.04.836.836,0,0,1-.986.187c-.525-.231-1.048-.467-1.573-.7a.631.631,0,0,0-.255-.054A.793.793,0,0,0,10.373,18.19Zm3.675-9.928a4.635,4.635,0,0,1-.653,2.519,1.591,1.591,0,0,0-.195.691c-.019.627,0,1.255.022,1.884a.453.453,0,0,0,.2.3c.439.281.895.531,1.338.805,1.127.7,2.27,1.37,3.371,2.109a3.32,3.32,0,0,1,1.512,2.973c-.01.686,0,1.372,0,2.063h7.544V7.94c-.079,0-.17-.013-.261-.013q-6.283,0-12.565,0C14.1,7.925,14.037,8.012,14.048,8.262ZM7.154,15.124q-.275,1.05-.549,2.1l.067.048,1.463-.824-.878-1.34C7.223,15.115,7.189,15.119,7.154,15.124Zm4.518,1.387,1.516.7.081-.08c-.167-.621-.334-1.242-.522-1.949C12.354,15.669,12.027,16.072,11.673,16.511Zm-4.1-3.2a2.375,2.375,0,0,0,.314,1.174A11.26,11.26,0,0,0,9.634,16.77c.188.2.332.184.518,0a9.65,9.65,0,0,0,1.963-2.508.855.855,0,0,0,.091-.36c0-.471-.007-.94-.017-1.411a2.722,2.722,0,0,0-.047-.324,4.215,4.215,0,0,1-4.572.013C7.569,12.593,7.571,12.955,7.569,13.315Zm.417-7.506a3.56,3.56,0,0,1-.773.718,1.042,1.042,0,0,0-.578,1.385c0,.26,0,.487,0,.712a3.2,3.2,0,0,0,.688,1.916,3.12,3.12,0,0,0,5.2-.146,4.938,4.938,0,0,0,.646-2.756c-.008-.714-.231-.992-.9-1.04-.688-.05-1.382-.067-2.072-.062a2.242,2.242,0,0,1-1.842-.748.232.232,0,0,0-.168-.1A.314.314,0,0,0,7.986,5.809ZM8.337,4.6a1.434,1.434,0,0,1,.215.231,1.6,1.6,0,0,0,1.256.664,12.336,12.336,0,0,1,3.41.337c-.051-1.184-.069-2.292-.163-3.394A1.9,1.9,0,0,0,12.63,1.5a1.835,1.835,0,0,0-.707-.421.3.3,0,0,0-.271.119,1.371,1.371,0,0,1-1.247.759c-.793.057-1.587.078-2.381.119A1.36,1.36,0,0,0,6.7,3.274C6.613,4.081,6.632,4.9,6.61,5.71c0,.01.026.022.1.078.306-.369.622-.74.927-1.119.131-.164.243-.246.364-.246A.549.549,0,0,1,8.337,4.6ZM11.7,22.629a.437.437,0,0,1-.417-.453.459.459,0,1,1,.916-.026.5.5,0,0,1-.488.48Zm-.422-2.435a.529.529,0,0,1,.485-.474.457.457,0,0,1,.439.471.412.412,0,0,1-.431.43h-.008A.5.5,0,0,1,11.279,20.194Z" transform="translate(10.227 13.203)" fill="#050505"/>
      </g>
    </g>
  </g>
</svg>
