<svg xmlns="http://www.w3.org/2000/svg" width="11.756" height="17.25" viewBox="0 0 11.756 17.25">
  <path id="Path_121" data-name="Path 121" d="M.793,13.876A9.541,9.541,0,0,1,4.2,10.241,24.934,24.934,0,0,0,7.222,7.85,3.535,3.535,0,0,0,8.276,5.387a2.729,2.729,0,0,0-.6-1.811,2.126,2.126,0,0,0-1.729-.723A2.109,2.109,0,0,0,3.847,4a5.7,5.7,0,0,0-.378,2.108H.189a8.275,8.275,0,0,1,.794-3.54A4.948,4.948,0,0,1,5.784,0a6.085,6.085,0,0,1,4.337,1.51,5.217,5.217,0,0,1,1.612,4,5.4,5.4,0,0,1-1.139,3.386,11.329,11.329,0,0,1-2.455,2.19l-1.353.959q-1.269.9-1.736,1.3a3.826,3.826,0,0,0-.788.935h7.494V17.25H0a8.068,8.068,0,0,1,.793-3.374" fill="#050505"/>
</svg>
