<svg xmlns="http://www.w3.org/2000/svg" width="14.545" height="21.344" viewBox="0 0 14.545 21.344">
  <path id="Path_121" data-name="Path 121" d="M.981,17.168a11.8,11.8,0,0,1,4.219-4.5A30.849,30.849,0,0,0,8.935,9.712a4.374,4.374,0,0,0,1.3-3.047,3.376,3.376,0,0,0-.747-2.241A2.631,2.631,0,0,0,7.353,3.53,2.61,2.61,0,0,0,4.76,4.951a7.048,7.048,0,0,0-.468,2.608H.234a10.238,10.238,0,0,1,.982-4.38Q2.889,0,7.156,0a7.529,7.529,0,0,1,5.366,1.868,6.455,6.455,0,0,1,1.994,4.944A6.686,6.686,0,0,1,13.107,11a14.017,14.017,0,0,1-3.037,2.71L8.4,14.9q-1.57,1.115-2.148,1.612a4.734,4.734,0,0,0-.975,1.157h9.272v3.677H0a9.983,9.983,0,0,1,.981-4.175" fill="#050505"/>
</svg>
