<svg xmlns="http://www.w3.org/2000/svg" width="12.148" height="18.102" viewBox="0 0 12.148 18.102">
  <path id="Path_127" data-name="Path 127" d="M3.4,12.269a3.954,3.954,0,0,0,.339,1.746A2.318,2.318,0,0,0,6.02,15.288a2.532,2.532,0,0,0,1.772-.7,2.6,2.6,0,0,0,.756-2.007,2.261,2.261,0,0,0-1.4-2.316,7.086,7.086,0,0,0-2.514-.328V7.468a6.5,6.5,0,0,0,2.344-.327A2.025,2.025,0,0,0,8.124,5.079a2.3,2.3,0,0,0-.587-1.636,2.143,2.143,0,0,0-1.65-.631,2.087,2.087,0,0,0-1.8.776,3.294,3.294,0,0,0-.55,2.073H.315A8.7,8.7,0,0,1,.763,3.177,5.6,5.6,0,0,1,2.1,1.273,4.652,4.652,0,0,1,3.706.327,6.98,6.98,0,0,1,6,0a6.085,6.085,0,0,1,4.063,1.3A4.342,4.342,0,0,1,11.6,4.8a3.868,3.868,0,0,1-.921,2.619,3.144,3.144,0,0,1-1.213.909,2.488,2.488,0,0,1,1.357.813,4.336,4.336,0,0,1,1.322,3.346A5.64,5.64,0,0,1,10.6,16.41,5.887,5.887,0,0,1,6.032,18.1Q2.3,18.1.848,15.664A7.244,7.244,0,0,1,0,12.269Z" fill="#050505"/>
</svg>
