<svg xmlns="http://www.w3.org/2000/svg" width="14.678" height="21.869" viewBox="0 0 14.678 21.869">
  <path id="Path_127" data-name="Path 127" d="M4.1,14.824a4.778,4.778,0,0,0,.409,2.109,2.8,2.8,0,0,0,2.762,1.538,3.059,3.059,0,0,0,2.141-.841,3.136,3.136,0,0,0,.914-2.425,2.732,2.732,0,0,0-1.695-2.8,8.561,8.561,0,0,0-3.037-.4V9.023a7.849,7.849,0,0,0,2.832-.395A2.446,2.446,0,0,0,9.815,6.137,2.785,2.785,0,0,0,9.106,4.16,2.589,2.589,0,0,0,7.112,3.4a2.522,2.522,0,0,0-2.17.938,3.98,3.98,0,0,0-.664,2.505H.381a10.515,10.515,0,0,1,.541-3,6.764,6.764,0,0,1,1.61-2.3A5.62,5.62,0,0,1,4.478.4,8.433,8.433,0,0,1,7.244,0a7.352,7.352,0,0,1,4.909,1.575A5.246,5.246,0,0,1,14.019,5.8a4.674,4.674,0,0,1-1.113,3.164,3.8,3.8,0,0,1-1.465,1.1,3.006,3.006,0,0,1,1.64.982,5.239,5.239,0,0,1,1.6,4.043,6.814,6.814,0,0,1-1.866,4.739A7.112,7.112,0,0,1,7.288,21.87q-4.508,0-6.263-2.944A8.753,8.753,0,0,1,0,14.824Z" fill="#050505"/>
</svg>
