<svg xmlns="http://www.w3.org/2000/svg" width="14.766" height="21.898" viewBox="0 0 14.766 21.898">
  <path id="Path_142" data-name="Path 142" d="M.808,12.216a5.131,5.131,0,0,1,2.366-2.182A4.969,4.969,0,0,1,1.166,7.815,6.2,6.2,0,0,1,.7,5.581,5.208,5.208,0,0,1,2.45,1.633,6.947,6.947,0,0,1,7.383,0a6.945,6.945,0,0,1,4.932,1.633,5.208,5.208,0,0,1,1.747,3.948,6.23,6.23,0,0,1-.46,2.234,4.27,4.27,0,0,1-2,2.072,5.911,5.911,0,0,1,2.369,2.329,6.624,6.624,0,0,1,.8,3.238,6.052,6.052,0,0,1-1.987,4.562A7.746,7.746,0,0,1,7.229,21.9a7.2,7.2,0,0,1-5.4-1.883A6.3,6.3,0,0,1,0,15.454a6.535,6.535,0,0,1,.808-3.238m4.341,5.391a2.937,2.937,0,0,0,2.248.864,2.939,2.939,0,0,0,2.249-.864,3.412,3.412,0,0,0,.813-2.432,3.376,3.376,0,0,0-.827-2.467A2.99,2.99,0,0,0,7.4,11.865a2.987,2.987,0,0,0-2.233.843,3.376,3.376,0,0,0-.828,2.467,3.412,3.412,0,0,0,.813,2.432m.266-9.668a2.629,2.629,0,0,0,1.976.732,2.6,2.6,0,0,0,1.975-.732,2.627,2.627,0,0,0,.7-1.89,2.693,2.693,0,0,0-.7-1.97,2.648,2.648,0,0,0-1.975-.71,2.676,2.676,0,0,0-1.976.71A2.656,2.656,0,0,0,4.7,6.049a2.592,2.592,0,0,0,.713,1.89" fill="#f2f2f2"/>
</svg>
