<svg xmlns="http://www.w3.org/2000/svg" width="14.765" height="22.031" viewBox="0 0 14.765 22.031">
  <path id="Path_145" data-name="Path 145" d="M1.97,2.117A6.674,6.674,0,0,1,7.09,0a6.613,6.613,0,0,1,6.65,4.292,16.7,16.7,0,0,1,1.025,6.4,18.224,18.224,0,0,1-.981,6.431Q11.909,22.032,6.9,22.031a7.018,7.018,0,0,1-4.292-1.414A5.568,5.568,0,0,1,.425,16.494h4.16a2.511,2.511,0,0,0,.791,1.524A2.453,2.453,0,0,0,7.09,18.6a2.978,2.978,0,0,0,2.9-2.286,13.31,13.31,0,0,0,.571-3.676,4.516,4.516,0,0,1-1.215,1.1,5.52,5.52,0,0,1-2.886.7,6.56,6.56,0,0,1-4.5-1.75A6.406,6.406,0,0,1,0,7.647a7.788,7.788,0,0,1,1.97-5.53m7.024,8.43A3.445,3.445,0,0,0,10.415,7.4a4.449,4.449,0,0,0-.843-2.857A2.791,2.791,0,0,0,7.265,3.486a2.871,2.871,0,0,0-1.831.6,3.8,3.8,0,0,0-1.2,3.179A4.416,4.416,0,0,0,5,10.1a2.869,2.869,0,0,0,2.366.945,2.92,2.92,0,0,0,1.626-.5" fill="#f2f2f2"/>
</svg>
