<svg xmlns="http://www.w3.org/2000/svg" width="14.678" height="21.518" viewBox="0 0 14.678 21.518">
  <path id="Path_133" data-name="Path 133" d="M4.16,15.278a4.025,4.025,0,0,0,.949,2.1,2.687,2.687,0,0,0,2.046.74,2.754,2.754,0,0,0,2.36-1.092,4.475,4.475,0,0,0,.812-2.746,4.78,4.78,0,0,0-.76-2.746A2.659,2.659,0,0,0,7.2,10.415a4.054,4.054,0,0,0-1.314.19,2.615,2.615,0,0,0-1.477,1.3L.666,11.733,2.156,0H13.843V3.545H5.168l-.76,4.643a8.734,8.734,0,0,1,1.507-.835,6.383,6.383,0,0,1,2.209-.337,6.629,6.629,0,0,1,4.593,1.773,6.594,6.594,0,0,1,1.961,5.156A8.1,8.1,0,0,1,12.79,19.2a6.863,6.863,0,0,1-5.65,2.314,7.5,7.5,0,0,1-4.975-1.626A6.319,6.319,0,0,1,0,15.278Z" fill="#f2f2f2"/>
</svg>
