<svg xmlns="http://www.w3.org/2000/svg" width="14.677" height="22.002" viewBox="0 0 14.677 22.002">
  <path id="Path_136" data-name="Path 136" d="M10.063,5.552a2.133,2.133,0,0,0-.395-1.128,2.293,2.293,0,0,0-2.036-1,3.011,3.011,0,0,0-2.9,2.285,14.2,14.2,0,0,0-.644,3.721,4.7,4.7,0,0,1,1.8-1.348,6.086,6.086,0,0,1,2.344-.424,6.088,6.088,0,0,1,4.637,1.919,6.865,6.865,0,0,1,1.808,4.907A8.282,8.282,0,0,1,12.9,19.732Q11.132,22,7.4,22a6.339,6.339,0,0,1-5.918-3.354A13.683,13.683,0,0,1,0,11.88,30.729,30.729,0,0,1,.2,7.925,12.093,12.093,0,0,1,1.626,3.414,7.258,7.258,0,0,1,4.007.938,6.417,6.417,0,0,1,7.529,0a6.978,6.978,0,0,1,4.717,1.516,5.767,5.767,0,0,1,1.977,4.036ZM5.112,17.52A2.942,2.942,0,0,0,7.456,18.6a2.6,2.6,0,0,0,2.19-1.047,4.362,4.362,0,0,0,.8-2.718,4.064,4.064,0,0,0-.908-2.848A2.907,2.907,0,0,0,7.309,11a2.968,2.968,0,0,0-1.889.645,3.646,3.646,0,0,0-1.231,3.076,4.167,4.167,0,0,0,.923,2.8" fill="#f2f2f2"/>
</svg>
