<svg xmlns="http://www.w3.org/2000/svg" width="52" height="52" viewBox="0 0 52 52">
  <g id="Group_311" data-name="Group 311" transform="translate(-424 -701)">
    <circle id="Ellipse_11" data-name="Ellipse 11" cx="26" cy="26" r="26" transform="translate(424 701)" fill="#f2b705" opacity="0.1"/>
    <g id="Group_309" data-name="Group 309" transform="translate(-53 -4)">
      <rect id="Rectangle_155" data-name="Rectangle 155" width="30" height="30" transform="translate(488 716)" fill="none"/>
      <g id="Group_308" data-name="Group 308" transform="translate(477.773 705.797)">
        <path id="Union_5" data-name="Union 5" d="M.04,24.593a41.883,41.883,0,0,1,.106-5.579A3.1,3.1,0,0,1,1.471,16.75c1.06-.733,2.158-1.406,3.246-2.094.544-.344,1.1-.673,1.654-.995a.407.407,0,0,0,.226-.418c-.016-.569,0-1.139-.029-1.706a1.535,1.535,0,0,0-.192-.661,4.871,4.871,0,0,1-.7-2.565c.02-1.541.043-3.082,0-4.622A2.614,2.614,0,0,1,8.16,1.046,19.867,19.867,0,0,0,10.148.953a2.974,2.974,0,0,0,.526-.084.457.457,0,0,0,.385-.5c-.02-.317.125-.356.388-.366,1.626-.059,2.545,1.259,2.576,2.809q.036,1.868.022,3.739c0,.31.087.369.363.369q5.621-.009,11.245,0c.617,0,1.234.023,1.85.046.48.018.535.068.545.6.026,1.423.047,2.846.05,4.269q.011,4.725,0,9.452v.378c.354,0,.687,0,1.019,0a2.65,2.65,0,0,1,.447.029.52.52,0,0,1,.428.616,2.349,2.349,0,0,1-2.067,2.158c-1.417.085-2.839.115-4.259.119q-11.68.024-23.359.022C.219,24.609.128,24.6.04,24.593Zm19.626-1.346c-.007.262.057.353.323.351.743-.008,1.485-.007,2.228-.006.677,0,1.355,0,2.032,0,1.2-.011,2.39-.031,3.585-.077.431-.016.667-.365.923-.766-.287-.022-.516-.053-.745-.054q-3.895-.012-7.791-.015h-.057C19.668,22.675,19.679,22.7,19.666,23.246ZM4.719,20.95c.005.765.034,1.531.033,2.3,0,.26.06.353.328.349,1.327-.014,2.654-.005,3.982-.005H9.39c.006-.137.015-.242.015-.347q0-2.518,0-5.035a.752.752,0,0,0-1.042-.729c-.3.138-.588.3-.885.445a4.02,4.02,0,0,1-.6.255.9.9,0,0,1-1.169-1.057c.075-.5.215-.994.327-1.49.052-.232.106-.465.167-.734a.944.944,0,0,0-.156.053c-1.366.868-2.75,1.709-4.09,2.62a2.057,2.057,0,0,0-.884,1.61C1.011,20.552,1,21.926.973,23.3a2.226,2.226,0,0,0,.018.25.408.408,0,0,0,.1.032c.832,0,1.664,0,2.5.009.2,0,.2-.126.2-.269q0-1.046,0-2.091v-.6c.261.016.474.045.687.039h.019C4.672,20.67,4.718,20.761,4.719,20.95Zm5.656-2.761q0,2.516,0,5.034c0,.114.01.228.014.347H15.04V20.694l.952-.059v2.926H18.8c0-.146,0-.262,0-.379-.019-1.167-.045-2.335-.056-3.5a2.7,2.7,0,0,0-1.282-2.4c-1.15-.731-2.322-1.425-3.487-2.133a2.668,2.668,0,0,0-.275-.122c.033.164.049.276.079.383.142.509.283,1.017.436,1.521a.961.961,0,0,1-.274,1.039.833.833,0,0,1-.986.188c-.526-.231-1.049-.467-1.574-.7a.625.625,0,0,0-.254-.054A.791.791,0,0,0,10.374,18.189Zm3.674-9.926a4.632,4.632,0,0,1-.653,2.518,1.568,1.568,0,0,0-.193.691c-.021.627,0,1.256.022,1.884a.455.455,0,0,0,.2.305c.439.28.9.531,1.338.8,1.128.7,2.269,1.37,3.371,2.109a3.323,3.323,0,0,1,1.513,2.974c-.011.686,0,1.372,0,2.062h7.542V7.941c-.077,0-.168-.013-.26-.013q-6.283,0-12.566,0h0C14.1,7.925,14.037,8.013,14.048,8.263Zm-6.893,6.86-.548,2.1.067.049,1.463-.825-.878-1.339Zm4.517,1.388,1.517.7.082-.079c-.167-.622-.334-1.243-.523-1.949Zm-4.1-3.2a2.343,2.343,0,0,0,.313,1.174,11.273,11.273,0,0,0,1.751,2.282c.189.2.332.183.517,0a9.635,9.635,0,0,0,1.964-2.507.837.837,0,0,0,.091-.361c0-.47-.006-.941-.017-1.41a2.751,2.751,0,0,0-.047-.324,4.216,4.216,0,0,1-4.572.014C7.57,12.594,7.571,12.954,7.57,13.315Zm.417-7.5a3.576,3.576,0,0,1-.773.717,1.042,1.042,0,0,0-.578,1.385c0,.26,0,.486,0,.711a3.2,3.2,0,0,0,.688,1.916,3.12,3.12,0,0,0,5.2-.145,4.936,4.936,0,0,0,.646-2.757c-.007-.713-.23-.992-.9-1.04-.688-.05-1.381-.067-2.071-.061a2.245,2.245,0,0,1-1.842-.748.23.23,0,0,0-.167-.1A.315.315,0,0,0,7.987,5.81ZM8.337,4.6a1.274,1.274,0,0,1,.214.231,1.607,1.607,0,0,0,1.257.664,12.314,12.314,0,0,1,3.41.336c-.05-1.184-.068-2.293-.162-3.395a1.9,1.9,0,0,0-.425-.938,1.829,1.829,0,0,0-.707-.421.294.294,0,0,0-.271.118,1.374,1.374,0,0,1-1.248.761c-.792.059-1.588.078-2.381.12A1.359,1.359,0,0,0,6.7,3.274C6.614,4.08,6.633,4.9,6.61,5.71c0,.011.026.022.1.077.308-.37.622-.74.927-1.118.132-.164.244-.246.364-.246A.547.547,0,0,1,8.337,4.6ZM11.7,22.628a.436.436,0,0,1-.417-.452.458.458,0,1,1,.428.452Zm-.42-2.434a.527.527,0,0,1,.484-.474.457.457,0,0,1,.439.471.412.412,0,0,1-.431.43h-.006A.5.5,0,0,1,11.28,20.194Z" transform="translate(10.227 13.203)" fill="#050505"/>
      </g>
      <rect id="Rectangle_158" data-name="Rectangle 158" width="8" height="3" rx="1.5" transform="translate(506 732)" fill="none" stroke="#050505" stroke-width="0.5"/>
      <g id="Group_318" data-name="Group 318" transform="translate(-180 -16)">
        <rect id="Rectangle_158-2" data-name="Rectangle 158" width="8" height="3" rx="1.5" transform="translate(686 744)" fill="none" stroke="#050505" stroke-width="0.5"/>
        <circle id="Ellipse_12" data-name="Ellipse 12" cx="0.5" cy="0.5" r="0.5" transform="translate(687 745)" fill="#050505"/>
        <circle id="Ellipse_13" data-name="Ellipse 13" cx="0.5" cy="0.5" r="0.5" transform="translate(689 745)" fill="#050505"/>
        <circle id="Ellipse_14" data-name="Ellipse 14" cx="0.5" cy="0.5" r="0.5" transform="translate(691 745)" fill="#050505"/>
      </g>
      <g id="Group_319" data-name="Group 319" transform="translate(507.622 734.502)">
        <path id="Union_7" data-name="Union 7" d="M4.421,5.471c-.516-.264-1.029-.534-1.542-.8a.488.488,0,0,1,.1-.914,1.037,1.037,0,0,1,.14-.021c-.027-.029-.047-.052-.067-.075Q2.271,2.879,1.491,2.1a.488.488,0,0,1-.108-.552.482.482,0,0,1,.477-.283.525.525,0,0,1,.357.175c.222.226.446.448.67.672.027.027.048.059.082.1.176-.4.4-.5.758-.352a.5.5,0,0,1,.279-.377.511.511,0,0,1,.467.019c.007-.019.015-.033.019-.05a.486.486,0,0,1,.82-.235c.451.442.9.883,1.341,1.342a1.759,1.759,0,0,1-.022,2.434,2,2,0,0,1-.918.6,1.9,1.9,0,0,1-.5.069A1.728,1.728,0,0,1,4.421,5.471Zm-1.574-1.4A.29.29,0,0,0,2.9,4.45a.519.519,0,0,0,.12.073l1.47.764a1.715,1.715,0,0,0,.736.194c.132-.022.264-.034.394-.065a1.744,1.744,0,0,0,.839-.528,1.572,1.572,0,0,0,0-2.248c-.167-.171-.336-.339-.505-.507-.256-.254-.51-.511-.767-.766a.294.294,0,1,0-.413.416c.075.076.149.15.224.224.089.089.182.18.27.272a.1.1,0,1,1-.135.14c-.029-.025-.056-.054-.083-.083-.2-.2-.4-.405-.606-.6a.294.294,0,1,0-.416.413c.088.093.18.18.27.272s.213.211.318.318a.094.094,0,0,1,0,.142.092.092,0,0,1-.141,0c-.016-.014-.031-.031-.047-.047-.246-.245-.489-.492-.736-.736a.3.3,0,0,0-.444-.007.293.293,0,0,0,.019.411c.211.214.421.424.635.637.048.048.076.1.023.159s-.1.042-.165-.022L2.631,2.133c-.2-.193-.388-.388-.583-.582a.294.294,0,0,0-.314-.074.273.273,0,0,0-.193.237.3.3,0,0,0,.107.268q.969.968,1.936,1.936c.048.047.1.1.044.165s-.113.034-.171,0c-.082-.042-.163-.086-.245-.124a.3.3,0,0,0-.12-.025A.29.29,0,0,0,2.847,4.071ZM1.682,3.486c0-.09,0-.181,0-.274V2.947a.1.1,0,0,1,.1-.115c.068,0,.1.048.1.116,0,.18,0,.36,0,.54,0,.065-.029.107-.1.109h0C1.715,3.6,1.682,3.553,1.682,3.486ZM.515,3.063C.463,3.006.482,2.952.532,2.9c.122-.123.243-.249.372-.367a.159.159,0,0,1,.126-.029c.027,0,.047.052.073.085a.592.592,0,0,1-.057.089C.922,2.8.8,2.927.676,3.052A.134.134,0,0,1,.584,3.1.09.09,0,0,1,.515,3.063ZM.375,1.894c-.085,0-.172,0-.258,0S0,1.85,0,1.785s.053-.1.119-.1c.174,0,.349,0,.523,0,.078,0,.124.045.124.105s-.048.1-.126.1H.375Zm2.152-.819a.1.1,0,0,1,0-.142c.13-.132.26-.264.394-.394A.341.341,0,0,1,3,.5c.029.019.07.033.081.06a.137.137,0,0,1-.008.115c-.13.14-.268.278-.408.411a.094.094,0,0,1-.066.029A.1.1,0,0,1,2.527,1.075ZM.919,1.054C.791.928.66.8.538.672A.16.16,0,0,1,.515.553C.521.524.566.505.595.48A.45.45,0,0,1,.683.528c.129.126.255.254.383.383a.1.1,0,0,1,.006.153A.1.1,0,0,1,1,1.1.122.122,0,0,1,.919,1.054ZM1.8.767C1.724.761,1.7.71,1.7.641V.127C1.7.048,1.743,0,1.8,0s.1.046.106.124,0,.172,0,.258,0,.17,0,.257-.037.128-.1.128Z" transform="translate(0.002 -0.001)" fill="#050505" stroke="#050505" stroke-width="0.15"/>
      </g>
    </g>
  </g>
</svg>
