<svg xmlns="http://www.w3.org/2000/svg" width="52" height="52" viewBox="0 0 52 52">
  <g id="Group_312" data-name="Group 312" transform="translate(-424 -701)">
    <circle id="Ellipse_11" data-name="Ellipse 11" cx="26" cy="26" r="26" transform="translate(424 701)" fill="#f2b705" opacity="0.1"/>
    <g id="Group_316" data-name="Group 316" transform="translate(-602 -241)">
      <rect id="Rectangle_157" data-name="Rectangle 157" width="30" height="30" transform="translate(1037 953)" fill="#fff" opacity="0"/>
      <g id="Group_317" data-name="Group 317" transform="translate(1040 953.001)">
        <path id="Union_6" data-name="Union 6" d="M4.212,27.189A11.931,11.931,0,0,1,2.18,11.219c-.4-.394-.807-.793-1.211-1.193C.729,9.789.491,9.551.255,9.31A.6.6,0,0,1,.242,8.4q.885-.894,1.78-1.781a.613.613,0,0,1,.959.008q.825.823,1.645,1.652a2.314,2.314,0,0,1,.2.249c.148-.1.256-.172.361-.245a11.747,11.747,0,0,1,4.883-1.939c.108-.019.174-.04.174-.172-.005-1.08,0-2.16-.005-3.24a.516.516,0,0,0-.021-.084c-.333,0-.667,0-1,0-.534,0-.738-.2-.738-.734,0-.49,0-.977,0-1.466A.583.583,0,0,1,9.12,0Q11.9,0,14.671,0a.6.6,0,0,1,.661.668c0,.514,0,1.031,0,1.547a.579.579,0,0,1-.6.623c-.214.006-.427.006-.64.006-.1,0-.192,0-.289,0-.074,0-.148.007-.229.01-.005.064-.012.11-.012.155,0,1.04,0,2.079,0,3.117,0,.116.012.188.156.211A11.738,11.738,0,0,1,18.894,8.47c.011.007.025.01.083.035.263-.271.537-.559.815-.84.342-.348.688-.692,1.034-1.038a.61.61,0,0,1,.957-.01q.9.883,1.78,1.779a.606.606,0,0,1-.021.93q-.872.881-1.75,1.751c-.047.049-.1.091-.161.144A11.912,11.912,0,0,1,4.212,27.189Zm-3.566-9.1A11.255,11.255,0,1,0,12.125,6.851h-.219A11.279,11.279,0,0,0,.646,18.092ZM.76,8.863l1.793,1.806c.589-.6,1.168-1.189,1.723-1.753-.6-.6-1.2-1.207-1.769-1.782C1.929,7.705,1.34,8.287.76,8.863ZM19.518,8.9c.576.586,1.155,1.176,1.715,1.749l1.822-1.808-1.74-1.723C20.718,7.713,20.109,8.316,19.518,8.9ZM10.883,3.078c.008.976.005,1.951.005,2.926v.211H12.9V2.847c-.609,0-1.2.007-1.789-.005h-.019C10.914,2.841,10.883,2.91,10.883,3.078ZM9.138,2.187h5.531V.662H9.138ZM2.7,18.244a9.2,9.2,0,1,1,9.447,9.062l-.237,0A9.215,9.215,0,0,1,2.7,18.244Zm.653-.159a8.551,8.551,0,1,0,8.563-8.534h0A8.556,8.556,0,0,0,3.354,18.085Zm6.7,4.722a1.416,1.416,0,1,1,2.832,0,1.387,1.387,0,0,1-1.431,1.436A1.372,1.372,0,0,1,10.053,22.807Zm.651,0a.736.736,0,0,0,.748.785.752.752,0,0,0,.783-.776.743.743,0,0,0-.762-.793h0A.734.734,0,0,0,10.7,22.809ZM10.071,20.8c0-.437-.031-.882,0-1.321a4.024,4.024,0,0,1,.95-2.158c.234-.3.484-.584.7-.9A2.01,2.01,0,0,0,12,15.813a.588.588,0,0,0-.466-.768A2.436,2.436,0,0,0,9.7,15.4c-.135.078-.262.176-.417.282-.254-.809-.5-1.6-.749-2.381-.037-.116.025-.157.109-.2a5.579,5.579,0,0,1,2.076-.706,5.447,5.447,0,0,1,2.55.164,2.893,2.893,0,0,1,1.714,4.01,6.233,6.233,0,0,1-1.227,1.721A2.687,2.687,0,0,0,13,19.7a7.7,7.7,0,0,0-.037.8c0,.095,0,.189,0,.3Zm2.113-.636c.142,0,.126-.1.129-.184a2.394,2.394,0,0,1,.313-1.207c.247-.4.557-.762.834-1.144a9.506,9.506,0,0,0,.86-1.225,2.208,2.208,0,0,0-1.529-3.3A4.919,4.919,0,0,0,10.5,13.09c-.411.089-.812.234-1.238.359.138.442.26.825.383,1.218.1-.039.182-.073.265-.1a3.241,3.241,0,0,1,1.476-.213,1.3,1.3,0,0,1,1.165,1.876,4.968,4.968,0,0,1-.714,1.123,5.827,5.827,0,0,0-.94,1.468,2.706,2.706,0,0,0-.172,1.345h.735Z" fill="#050505" stroke="#050505" stroke-width="0.25"/>
      </g>
    </g>
  </g>
</svg>
