<svg xmlns="http://www.w3.org/2000/svg" width="32" height="32" viewBox="0 0 32 32">
  <g id="Share" transform="translate(-1376 -1711)">
    <g id="Rectangle_2683" data-name="Rectangle 2683" transform="translate(1376 1711)" fill="#fff" stroke="#707070" stroke-width="1" opacity="0">
      <rect width="32" height="32" stroke="none"/>
      <rect x="0.5" y="0.5" width="31" height="31" fill="none"/>
    </g>
    <path id="share_FILL1_wght400_GRAD0_opsz48" d="M141.758,204.676a4.023,4.023,0,0,1-4.033-4.683,2.981,2.981,0,0,1,.161-.622l-10.861-6.309a4.1,4.1,0,0,1-1.326.986,3.707,3.707,0,0,1-1.613.376,4.086,4.086,0,1,1,1.577-7.85,4.327,4.327,0,0,1,1.362.932l10.861-6.237a2.552,2.552,0,0,1-.161-.57,3.661,3.661,0,0,1-.054-.613,4.093,4.093,0,1,1,4.086,4.086,4.791,4.791,0,0,1-1.6-.269,3.066,3.066,0,0,1-1.3-.878l-10.861,6.022a6.619,6.619,0,0,1,.125.663,4.62,4.62,0,0,1,.054.636,2.831,2.831,0,0,1-.054.538q-.054.278-.125.565l10.861,6.165a4.265,4.265,0,0,1,1.255-.806,4.184,4.184,0,0,1,1.649-.3,4.086,4.086,0,1,1,0,8.173Z" transform="translate(1259.078 1536.662)" fill="red"/>
  </g>
</svg>
