<svg xmlns="http://www.w3.org/2000/svg" xmlns:xlink="http://www.w3.org/1999/xlink" width="1106" height="498" viewBox="0 0 1106 498">
  <defs>
    <filter id="Subtraction_2" x="0" y="0" width="1106" height="498" filterUnits="userSpaceOnUse">
      <feOffset dy="3" input="SourceAlpha"/>
      <feGaussianBlur stdDeviation="3" result="blur"/>
      <feFlood flood-opacity="0.161"/>
      <feComposite operator="in" in2="blur"/>
      <feComposite in="SourceGraphic"/>
    </filter>
  </defs>
  <g transform="matrix(1, 0, 0, 1, 0, 0)" filter="url(#Subtraction_2)">
    <path id="Subtraction_2-2" data-name="Subtraction 2" d="M5521,11661H4453a10.011,10.011,0,0,1-10-10v-378.173a65.189,65.189,0,0,0,21.33,15.464,64.574,64.574,0,0,0,12.823,4.229,65.056,65.056,0,0,0,77.371-77.368,64.678,64.678,0,0,0-10.9-24.311,65.486,65.486,0,0,0-8.8-9.842H5521a10.011,10.011,0,0,1,10,10v460A10.011,10.011,0,0,1,5521,11661Z" transform="translate(-4434 -11175)" fill="#fff"/>
  </g>
</svg>
