<svg xmlns="http://www.w3.org/2000/svg" width="32" height="32" viewBox="0 0 32 32">
  <g id="Time" transform="translate(-1312 -1716)">
    <g id="Rectangle_2682" data-name="Rectangle 2682" transform="translate(1312 1716)" fill="#fff" stroke="#707070" stroke-width="1" opacity="0">
      <rect width="32" height="32" stroke="none"/>
      <rect x="0.5" y="0.5" width="31" height="31" fill="none"/>
    </g>
    <g id="Time-2" data-name="Time" transform="translate(1316.089 1716.992)">
      <path id="Union_6" data-name="Union 6" d="M4.215,27.2A11.938,11.938,0,0,1,2.182,11.225c-.4-.394-.807-.794-1.212-1.194C.73,9.795.492,9.557.255,9.316A.6.6,0,0,1,.242,8.4q.886-.895,1.781-1.782a.614.614,0,0,1,.959.008q.825.824,1.646,1.653a2.315,2.315,0,0,1,.2.249c.149-.1.256-.172.362-.245a11.753,11.753,0,0,1,4.886-1.94c.108-.019.174-.04.174-.172-.005-1.08,0-2.161-.005-3.242a.517.517,0,0,0-.021-.084c-.333,0-.668,0-1,0-.534,0-.738-.2-.738-.734,0-.49,0-.978,0-1.467A.583.583,0,0,1,9.125,0Q11.9,0,14.68,0a.6.6,0,0,1,.661.669c0,.514,0,1.032,0,1.548a.58.58,0,0,1-.6.623c-.214.006-.427.006-.64.006-.1,0-.192,0-.289,0-.074,0-.149.007-.23.01-.005.064-.012.11-.012.155,0,1.04,0,2.08,0,3.119,0,.116.012.189.156.211A11.744,11.744,0,0,1,18.9,8.475c.011.007.025.01.083.035.263-.272.537-.559.816-.84.342-.348.688-.693,1.035-1.039a.61.61,0,0,1,.958-.01q.9.884,1.781,1.78a.606.606,0,0,1-.021.93q-.872.882-1.751,1.752c-.047.049-.1.091-.161.144A11.918,11.918,0,0,1,4.215,27.2ZM.647,18.1A11.261,11.261,0,1,0,12.132,6.855h-.219A11.285,11.285,0,0,0,.647,18.1ZM.761,8.868l1.794,1.807c.589-.6,1.169-1.19,1.724-1.754-.6-.6-1.2-1.208-1.77-1.783C1.93,7.71,1.341,8.292.761,8.868Zm18.768.039c.576.586,1.155,1.177,1.716,1.749l1.823-1.809L21.327,7.123C20.729,7.718,20.12,8.321,19.529,8.907ZM10.889,3.08c.008.976.005,1.952.005,2.927v.211H12.9V2.849c-.61,0-1.2.007-1.79-.005h-.019C10.92,2.843,10.889,2.912,10.889,3.08ZM9.144,2.189h5.534V.663H9.144ZM2.7,18.254a9.209,9.209,0,1,1,9.452,9.067l-.237,0A9.22,9.22,0,0,1,2.7,18.254Zm.654-.159a8.556,8.556,0,1,0,8.568-8.538h0A8.561,8.561,0,0,0,3.356,18.1Zm6.7,4.724a1.417,1.417,0,1,1,2.833,0,1.388,1.388,0,0,1-1.431,1.437A1.373,1.373,0,0,1,10.059,22.819Zm.651,0a.736.736,0,0,0,.748.785.752.752,0,0,0,.783-.777.743.743,0,0,0-.763-.794h0A.734.734,0,0,0,10.71,22.821Zm-.633-2.008c0-.437-.031-.883,0-1.322a4.026,4.026,0,0,1,.951-2.159c.235-.3.484-.584.7-.9a2.011,2.011,0,0,0,.277-.613.588.588,0,0,0-.467-.768,2.437,2.437,0,0,0-1.837.351c-.135.078-.262.176-.417.282-.255-.809-.5-1.6-.749-2.383-.037-.116.025-.157.109-.2a5.582,5.582,0,0,1,2.077-.706,5.45,5.45,0,0,1,2.552.164,2.894,2.894,0,0,1,1.715,4.012,6.237,6.237,0,0,1-1.227,1.722,2.689,2.689,0,0,0-.757,1.416,7.7,7.7,0,0,0-.037.8c0,.095,0,.19,0,.3Zm2.114-.637c.142,0,.127-.1.129-.184a2.4,2.4,0,0,1,.313-1.208c.247-.4.557-.763.834-1.145a9.511,9.511,0,0,0,.861-1.226,2.209,2.209,0,0,0-1.53-3.306,4.922,4.922,0,0,0-2.29-.011c-.411.089-.812.234-1.239.36.138.442.26.826.384,1.219.1-.039.182-.073.265-.1A3.242,3.242,0,0,1,11.4,14.36a1.3,1.3,0,0,1,1.166,1.877,4.971,4.971,0,0,1-.714,1.123,5.831,5.831,0,0,0-.941,1.469,2.708,2.708,0,0,0-.172,1.345h.735Z" transform="translate(0 -0.001)" fill="#f2b705" stroke="#f2b705" stroke-linejoin="round" stroke-width="0.25"/>
    </g>
  </g>
</svg>
