<svg xmlns="http://www.w3.org/2000/svg" width="96" height="70" viewBox="0 0 96 70">
  <g id="time" transform="translate(-1032.125 -34)">
    <rect id="Rectangle_245" data-name="Rectangle 245" width="96" height="70" rx="4" transform="translate(1032.125 34)" fill="#f2f2f2" opacity="0.1"/>
    <g id="Group_6832" data-name="Group 6832" transform="translate(1049.903 65.689)">
      <rect id="Rectangle_246" data-name="Rectangle 246" width="64" height="30" rx="4" transform="translate(0.222 0.311)" fill="#f2b705"/>
      <text id="_100_sec" data-name="100 sec" transform="translate(32.222 20.311)" fill="#050505" font-size="14" font-family="Poppins-SemiBold, Poppins" font-weight="600"><tspan x="-25" y="0">100 sec</tspan></text>
    </g>
    <g id="Group_6834" data-name="Group 6834" transform="translate(1044.125 39.077)">
      <text id="Time_Left" data-name="Time Left" transform="translate(22.699 14.332)" fill="#f2f2f2" font-size="12" font-family="Poppins-Regular, Poppins"><tspan x="0" y="0">Time Left</tspan></text>
      <g id="Group_6833" data-name="Group 6833" transform="translate(0 0)">
        <path id="Union_6" data-name="Union 6" d="M2.938,18.965A8.322,8.322,0,0,1,1.521,7.825c-.28-.275-.563-.553-.845-.832-.167-.165-.333-.331-.5-.5a.421.421,0,0,1-.009-.637Q.787,5.234,1.41,4.615a.428.428,0,0,1,.669.006q.575.574,1.147,1.152a1.614,1.614,0,0,1,.137.173l.252-.171A8.193,8.193,0,0,1,7.021,4.423c.076-.013.122-.028.122-.12,0-.753,0-1.507,0-2.26a.36.36,0,0,0-.015-.059c-.232,0-.466,0-.7,0-.372,0-.515-.142-.515-.512,0-.342,0-.681,0-1.023A.407.407,0,0,1,6.361,0Q8.3,0,10.233,0a.416.416,0,0,1,.461.466c0,.359,0,.719,0,1.079a.4.4,0,0,1-.416.435c-.15,0-.3,0-.446,0-.067,0-.134,0-.2,0-.052,0-.1,0-.16.007,0,.045-.008.077-.008.108,0,.725,0,1.45,0,2.174,0,.081.009.131.109.147a8.187,8.187,0,0,1,3.609,1.485c.008,0,.018.007.058.025.184-.189.374-.39.569-.586.239-.243.48-.483.721-.724a.425.425,0,0,1,.668-.007q.625.616,1.241,1.241a.422.422,0,0,1-.015.648q-.608.615-1.221,1.222c-.033.034-.07.064-.112.1A8.308,8.308,0,0,1,2.938,18.965ZM.451,12.619a7.85,7.85,0,1,0,8.006-7.84H8.3A7.867,7.867,0,0,0,.451,12.619ZM.53,6.182,1.781,7.441l1.2-1.223L1.749,4.976C1.346,5.375.935,5.781.53,6.182Zm13.083.027,1.2,1.22,1.271-1.261-1.213-1.2C14.451,5.38,14.026,5.8,13.614,6.209ZM7.591,2.147c.006.68,0,1.361,0,2.041v.147H9V1.986c-.425,0-.836,0-1.248,0H7.734C7.613,1.982,7.591,2.03,7.591,2.147ZM6.374,1.526h3.858V.462H6.374Zm-4.49,11.2a6.42,6.42,0,1,1,6.589,6.321l-.166,0A6.428,6.428,0,0,1,1.884,12.725Zm.456-.111A5.964,5.964,0,1,0,8.312,6.662h0A5.968,5.968,0,0,0,2.339,12.614Zm4.673,3.293a.988.988,0,1,1,1.975,0,.967.967,0,0,1-1,1A.957.957,0,0,1,7.012,15.908Zm.454,0a.513.513,0,0,0,.522.547.524.524,0,0,0,.546-.542A.518.518,0,0,0,8,15.361H8A.512.512,0,0,0,7.466,15.909Zm-.441-1.4c0-.3-.021-.615,0-.922a2.806,2.806,0,0,1,.663-1.505c.163-.207.338-.407.486-.625a1.4,1.4,0,0,0,.193-.427.41.41,0,0,0-.325-.535,1.7,1.7,0,0,0-1.281.245c-.094.054-.183.123-.291.2-.177-.564-.348-1.114-.522-1.661-.026-.081.017-.109.076-.142a3.891,3.891,0,0,1,1.448-.492,3.8,3.8,0,0,1,1.779.114,2.018,2.018,0,0,1,1.2,2.8,4.348,4.348,0,0,1-.856,1.2,1.874,1.874,0,0,0-.528.987,5.366,5.366,0,0,0-.026.56c0,.066,0,.132,0,.209ZM8.5,14.066c.1,0,.088-.067.09-.128a1.67,1.67,0,0,1,.218-.842c.172-.279.389-.532.582-.8a6.63,6.63,0,0,0,.6-.854,1.54,1.54,0,0,0-1.066-2.3,3.431,3.431,0,0,0-1.6-.008c-.287.062-.566.163-.864.251.1.308.181.576.267.85.069-.027.127-.051.185-.072a2.26,2.26,0,0,1,1.03-.148.9.9,0,0,1,.813,1.309,3.465,3.465,0,0,1-.5.783A4.065,4.065,0,0,0,7.6,13.127a1.887,1.887,0,0,0-.12.938H8.5Z" transform="translate(0 0)" fill="#f2b705" stroke="#f2b705" stroke-linejoin="round" stroke-width="0.25"/>
      </g>
    </g>
  </g>
</svg>
