<svg xmlns="http://www.w3.org/2000/svg" width="46" height="46" viewBox="0 0 46 46">
  <g id="Twitter" transform="translate(-944 -2440)">
    <circle id="Ellipse_7" data-name="Ellipse 7" cx="23" cy="23" r="23" transform="translate(944 2440)" fill="#f2f2f2"/>
    <path id="Icon_awesome-twitter" data-name="Icon awesome-twitter" d="M20.4,7.984c.014.2.014.4.014.606A13.171,13.171,0,0,1,7.157,21.852,13.172,13.172,0,0,1,0,19.759a9.642,9.642,0,0,0,1.126.058,9.335,9.335,0,0,0,5.787-1.991,4.669,4.669,0,0,1-4.358-3.232,5.878,5.878,0,0,0,.88.072,4.93,4.93,0,0,0,1.227-.159A4.662,4.662,0,0,1,.924,9.932V9.874a4.694,4.694,0,0,0,2.107.592A4.668,4.668,0,0,1,1.587,4.232,13.249,13.249,0,0,0,11.2,9.11a5.262,5.262,0,0,1-.115-1.068,4.665,4.665,0,0,1,8.067-3.189,9.177,9.177,0,0,0,2.958-1.126A4.648,4.648,0,0,1,20.058,6.3a9.344,9.344,0,0,0,2.684-.721A10.019,10.019,0,0,1,20.4,7.984Z" transform="translate(956 2450.619)" opacity="0.45"/>
  </g>
</svg>
