<svg xmlns="http://www.w3.org/2000/svg" width="44" height="44" viewBox="0 0 44 44">
  <g id="Group_399" data-name="Group 399" transform="translate(-0.087)">
    <circle id="Ellipse_7" data-name="Ellipse 7" cx="22" cy="22" r="22" transform="translate(0.087)" fill="#f2f2f2"/>
    <path id="Icon_awesome-twitter" data-name="Icon awesome-twitter" d="M19.517,7.784c.014.193.014.387.014.58A12.6,12.6,0,0,1,6.846,21.049a12.6,12.6,0,0,1-6.846-2,9.223,9.223,0,0,0,1.077.055,8.929,8.929,0,0,0,5.535-1.9,4.466,4.466,0,0,1-4.169-3.092,5.622,5.622,0,0,0,.842.069,4.715,4.715,0,0,0,1.173-.152A4.459,4.459,0,0,1,.883,9.647V9.592a4.49,4.49,0,0,0,2.015.566A4.465,4.465,0,0,1,1.518,4.2a12.673,12.673,0,0,0,9.193,4.665,5.033,5.033,0,0,1-.11-1.021,4.463,4.463,0,0,1,7.716-3.05,8.778,8.778,0,0,0,2.83-1.077,4.446,4.446,0,0,1-1.96,2.457,8.938,8.938,0,0,0,2.567-.69,9.584,9.584,0,0,1-2.236,2.305Z" transform="translate(11.478 10.01)" fill="#050505"/>
  </g>
</svg>
