<svg xmlns="http://www.w3.org/2000/svg" width="22" height="22" viewBox="0 0 22 22">
  <g id="Whatsapp" transform="translate(-4178 -1500)">
    <rect id="Rectangle_150" data-name="Rectangle 150" width="22" height="22" transform="translate(4178 1500)" fill="none" opacity="0"/>
    <path id="Icon_awesome-whatsapp" data-name="Icon awesome-whatsapp" d="M17.158,5.183A10,10,0,0,0,1.419,17.25L0,22.431l5.3-1.392a9.97,9.97,0,0,0,4.779,1.216h0a10.1,10.1,0,0,0,10.095-10,10.04,10.04,0,0,0-3.023-7.072ZM10.086,20.57a8.3,8.3,0,0,1-4.234-1.158l-.3-.18-3.144.824.838-3.068-.2-.315a8.328,8.328,0,1,1,15.446-4.419,8.4,8.4,0,0,1-8.406,8.316Zm4.559-6.225c-.248-.126-1.478-.73-1.707-.811s-.4-.126-.563.126-.644.811-.793.982-.293.189-.541.063a6.8,6.8,0,0,1-3.4-2.973c-.257-.441.257-.41.734-1.365a.463.463,0,0,0-.023-.437c-.063-.126-.563-1.356-.77-1.856s-.41-.419-.563-.428-.311-.009-.477-.009a.926.926,0,0,0-.667.311A2.808,2.808,0,0,0,5,10.034,4.9,4.9,0,0,0,6.018,12.62a11.166,11.166,0,0,0,4.27,3.775,4.89,4.89,0,0,0,3,.626,2.559,2.559,0,0,0,1.685-1.189,2.09,2.09,0,0,0,.144-1.189C15.059,14.53,14.892,14.467,14.644,14.345Z" transform="translate(4179 1498.75)" fill="#f2f2f2"/>
  </g>
</svg>
