<svg xmlns="http://www.w3.org/2000/svg" width="44" height="44" viewBox="0 0 44 44">
  <g id="Group_400" data-name="Group 400" transform="translate(-0.13)">
    <circle id="Ellipse_6" data-name="Ellipse 6" cx="22" cy="22" r="22" transform="translate(0.13)" fill="#f2f2f2"/>
    <path id="Icon_ionic-logo-youtube" data-name="Icon ionic-logo-youtube" d="M22.263,8.212a3.4,3.4,0,0,0-3.239-3.554C16.6,4.544,14.126,4.5,11.6,4.5h-.788c-2.521,0-5,.044-7.424.158A3.41,3.41,0,0,0,.153,8.221C.044,9.779,0,11.337,0,12.9s.044,3.117.149,4.679a3.414,3.414,0,0,0,3.235,3.568c2.548.118,5.161.171,7.818.166s5.266-.044,7.818-.166a3.415,3.415,0,0,0,3.239-3.568c.105-1.563.153-3.121.149-4.684S22.368,9.775,22.263,8.212ZM9.061,17.19v-8.6l6.347,4.3Z" transform="translate(10.522 8.891)" fill="#050505"/>
  </g>
</svg>
