<svg xmlns="http://www.w3.org/2000/svg" width="46" height="46" viewBox="0 0 46 46">
  <g id="Youtube" transform="translate(-1023 -2440)">
    <circle id="Ellipse_6" data-name="Ellipse 6" cx="23" cy="23" r="23" transform="translate(1023 2440)" fill="#f2f2f2"/>
    <path id="Icon_ionic-logo-youtube" data-name="Icon ionic-logo-youtube" d="M23.275,8.381a3.557,3.557,0,0,0-3.387-3.716c-2.535-.119-5.121-.165-7.761-.165H11.3c-2.636,0-5.226.046-7.761.165A3.565,3.565,0,0,0,.16,8.39C.046,10.019,0,11.648,0,13.277s.046,3.258.156,4.892A3.569,3.569,0,0,0,3.537,21.9c2.663.124,5.4.178,8.173.174s5.505-.046,8.173-.174a3.57,3.57,0,0,0,3.387-3.73c.11-1.634.16-3.263.156-4.9S23.385,10.015,23.275,8.381Zm-13.8,9.386V8.774l6.636,4.494Z" transform="translate(1034 2449.5)" opacity="0.45"/>
  </g>
</svg>
