<svg xmlns="http://www.w3.org/2000/svg" xmlns:xlink="http://www.w3.org/1999/xlink" width="155.602" height="173.86" viewBox="0 0 155.602 173.86">
  <defs>
    <radialGradient id="radial-gradient" cx="0.769" cy="0.443" r="0.592" gradientUnits="objectBoundingBox">
      <stop offset="0" stop-color="#face6d"/>
      <stop offset="0.293" stop-color="#f9bd56"/>
      <stop offset="0.687" stop-color="#f7931e"/>
      <stop offset="1" stop-color="#ff4c3a"/>
    </radialGradient>
    <radialGradient id="radial-gradient-2" cx="0.273" cy="1.263" r="1.729" xlink:href="#radial-gradient"/>
  </defs>
  <g id="Group_9885" data-name="Group 9885" transform="translate(-287.025 -269.807)">
    <path id="Path_4931" data-name="Path 4931" d="M388.99,443.6a164.264,164.264,0,0,1-33.949-2.435,119.6,119.6,0,0,1-16.6-4.239,96.042,96.042,0,0,1-15.73-6.759,72.989,72.989,0,0,1-25.239-21.986,60.569,60.569,0,0,1-7.642-14.559,48.147,48.147,0,0,1-2.8-16.159,46.006,46.006,0,0,1,3.089-16.324,60.667,60.667,0,0,1,8.229-14.571A100.751,100.751,0,0,1,309.5,334.141c4.011-3.839,8.225-7.423,12.545-10.815A328.207,328.207,0,0,1,348.99,304.22c9.373-5.913,19.078-11.427,29.116-16.435l6.714,10.508c-9.563,4.888-18.943,10.082-27.947,15.768-9.038,5.637-17.811,11.626-26.173,18.022-8.319,6.37-16.22,13-22.234,20.592-6.013,7.547-10.04,16.056-10.454,25a40.428,40.428,0,0,0,1.662,13.457,51.5,51.5,0,0,0,5.768,12.888,63.769,63.769,0,0,0,9.179,11.493,68.821,68.821,0,0,0,11.934,9.512,97.863,97.863,0,0,0,14.063,7.376,128.808,128.808,0,0,0,15.421,5.359A193.732,193.732,0,0,0,388.99,443.6Z" fill="url(#radial-gradient)"/>
    <g id="Group_9132" data-name="Group 9132">
      <path id="Path_4932" data-name="Path 4932" d="M370.276,338.706l-.911-39.741-32.9-27.008,106.166-2.151Z" fill="url(#radial-gradient-2)"/>
    </g>
  </g>
</svg>
